<?xml version="1.0" standalone="no"?>
<!DOCTYPE svg PUBLIC "-//W3C//DTD SVG 1.1//EN" "http://www.w3.org/Graphics/SVG/1.1/DTD/svg11.dtd">
<svg xmlns="http://www.w3.org/2000/svg">
<defs >
<font id="Literata" horiz-adv-x="639" ><font-face
    font-family="Literata ExtraBold"
    units-per-em="1000"
    panose-1="0 0 0 0 0 0 0 0 0 0"
    ascent="1177"
    descent="-308"
    alphabetic="0" />
<glyph unicode=" " horiz-adv-x="201" />
<glyph unicode="!" horiz-adv-x="347" d="M118 223V288Q118 335 113 375T99 450T83 515T69 572T63 625Q63 659 79 678T122 706T177 715Q227 715 257 695T288 627Q288 595 279 559T259 481T238 391T229 287V223H118ZM174 -15Q127 -15 100 8T73 73Q73 112 100 135T174
159Q222 159 248 136T274 72Q274 33 247 9T174 -15Z" />
<glyph unicode="&quot;" horiz-adv-x="469" d="M101 510L66 674Q62 689 60 706T58 737Q58 766 77 783T136 800Q167 800 190 785T213 740Q213 733 212 724T207 702L160 510H101ZM299 510L264 674Q260 689 258 706T256 737Q256 766 275 783T334 800Q365 800 388
785T411 740Q411 733 410 724T405 702L358 510H299Z" />
<glyph unicode="#" horiz-adv-x="702" d="M136 -5L154 124L27 119L50 225L174 224L186 329L59 326L78 431L202 435L216 555L339 552L318 431L421 435L437 555L559 556L542 435L675 440L655 334H521L510 230L649 233L631 128L494 124L479 -5L356 -2L376 128L276
124L259 -5H136ZM291 225L394 229L405 335L301 330L291 225Z" />
<glyph unicode="$" horiz-adv-x="615" d="M265 -90V-8Q229 -1 198 13T143 45L131 -6H47L34 215L124 230Q136 197 156 170T204 124T265 100V260Q256 263 246 266T227 273Q178 290 143 310T85 355T53 412T43 488Q43 516 53 552T89 623T157 682T265 713V804H343V712Q378
708 405 697T458 667L471 715H543L566 492L474 474Q459 518 438 544T392 584T343 602V446Q347 445 353 444T363 440Q408 427 448 411T521 371T571 309T589 216Q589 160 568 118T512 47T432 3T343 -14V-90H265ZM343 102Q362 106 374 114T393 135T399 162Q399 178
393 190T375 212T343 232V102ZM265 478V598Q245 592 233 577T221 541Q221 527 226 516T240 496T265 478Z" />
<glyph unicode="%" horiz-adv-x="940" d="M207 -14L575 597H738L372 -14H207ZM212 274Q155 274 112 290T43 341T18 426Q18 489 44 526T116 579T217 595Q270 595 313 580T381 532T407 443Q407 384 381 347T312 292T212 274ZM213 348Q227 348 234 365T242 436Q242
488 234 504T210 521Q196 521 188 506T180 437Q180 385 188 367T213 348ZM727 -23Q670 -23 627 -7T558 43T533 129Q533 191 559 228T631 281T732 297Q786 297 829 283T897 235T922 145Q922 87 897 50T827 -5T727 -23ZM728 50Q742 50 749 68T757 139Q757 174 754
192T743 217T725 224Q711 224 703 209T695 140Q695 88 703 69T728 50Z" />
<glyph unicode="&amp;" horiz-adv-x="852" d="M272 -14Q207 -14 152 6T64 70T31 181Q31 213 41 240T71 290T120 333T189 368Q162 396 143 423T114 478T103 538Q103 584 122 617T175 673T249 705T331 716Q425 716 477 674T529 563Q529 526 511 494T463 438T398
400L500 289Q518 343 541 383T593 450T650 490T710 504Q763 504 794 476T825 405Q825 382 817 360T793 325T752 311Q728 311 714 323T689 356T668 403Q646 388 627 363T593 303T567 219Q604 182 629 161T675 132T721 123Q741 123 761 132T801 154L829 86Q805 61
779 40T724 7T661 -6Q630 -6 601 2T543 26T485 66Q465 44 435 26T364 -3T272 -14ZM323 92Q357 92 379 101T416 128L243 308Q231 296 222 282T209 252T204 215Q204 175 221 148T266 106T323 92ZM345 451Q368 472 382 494T402 537T409 577Q409 608 389 625T337 642Q301
642 285 623T269 579Q269 555 278 534T305 493T345 451Z" />
<glyph unicode="&apos;" horiz-adv-x="271" d="M101 510L66 674Q62 689 60 706T58 737Q58 766 77 783T136 800Q167 800 190 785T213 740Q213 733 212 724T207 702L160 510H101Z" />
<glyph unicode="(" horiz-adv-x="373" d="M268 -220Q212 -160 168 -98T92 33T45 176T28 333Q28 412 47 481T99 613T177 730T270 834L342 789Q306 728 281 650T244 488T231 323Q231 234 244 147T283 -22T342 -177L268 -220Z" />
<glyph unicode=")" horiz-adv-x="373" d="M91 -220L17 -177Q51 -106 76 -24T114 145T128 319Q128 401 116 485T80 647T18 789L91 834Q141 785 184 730T261 613T313 482T332 333Q332 251 315 176T267 33T191 -98T91 -220Z" />
<glyph unicode="*" horiz-adv-x="451" d="M218 385Q184 385 171 401T168 451L195 542L137 479Q114 453 88 455T42 491Q25 521 34 540T75 567L177 593L86 618Q51 627 40 650T48 705Q65 735 87 738T131 715L196 644L172 729Q162 764 177 785T230 806Q263 806 276
790T280 740L251 643L314 707Q340 732 365 731T410 695Q427 667 419 648T376 620L275 593L365 568Q400 559 411 536T403 480Q386 451 365 449T320 471L253 540L276 461Q285 427 271 406T218 385Z" />
<glyph unicode="+" horiz-adv-x="582" d="M219 84V241H80V374H219V518H356V374H502V241H356V84H219Z" />
<glyph unicode="," horiz-adv-x="324" d="M110 -178L65 -118Q91 -99 109 -81T138 -44T152 -5H143Q125 -5 104 2T68 28T54 80Q54 123 82 148T159 173Q212 173 241 144T271 63Q271 20 254 -24T201 -108T110 -178Z" />
<glyph unicode="-" horiz-adv-x="330" d="M33 234V361H298V234H33Z" />
<glyph unicode="." horiz-adv-x="327" d="M164 -15Q112 -15 83 11T54 80Q54 122 83 148T164 174Q217 174 244 149T272 80Q272 37 243 11T164 -15Z" />
<glyph unicode="/" horiz-adv-x="524" d="M-1 -110L345 802H494L149 -110H-1Z" />
<glyph unicode="0" horiz-adv-x="638" d="M321 -14Q217 -14 154 32T61 160T31 343Q31 448 56 519T122 633T216 696T324 715Q410 715 473 678T572 563T608 366Q608 242 574 157T476 29T321 -14ZM327 89Q346 89 360 102T384 145T396 226T400 354Q400 430 396 480T381
560T356 600T318 612Q299 612 284 602T259 566T244 490T239 362Q239 289 244 238T260 153T287 105T327 89Z" />
<glyph unicode="1" horiz-adv-x="419" d="M23 0V86L89 95Q104 98 109 107T115 140V541Q115 561 110 569T80 582L15 591L26 676L297 712L323 694V137Q323 114 329 106T351 94L406 86V0H23Z" />
<glyph unicode="2" horiz-adv-x="556" d="M32 0L22 96Q92 172 142 228T224 327T275 403T301 469T309 537Q309 578 291 599T240 620Q222 620 204 616T170 604Q181 588 186 577T195 556T199 534Q199 505 176 485T107 464Q59 464 37 489T14 554Q14 599 46 635T138
693T275 715Q355 715 410 692T493 626T521 528Q521 494 514 464T487 403T433 332T343 242T207 120H327Q350 120 365 124T389 139T407 173T425 231H532L512 0H32Z" />
<glyph unicode="3" horiz-adv-x="568" d="M264 -14Q215 -14 175 -5T104 20T50 53T14 84L77 184Q103 165 128 151T180 130T236 122Q271 122 292 132T324 163T334 211Q334 263 292 282T156 296L166 397Q227 403 262 418T314 461T330 529Q330 577 307 600T249 623Q233
623 214 619T179 604Q194 581 200 566T206 535Q206 522 198 507T170 482T117 471Q87 471 68 482T40 514T31 558Q31 598 60 634T147 692T286 715Q358 715 411 697T493 641T522 548Q522 505 504 472T451 415T362 379V374Q418 366 458 346T519 290T540 198Q540 147
519 107T461 41T374 0T264 -14Z" />
<glyph unicode="4" horiz-adv-x="634" d="M226 0V81L283 89Q308 92 313 103T319 132V161H23L10 247L319 692L501 712L527 694V272H617V161H527V124Q527 106 536 98T564 88L603 82V0H226ZM137 272H319V530L317 532L137 272Z" />
<glyph unicode="5" horiz-adv-x="565" d="M257 -14Q210 -14 167 -4T84 29T11 85L75 184Q113 152 154 137T233 121Q264 121 286 133T320 170T332 232Q332 286 304 310T227 335Q199 335 169 328T109 303L50 362L83 701H504V668L477 568H193L178 428Q205 443 239
450T312 457Q381 457 431 432T510 357T538 239Q538 178 520 131T467 51T379 3T257 -14Z" />
<glyph unicode="6" horiz-adv-x="612" d="M307 -15Q204 -15 143 25T57 139T31 305Q31 379 47 451T103 584T208 679T372 715Q426 715 473 701T552 659T583 589Q583 568 574 546T544 510T488 495Q458 495 441 504T416 526T409 550Q409 560 411 568T418 587T433 613Q421
619 406 622T370 626Q349 626 330 618T295 592T268 547T248 483T237 399Q261 421 297 436T382 451Q443 451 488 428T559 358T584 242Q584 160 550 102T454 15T307 -15ZM314 89Q339 89 356 102T382 146T391 223Q391 269 382 295T356 333T316 345Q294 345 275 335T245
301T234 238Q234 191 242 158T267 107T314 89Z" />
<glyph unicode="7" horiz-adv-x="564" d="M192 -13L167 0Q164 87 175 162T216 307T294 441T414 572H222Q201 572 188 570T166 558T151 526T137 466H23L38 701H552L565 599Q512 546 472 488T406 360T370 203T366 4L192 -13Z" />
<glyph unicode="8" horiz-adv-x="611" d="M283 -15Q202 -15 142 5T49 65T16 167Q16 206 31 239T79 300T166 349Q125 372 99 397T60 453T47 525Q47 571 74 614T161 686T316 715Q400 715 454 695T534 640T560 558Q560 523 547 495T507 444T443 401Q502 373 534 342T579
277T592 205Q592 150 569 109T503 40T405 -1T283 -15ZM300 94Q328 94 348 105T379 136T391 184Q391 205 383 221T359 251T317 277T257 302Q223 274 210 246T197 188Q197 155 211 135T248 104T300 94ZM345 444Q365 469 375 495T385 545Q385 571 375 586T348 609T307
617Q286 617 269 610T242 588T232 552Q232 533 240 517T272 483T345 444Z" />
<glyph unicode="9" horiz-adv-x="607" d="M279 -14Q208 -14 148 6T37 66L92 175Q129 149 169 135T253 121Q283 121 304 131T340 163T363 216T373 294Q349 268 315 256T245 244Q175 244 126 269T51 344T25 461Q25 547 61 603T159 687T300 715Q375 715 427 692T512
626T561 525T577 397Q577 189 504 88T279 -14ZM293 350Q310 350 324 356T349 378T366 417T373 476Q373 518 366 549T342 597T297 615Q281 615 267 608T242 586T226 547T221 489Q221 434 230 404T256 362T293 350Z" />
<glyph unicode=":" horiz-adv-x="327" d="M164 -15Q112 -15 83 11T54 80Q54 122 83 148T164 174Q217 174 244 149T272 80Q272 37 243 11T164 -15ZM164 341Q112 341 83 366T54 436Q54 477 83 503T164 529Q217 529 244 504T272 435Q272 393 243 367T164 341Z" />
<glyph unicode=";" horiz-adv-x="325" d="M110 -178L65 -118Q91 -99 109 -81T138 -44T152 -5H143Q125 -5 104 2T68 28T54 80Q54 123 82 148T159 173Q212 173 241 144T271 63Q271 20 254 -24T201 -108T110 -178ZM162 341Q111 341 82 366T53 436Q53 477 81 503T162
529Q215 529 242 504T270 435Q270 393 241 367T162 341Z" />
<glyph unicode="&lt;" horiz-adv-x="582" d="M425 37L78 248V320L425 532L488 426L249 285L488 145L425 37Z" />
<glyph unicode="=" horiz-adv-x="582" d="M86 336V470H496V336H86ZM86 137V270H496V137H86Z" />
<glyph unicode="&gt;" horiz-adv-x="582" d="M157 37L94 145L333 285L94 426L157 532L504 320V248L157 37Z" />
<glyph unicode="?" horiz-adv-x="571" d="M188 223V334Q188 365 194 386T215 426T262 468Q298 494 315 514T333 562Q333 592 311 609T252 627Q223 627 202 620T166 603Q180 582 187 566T195 533Q195 510 177 493T119 476Q79 476 56 497T33 556Q33 598 63 634T150
692T289 715Q367 715 421 695T502 639T530 552Q530 514 517 484T472 424T391 362Q365 343 350 330T328 305T319 285T317 265V223H188ZM252 -15Q204 -15 178 8T151 73Q151 112 177 135T252 159Q300 159 326 136T352 72Q352 33 325 9T252 -15Z" />
<glyph unicode="@" horiz-adv-x="1001" d="M398 -211Q332 -211 271 -191T162 -128T87 -19T59 141Q59 239 89 324T178 472T328 572T540 608Q636 608 712 587T841 522T922 416T949 270Q949 172 917 107T830 9T704 -24Q663 -24 637 -12T600 24T593 86L608 200L601
201L583 134Q571 89 554 59T515 10T470 -16T422 -24Q376 -24 346 -9T298 31T273 84T266 141Q266 238 298 299T381 390T492 420Q528 420 565 408T639 373L719 400L737 394L704 108Q701 83 705 68T732 53Q756 53 780 78T819 148T835 251Q835 313 819 362T766 446T670
498T526 517Q420 517 341 475T219 355T175 164Q175 87 194 34T248 -52T329 -98T428 -113Q498 -113 546 -97T634 -54L679 -120Q638 -156 565 -183T398 -211ZM453 58Q470 58 483 68T510 102T536 166L592 328Q576 336 561 341T528 346Q506 346 486 330T449 286T424
221T414 142Q414 118 417 99T429 69T453 58Z" />
<glyph unicode="A" horiz-adv-x="767" d="M3 0V88L39 96Q58 101 68 112T89 150L289 701H483L684 145Q695 116 704 106T733 92L765 86V0H408V88L447 94Q465 97 469 109T467 145L450 200H231L214 149Q207 128 208 113T240 92L276 86V0H3ZM263 296H423L348 543H345L263 296Z" />
<glyph unicode="B" horiz-adv-x="710" d="M41 0V86L75 92Q94 96 100 105T106 144V562Q106 588 100 597T73 610L41 615V701H374Q474 701 532 681T617 624T643 540Q643 493 624 461T573 409T502 378V373Q584 362 633 322T683 205Q683 142 652 96T557 25T395 0H41ZM363
102Q397 102 420 115T456 153T468 214Q468 251 455 273T418 304T360 314Q334 314 314 310V107Q326 104 337 103T363 102ZM352 410Q379 410 398 422T427 456T438 511Q438 540 430 560T403 592T352 603H314V412Q322 411 331 411T352 410Z" />
<glyph unicode="C" horiz-adv-x="716" d="M380 -14Q275 -14 199 28T80 150T38 347Q38 430 62 498T133 614T243 689T388 715Q438 715 475 702T544 664L557 715H632L671 464L572 445Q553 503 528 536T473 584T406 599Q354 599 320 572T270 495T253 374Q253 301 268
253T310 176T368 137T435 126Q478 126 513 138T574 168T617 203L680 120Q663 100 637 77T574 33T489 -1T380 -14Z" />
<glyph unicode="D" horiz-adv-x="786" d="M41 0V86L75 92Q94 96 100 105T106 144V562Q106 588 100 597T73 610L41 615V701H382Q436 701 488 692T588 661T671 601T727 507T748 371Q748 279 722 210T642 94T508 24T318 0H41ZM363 113Q411 113 443 128T494 174T522
252T531 364Q531 442 512 491T456 564T367 588H314V117Q327 115 339 114T363 113Z" />
<glyph unicode="E" horiz-adv-x="679" d="M41 0V86L75 92Q94 96 100 105T106 144V562Q106 588 100 597T73 610L41 615V701H606L639 503L527 489Q519 521 510 543T489 577T458 595T410 601H314V402H353Q371 402 381 408T398 429T411 472L491 478V241L410 230Q406
259 400 275T383 298T351 304H314V101H420Q450 101 470 108T502 129T523 169T541 230H653L626 0H41Z" />
<glyph unicode="F" horiz-adv-x="653" d="M41 0V86L75 92Q94 96 100 105T106 144V562Q106 587 100 597T73 610L41 615V701H602L632 490L526 476Q516 514 507 538T484 577T450 596T400 601H314V383H352Q373 383 384 388T401 408T414 453L495 459V216L413 204Q408
237 402 254T383 278T349 284H314V147Q314 119 319 108T354 94L424 87V0H41Z" />
<glyph unicode="G" horiz-adv-x="778" d="M357 -14Q251 -14 181 32T74 160T38 344Q38 429 63 497T136 614T249 689T396 715Q452 715 491 702T561 664L573 715H649L688 464L590 445Q571 502 547 535T490 584T414 599Q375 599 345 584T294 539T264 468T253 373Q253
306 265 259T300 182T351 139T413 125Q434 125 451 128T483 136T509 150V214Q509 236 505 250T476 267L436 272V360H759V272L729 267Q708 263 703 252T697 214V-1H584L562 65Q550 54 524 35T457 1T357 -14Z" />
<glyph unicode="H" horiz-adv-x="842" d="M41 0V86L75 92Q94 96 100 105T106 143V561Q106 588 100 597T73 610L41 615V701H378V615L344 609Q325 605 320 595T314 558V414H529V562Q529 586 523 595T496 609L465 615V701H801V615L768 610Q750 607 744 597T737 559V139Q737
113 744 105T770 92L801 86V0H465V86L498 92Q516 96 522 105T529 143V298H314V139Q314 112 320 105T346 92L378 86V0H41Z" />
<glyph unicode="I" horiz-adv-x="422" d="M41 0V86L77 92Q97 97 102 107T107 143V562Q107 588 101 597T73 610L41 615V701H381V615L345 609Q328 605 322 596T315 558V139Q315 114 320 106T347 92L381 86V0H41Z" />
<glyph unicode="J" horiz-adv-x="587" d="M240 -14Q179 -14 127 5T44 60T12 143Q12 183 25 209T62 248T116 261Q152 261 174 245T197 203Q197 180 188 159T161 110Q174 100 189 95T223 90Q250 90 265 104T288 143T295 201V554Q295 580 289 591T261 605L203 612V701H569V615L533
609Q515 605 509 595T503 559V247Q503 115 434 51T240 -14Z" />
<glyph unicode="K" horiz-adv-x="802" d="M652 -16Q616 -16 589 -9T539 13T501 46T469 92L364 274L315 223V143Q315 116 322 106T347 92L380 86V0H41V86L76 92Q94 96 100 105T107 143V561Q107 588 101 597T74 610L41 615V701H380V615L345 609Q327 605 321 595T315
558V369L515 568Q525 579 527 587T525 602T508 609L465 615L477 701H745V611L705 604Q692 602 683 598T664 585T639 560L506 419L650 183Q668 154 681 136T710 109T744 100Q756 100 766 101T787 105L803 31Q781 13 743 -1T652 -16Z" />
<glyph unicode="L" horiz-adv-x="656" d="M41 0V86L76 92Q94 96 100 105T106 143V562Q106 588 99 598T74 610L41 615V701H396V616L349 609Q328 606 321 597T314 562V106H383Q412 106 431 113T464 138T489 185T513 258H628L600 0H41Z" />
<glyph unicode="M" horiz-adv-x="977" d="M28 0V85L61 92Q80 96 86 104T93 132L120 570Q121 591 115 599T88 610L54 615V701H346L489 355L493 357L650 701H917V615L880 610Q866 608 859 603T852 570L884 139Q886 117 890 108T917 92L950 86V0H611V86L662 93Q674
95 680 103T685 130L659 467L656 469L500 113H396L238 469L235 467L216 140Q215 119 217 108T245 92L289 86V0H28Z" />
<glyph unicode="N" horiz-adv-x="839" d="M41 0V86L75 92Q93 96 99 105T106 143V561Q106 588 100 597T73 610L41 615V701H318L594 251L597 253V561Q597 587 591 596T564 608L533 615V701H801V615L768 610Q750 607 744 597T737 559V0H521L250 428L246 427V139Q246
112 252 105T278 92L311 86V0H41Z" />
<glyph unicode="O" horiz-adv-x="787" d="M387 -14Q267 -14 190 32T75 158T38 340Q38 461 84 545T213 672T408 715Q511 715 587 675T706 558T749 367Q749 288 727 219T660 98T547 16T387 -14ZM399 104Q431 104 455 116T497 155T522 230T531 350Q531 414 522 461T496
538T452 584T390 599Q357 599 332 587T290 546T264 472T255 358Q255 293 263 246T290 167T335 120T399 104Z" />
<glyph unicode="P" horiz-adv-x="684" d="M41 0V86L75 92Q94 96 100 105T106 144V562Q106 586 100 596T72 610L41 615V701H376Q424 701 466 696T545 676T607 638T648 578T663 490Q663 431 644 390T595 321T529 279T459 258T399 251Q374 251 350 252T314 256V146Q314
119 319 108T354 94L424 86V0H41ZM352 361Q402 361 428 392T454 488Q454 527 443 552T409 589T352 601H314V364Q322 363 331 362T352 361Z" />
<glyph unicode="Q" horiz-adv-x="803" d="M723 -192Q676 -192 636 -175T559 -116T485 -5Q464 -10 442 -12T395 -14Q275 -14 196 32T77 158T38 340Q38 461 86 545T219 672T416 715Q519 715 597 675T720 558T765 367Q765 269 729 187T621 52Q653 5 677 -19T724 -52T770
-61Q801 -61 825 -54T880 -28L920 -85Q894 -118 863 -142T797 -179T723 -192ZM404 97Q409 97 416 97T428 99Q414 127 402 148T378 183T355 203T329 210Q313 210 301 206T277 193Q288 163 306 142T348 109T404 97ZM529 193Q541 219 547 260T554 350Q554 414 543
461T512 538T463 584T399 599Q366 599 339 587T293 546T264 472T253 358Q253 329 255 311T263 271Q282 287 308 296T366 306Q398 306 426 292T480 253T529 193Z" />
<glyph unicode="R" horiz-adv-x="757" d="M603 -14Q552 -14 517 3T460 50T429 117L399 238Q394 256 387 271T369 297T340 307Q334 307 328 307T315 306V145Q315 124 320 111T351 92L385 86V0H41V86L75 92Q94 96 100 105T106 144V562Q106 586 100 596T72 610L41
615V701H377Q436 701 487 693T579 665T641 611T664 526Q664 484 647 455T602 405T546 373T490 355T450 347V342Q517 335 554 313T607 241L627 184Q638 154 646 136T666 110T694 101Q705 101 715 103T736 107L752 33Q730 14 692 0T603 -14ZM347 393Q379 393 400
406T433 444T444 504Q444 541 430 562T395 592T350 601H317V394Q325 393 332 393T347 393Z" />
<glyph unicode="S" horiz-adv-x="622" d="M331 -14Q275 -14 226 3T145 45L132 -6H49L35 215L125 230Q136 202 152 177T191 135T241 107T300 97Q331 97 351 105T381 127T391 161Q391 186 376 203T331 233T252 260Q215 272 178 288T111 329T63 392T45 488Q45 512
52 542T77 602T123 658T196 699T301 715Q354 715 390 703T460 667L472 715H545L567 492L476 474Q457 528 429 556T371 594T314 605Q280 605 256 589T232 541Q232 514 248 498T295 469T363 445Q408 433 449 416T522 374T572 310T591 216Q591 158 568 115T507 43T424
0T331 -14Z" />
<glyph unicode="T" horiz-adv-x="752" d="M175 0V86L239 94Q261 96 266 110T272 145V601H249Q223 601 205 595T174 573T150 529T130 458L13 480L44 701H709L739 479L622 458Q612 501 602 529T579 573T548 595T507 601H480V145Q480 124 485 111T514 94L578 86V0H175Z" />
<glyph unicode="U" horiz-adv-x="772" d="M392 -14Q304 -14 246 7T156 66T110 152T96 254V559Q96 586 90 596T62 610L31 615V701H368V615L333 609Q315 605 309 595T303 559V251Q303 208 315 178T355 131T427 114Q478 114 506 131T545 179T557 250V559Q557 587
551 596T522 610L491 615V701H742V615L708 609Q689 605 683 595T677 555V259Q677 167 645 107T550 16T392 -14Z" />
<glyph unicode="V" horiz-adv-x="769" d="M284 0L88 557Q78 586 70 594T43 607L4 615V701H378V612L327 605Q309 603 305 593T308 555L429 178H435L560 549Q569 577 564 589T537 604L488 612L494 701H766V614L722 606Q705 603 698 594T677 550L484 0H284Z" />
<glyph unicode="W" horiz-adv-x="1120" d="M218 0L91 560Q85 586 77 594T45 607L4 615V701H373V613L328 606Q309 603 304 591T303 555L378 194H382L504 701H700L833 185H836L907 559Q912 586 909 595T886 607L837 616V701H1116V613L1066 606Q1055 605 1046 603T1031
591T1019 559L899 0H672L556 449H553L444 0H218Z" />
<glyph unicode="X" horiz-adv-x="785" d="M8 0V86L39 93Q70 100 87 107T118 126T149 159L301 331L125 558Q111 577 92 589T45 607L7 615L23 701H390V612L352 609Q334 607 334 598T345 572L428 461L519 575Q528 586 528 594T508 606L473 612L489 701H758V612L724
608Q706 607 693 603T670 591T649 570L493 381L676 140Q690 121 706 109T751 91L779 87V0H403V86L442 90Q465 92 467 104T449 143L367 249L271 132Q257 116 257 105T277 91L328 86V0H8Z" />
<glyph unicode="Y" horiz-adv-x="763" d="M192 0V86L251 92Q269 95 275 104T282 143V250L105 555Q92 577 81 590T45 607L4 614V701H370V614L323 607Q306 605 304 593T314 557L422 378H427L528 550Q543 577 540 589T510 607L463 614V701H760V614L710 605Q692 601
680 589T653 549L483 254V139Q483 114 489 105T515 92L574 86V0H192Z" />
<glyph unicode="Z" horiz-adv-x="705" d="M39 0V95L423 601H289Q260 601 241 594T209 568T184 519T159 441L46 433L58 701H658V606L280 101H396Q429 101 452 108T491 132T523 182T557 266H668L648 0H39Z" />
<glyph unicode="[" horiz-adv-x="365" d="M80 -212V812H343L344 727L288 721Q271 720 264 711T257 681V-81Q257 -101 264 -110T288 -121L344 -127L343 -212H80Z" />
<glyph unicode="\" horiz-adv-x="528" d="M344 -110L-1 802H148L494 -110H344Z" />
<glyph unicode="]" horiz-adv-x="365" d="M22 -212V-127L78 -121Q95 -119 102 -110T109 -81V681Q109 701 102 710T78 721L22 727V812H286V-212H22Z" />
<glyph unicode="^" horiz-adv-x="582" d="M143 321L21 397L234 713H347L562 398L439 321L288 527L143 321Z" />
<glyph unicode="_" horiz-adv-x="470" d="M0 -129V-30H470V-129H0Z" />
<glyph unicode="`" horiz-adv-x="500" d="M296 572L138 678Q117 692 108 708T99 741Q99 755 105 773T128 804T169 818Q186 818 198 812T225 785L338 615L296 572Z" />
<glyph unicode="a" horiz-adv-x="601" d="M189 -14Q112 -14 70 23T28 123Q28 185 60 219T157 268T320 286V352Q320 387 315 409T294 442T249 453Q229 453 209 448T175 434Q184 419 190 407T198 387T201 370Q201 347 180 331T114 315Q76 315 58 333T39 380Q39 423
69 456T154 509T284 528Q365 528 416 507T493 443T518 332V140Q518 117 525 106T552 95Q562 95 571 97T588 102L603 34Q581 16 545 1T465 -14Q413 -14 382 9T342 66Q332 47 312 29T262 -2T189 -14ZM265 84Q283 84 295 91T313 111T320 144V212Q286 212 264 205T232
183T221 142Q221 117 231 101T265 84Z" />
<glyph unicode="b" horiz-adv-x="673" d="M183 -3L76 -2V599Q76 630 71 643T39 660L9 665L16 755L258 768L275 757V451L279 449Q296 474 319 491T373 519T436 529Q499 529 545 501T616 417T642 280Q642 190 614 124T529 22T386 -14Q338 -14 301 -1T234 37L183
-3ZM348 98Q379 98 397 114T425 166T434 264Q434 318 425 351T397 400T353 415Q327 415 310 403T284 367T275 310V123Q288 112 307 105T348 98Z" />
<glyph unicode="c" horiz-adv-x="570" d="M297 -14Q212 -14 153 18T62 109T31 245Q31 330 65 393T164 493T323 529Q394 529 443 509T517 456T542 387Q542 363 533 342T503 308T449 295Q411 295 389 310T366 356Q366 366 371 380T390 420Q376 428 361 431T325 435Q296
435 275 419T243 369T231 284Q231 204 262 165T356 125Q392 125 425 135T499 170L552 96Q511 50 451 18T297 -14Z" />
<glyph unicode="d" horiz-adv-x="685" d="M250 -14Q178 -14 129 16T56 104T31 242Q31 330 61 394T148 494T286 529Q323 529 350 522T399 503V613Q399 640 392 651T359 666L322 672L331 760L581 767L597 750V134Q597 112 602 104T630 92L662 85V-1L427 -7L416 73H411Q399
50 379 31T327 -1T250 -14ZM320 99Q346 99 363 111T390 147T399 206V393Q381 404 363 410T323 417Q294 417 275 400T248 346T239 255Q239 201 248 167T275 116T320 99Z" />
<glyph unicode="e" horiz-adv-x="593" d="M306 -14Q215 -14 154 18T62 108T31 242Q31 336 68 400T172 496T324 529Q396 529 449 507T530 439T559 328Q559 302 557 276T550 229H236Q238 195 253 172T294 137T354 125Q404 125 440 138T512 176L568 108Q526 56 461
21T306 -14ZM234 320H369Q371 333 372 345T373 369Q373 401 359 419T316 437Q288 437 271 422T245 381T234 320Z" />
<glyph unicode="f" horiz-adv-x="451" d="M34 0V84L67 89Q87 93 92 103T97 140V413H22V498L99 512V545Q99 592 110 634T148 710T221 763T336 782Q401 782 444 765T510 718T533 647Q533 611 513 590T449 568Q412 568 392 582T372 624Q372 638 377 651T396 690Q387
695 375 698T351 701Q330 701 318 691T301 660T296 606V515H432V413H296V135Q296 111 304 102T336 90L393 84V0H34Z" />
<glyph unicode="g" horiz-adv-x="634" d="M270 -230Q202 -230 153 -222T72 -197T25 -156T9 -99Q9 -63 26 -41T71 -6T129 16V19Q85 32 68 56T50 105Q50 131 64 152T107 192V195Q71 217 50 251T29 335Q29 403 65 446T161 509T292 530Q308 530 331 528T381 521T431
505Q462 564 493 599T568 635Q586 635 604 628T633 604T645 561Q645 531 627 508T579 484Q563 484 551 493T528 516L517 532Q507 522 499 507T482 477Q509 451 530 420T551 338Q551 287 521 245T433 177T293 151Q264 151 242 154T198 164Q192 158 188 152T184 137Q184
122 193 115T217 105T251 103H436Q526 103 572 69T618 -28Q618 -51 611 -77T584 -131T526 -180T425 -216T270 -230ZM291 -137Q327 -137 352 -128T391 -103T405 -67Q405 -47 392 -37T352 -27H220Q210 -37 203 -51T196 -81Q196 -111 220 -124T291 -137ZM291 254Q320
254 335 276T351 340Q351 390 335 411T290 433Q256 433 243 406T230 342Q230 302 245 278T291 254Z" />
<glyph unicode="h" horiz-adv-x="706" d="M29 0V83L63 90Q77 93 83 101T89 135V598Q89 632 83 644T53 660L22 665L29 755L270 768L287 757V443L291 441Q314 483 354 506T454 529Q515 529 553 507T608 445T625 358V128Q625 108 630 100T656 88L685 83V0H378V82L400
86Q415 89 420 97T426 130V310Q426 341 421 361T402 390T367 399Q345 399 327 390T298 357T287 293V132Q287 110 292 100T312 87L337 82V0H29Z" />
<glyph unicode="i" horiz-adv-x="383" d="M31 0V84L70 90Q86 93 91 102T97 139V351Q97 385 91 397T61 413L28 418L35 509L279 522L295 512V138Q295 116 299 105T322 90L360 83V0H31ZM182 593Q127 593 97 618T66 689Q66 733 95 758T182 783Q240 783 268 759T297
688Q297 643 266 618T182 593Z" />
<glyph unicode="j" horiz-adv-x="354" d="M74 -230L11 -151Q32 -130 47 -109T71 -64T84 -14T88 47V353Q88 387 82 398T53 413L19 418L26 509L269 522L287 512V95Q287 27 270 -24T224 -112T157 -178T74 -230ZM172 593Q118 593 87 618T56 689Q56 733 85 758T172
783Q230 783 258 759T287 688Q287 643 256 618T172 593Z" />
<glyph unicode="k" horiz-adv-x="709" d="M566 -13Q537 -13 511 -6T462 21T416 73L300 251V272L427 389Q442 402 441 412T423 425L381 431L396 515H666V428L624 422Q606 420 593 412T563 388L473 303L577 158Q599 127 614 113T655 98Q662 98 670 99T690 105L707
35Q684 16 646 2T566 -13ZM26 0V84L62 90Q77 93 83 101T89 136V599Q89 632 83 644T53 660L22 665L29 755L271 768L288 757V136Q288 114 292 104T317 89L343 84V0H26Z" />
<glyph unicode="l" horiz-adv-x="377" d="M24 0V84L62 90Q80 93 85 102T90 139V599Q90 632 83 644T53 660L22 664L29 755L271 768L288 755V137Q288 111 293 102T318 89L354 83V0H24Z" />
<glyph unicode="m" horiz-adv-x="1013" d="M36 0V83L72 90Q87 93 92 102T97 138V357Q97 387 91 398T63 414L29 419L37 510L254 523L271 513L279 421H283Q299 455 323 479T380 516T453 529Q516 529 553 502T604 428Q627 476 669 502T771 529Q828 529 863 507T915
445T932 358V129Q932 109 937 100T962 88L993 83V0H693V82L707 85Q724 87 728 97T733 128V317Q733 348 728 366T712 392T684 399Q666 399 650 391T624 362T614 306V131Q614 111 617 100T638 85L654 82V0H376V82L389 85Q406 87 410 97T415 128V317Q415 350 410 368T394
392T366 399Q348 399 332 391T306 362T296 306V131Q296 111 299 100T320 85L336 82V0H36Z" />
<glyph unicode="n" horiz-adv-x="713" d="M36 0V83L72 90Q87 93 92 102T97 138V357Q97 387 91 398T63 414L29 419L37 510L254 523L271 513L279 421H283Q306 472 350 500T462 529Q523 529 560 507T615 445T632 358V129Q632 109 637 100T662 88L693 83V0H386V82L407
86Q424 89 428 98T433 128V310Q433 343 428 362T409 390T375 399Q353 399 335 390T307 357T296 293V131Q296 109 300 100T320 87L344 82V0H36Z" />
<glyph unicode="o" horiz-adv-x="647" d="M315 -14Q224 -14 161 15T64 103T31 249Q31 347 69 409T177 500T337 529Q419 529 482 503T580 419T616 268Q616 176 581 113T479 18T315 -14ZM329 89Q360 89 377 106T401 158T408 250Q408 302 402 336T385 390T358 418T321
427Q296 427 278 415T249 371T239 282Q239 215 247 172T276 109T329 89Z" />
<glyph unicode="p" horiz-adv-x="685" d="M27 -216V-132L60 -127Q75 -125 81 -116T88 -78V351Q88 388 81 399T55 414L21 419L28 510L245 523L263 513L270 430H273Q291 458 314 480T369 515T445 529Q511 529 558 501T629 417T654 277Q654 190 628 125T546 23T403
-14Q368 -14 339 -8T286 13V-80Q286 -105 292 -115T321 -127L383 -134V-216H27ZM362 98Q392 98 410 114T437 168T446 266Q446 317 437 349T410 396T366 412Q339 412 322 399T295 361T286 304V122Q299 113 320 106T362 98Z" />
<glyph unicode="q" horiz-adv-x="666" d="M302 -216V-134L364 -127Q386 -124 392 -115T399 -79V55H395Q380 32 356 17T305 -6T250 -14Q174 -14 126 17T55 107T31 243Q31 331 60 395T147 494T286 529Q319 529 345 524T394 508T440 478L503 529L597 516V-78Q597
-105 603 -114T625 -127L658 -132V-216H302ZM320 99Q345 99 362 111T389 146T399 202V393Q381 405 363 411T323 417Q294 417 275 400T248 347T239 255Q239 175 259 137T320 99Z" />
<glyph unicode="r" horiz-adv-x="582" d="M36 0V84L72 90Q88 93 92 103T97 139V352Q97 384 93 397T65 414L29 419L37 510L252 523L271 513L279 421H283Q304 469 347 499T446 529Q505 529 539 497T573 412Q573 375 562 350T528 311T474 298Q431 298 412 315T392
355Q392 363 393 370T398 388T409 415Q388 421 368 416T332 394T306 354T296 296V138Q296 113 301 103T326 91L391 83V0H36Z" />
<glyph unicode="s" horiz-adv-x="526" d="M51 -14L37 167L132 173Q148 140 169 119T215 88T270 77Q307 77 324 90T341 127Q341 143 330 152T294 169T231 185Q201 192 168 202T105 231T58 279T40 357Q40 413 66 451T140 509T248 529Q292 529 325 519T381 497L390
529H469L479 356L386 361Q367 407 334 428T261 449Q230 449 213 438T196 405Q196 389 206 379T241 362T302 345Q342 335 378 324T441 294T483 247T499 174Q499 115 473 73T398 8T285 -14Q237 -14 202 -4T140 22L129 -14H51Z" />
<glyph unicode="t" horiz-adv-x="458" d="M261 -14Q205 -14 167 4T108 57T88 145V413H19V500Q70 509 97 530T137 587T156 679L266 694L286 684V515H420V413H286V184Q286 151 296 132T338 113Q357 113 376 119T414 137L453 61Q422 30 375 8T261 -14Z" />
<glyph unicode="u" horiz-adv-x="701" d="M250 -14Q168 -14 126 31T84 157V352Q84 381 80 395T51 414L17 419L24 510L265 523L282 513V203Q282 171 288 152T306 124T338 116Q363 116 380 128T405 164T414 223V353Q414 389 408 399T380 414L353 418L366 510L595
523L613 513V153Q613 121 620 109T644 92L677 86V0L443 -8L430 82H425Q409 56 389 35T336 0T250 -14Z" />
<glyph unicode="v" horiz-adv-x="641" d="M232 0L89 361Q82 379 77 389T64 406T44 415L6 424L19 515H333V427L299 421Q286 419 284 408T289 373L369 156H374L447 367Q456 391 452 403T426 421L393 427L406 515H635V426L603 418Q585 415 576 407T556 368L418 0H232Z" />
<glyph unicode="w" horiz-adv-x="926" d="M199 0L86 361Q80 379 75 390T62 406T41 415L5 424L16 515H323V427L288 421Q276 419 274 408T278 373L333 185H338L414 515H612L695 186H700L750 366Q758 394 751 405T726 421L699 427L712 515H921V427L889 421Q870 418
857 404T832 350L728 0H561L472 340H469L390 0H199Z" />
<glyph unicode="x" horiz-adv-x="624" d="M15 0V83L41 88Q51 90 56 92T70 101T89 119L207 246L105 365Q85 387 71 401T38 418L5 424L17 515H333V429L305 424Q294 423 293 414T304 390L349 339L398 393Q410 406 411 414T398 424L374 429L387 515H603V429L575 424Q562
422 554 418T539 407T521 388L412 272L538 131Q549 118 559 110T581 95T604 87L621 84V0H287V83L311 87Q328 90 330 99T318 124L270 178L226 126Q217 116 213 108T212 95T224 88L245 83V0H15Z" />
<glyph unicode="y" horiz-adv-x="632" d="M154 -230Q91 -230 51 -202T10 -123Q10 -88 32 -62T91 -36Q126 -36 142 -51T158 -86Q158 -97 153 -114T141 -150Q170 -154 190 -143T225 -108T253 -50L266 -21L85 370Q76 390 69 401T43 417L12 424L22 515H336V427L304
423Q282 420 278 408T285 367L366 172H371L447 361Q457 386 454 401T428 420L393 427L406 515H628V426L595 420Q577 416 569 405T547 361L391 -10Q369 -63 347 -104T299 -173T237 -215T154 -230Z" />
<glyph unicode="z" horiz-adv-x="561" d="M37 0V78L298 420H224Q193 420 176 412T149 378T123 302L38 297L50 515H517V440L264 97H341Q365 97 381 102T408 120T430 156T452 212H534L520 0H37Z" />
<glyph unicode="{" horiz-adv-x="367" d="M230 -232Q156 -232 117 -196T78 -98Q78 -78 81 -45T89 28T96 109T100 189Q100 225 89 239T60 257T17 261V347Q42 348 61 351T91 369T102 419Q102 449 99 487T90 564T82 637T78 691Q78 753 119 788T233 824Q263 824 289
821T341 809L326 728Q318 730 309 731T289 732Q278 732 271 728T261 713T258 684Q258 661 260 626T267 553T275 483T278 432Q278 394 266 370T230 330T177 304Q207 295 230 279T265 239T278 176Q278 158 276 125T269 53T261 -23T258 -89Q258 -107 262 -118T274
-134T294 -139Q302 -139 312 -138T330 -135L343 -216Q318 -223 289 -227T230 -232Z" />
<glyph unicode="|" horiz-adv-x="455" d="M152 -110V802H302V-110H152Z" />
<glyph unicode="}" horiz-adv-x="367" d="M137 -232Q108 -232 79 -228T24 -216L37 -135Q46 -136 56 -137T73 -139Q86 -139 94 -135T105 -119T109 -89Q109 -60 106 -23T99 53T92 125T89 176Q89 214 101 238T137 279T191 304Q160 315 137 330T102 369T90 432Q90
451 92 483T99 553T107 626T110 684Q110 702 107 712T96 727T78 732Q68 732 59 731T41 728L26 809Q52 817 78 820T134 824Q207 824 248 789T290 691Q290 671 286 637T278 564T269 487T265 419Q265 384 276 370T307 352T350 347V261Q327 261 308 258T278 240T267
189Q267 151 270 110T278 28T285 -45T289 -98Q289 -160 250 -196T137 -232Z" />
<glyph unicode="~" horiz-adv-x="582" d="M124 218L52 244Q67 286 81 320T117 375T170 396Q194 396 227 390T301 373Q340 364 367 359T414 353Q429 353 438 364T460 397L532 373Q516 329 501 295T466 240T413 219Q388 219 355 225T272 244Q238 253 214 257T170
262Q155 262 146 251T124 218Z" />
<glyph unicode="&#xa0;" horiz-adv-x="201" />
<glyph unicode="&#xa1;" horiz-adv-x="355" d="M229 291V226Q229 179 234 139T248 64T264 -1T278 -58T284 -111Q284 -145 268 -164T225 -192T170 -201Q120 -201 90 -181T59 -113Q59 -81 68 -45T88 33T109 123T118 227V291H229ZM173 529Q220 529 247 506T274 441Q274
402 247 379T173 355Q125 355 99 378T73 442Q73 481 100 505T173 529Z" />
<glyph unicode="&#xa2;" horiz-adv-x="577" d="M158 -35L294 653H430L294 -35H158ZM298 32Q212 32 153 64T62 155T31 291Q31 376 65 439T165 539T324 575Q394 575 443 555T517 502T542 433Q542 409 533 388T504 354T449 341Q412 341 389 356T366 401Q366 412 371
426T390 466Q376 473 361 476T325 480Q297 480 276 464T244 414T232 329Q232 250 262 211T357 171Q393 171 426 181T500 216L553 142Q512 95 451 64T298 32Z" />
<glyph unicode="&#xa3;" horiz-adv-x="634" d="M66 0L50 85Q90 103 114 125T150 175T162 239Q162 256 158 271T148 301H11L22 395H99Q88 419 80 448T72 516Q72 573 105 618T201 688T349 714Q427 714 479 695T556 643T582 567Q582 530 559 505T486 479Q443 479
420 498T396 544Q396 553 398 562T406 584T425 616Q413 622 396 626T361 630Q317 630 295 604T273 527Q273 501 279 479T295 436T315 395H490V301H349Q350 292 351 283T352 265Q352 225 335 192T269 124L271 118H398Q421 118 436 122T462 136T481 169T499 227H606L585
0H66Z" />
<glyph unicode="&#xa4;" horiz-adv-x="568" d="M470 78L382 149Q358 142 330 138T277 134Q256 134 229 138T178 147L92 77L24 143L76 223Q63 245 57 269T50 320Q50 347 57 371T82 424L30 504L98 570L184 499Q209 507 236 510T284 514Q309 514 337 511T390 499L477
569L544 503L488 415Q499 396 505 375T511 329Q511 299 504 273T484 227L538 144L470 78ZM278 216Q295 216 305 228T319 265T323 325Q323 378 314 402T282 427Q259 427 249 402T238 323Q238 271 247 244T278 216Z" />
<glyph unicode="&#xa5;" horiz-adv-x="774" d="M202 0V86L260 92Q278 95 284 104T291 143V216H79L86 293H264V299L234 349H82L89 426H190L114 555Q101 577 90 590T54 607L13 614V701H379V614L332 607Q315 605 313 593T324 557L432 378H437L537 550Q552 577 549
589T519 607L473 614V701H769V614L719 605Q701 601 689 589T662 549L591 426H681V347H545L517 299V293H681V216H492V139Q492 114 498 105T525 92L583 86V0H202Z" />
<glyph unicode="&#xa6;" horiz-adv-x="455" d="M152 -110V309H300L302 -110H152ZM152 407V803H300L302 407H152Z" />
<glyph unicode="&#xa7;" horiz-adv-x="623" d="M294 -159Q240 -161 199 -148T134 -109T111 -45Q111 -26 118 -8T145 22T196 34Q228 33 250 18T273 -23Q273 -31 270 -42T261 -65T248 -86Q254 -89 260 -90T274 -92T289 -92Q305 -91 315 -84T332 -65T340 -38Q340
-6 323 20T272 72T193 125Q136 160 102 189T51 241T27 286T21 327Q21 370 47 405T133 481Q127 497 125 514T122 553Q122 602 149 638T222 696T327 718Q381 719 421 706T485 668T508 604Q508 586 501 568T475 537T423 525Q392 526 369 542T346 582Q346 590 349 601T359
624T371 645Q367 648 360 649T346 651T332 651Q310 650 297 635T284 598Q283 566 301 539T352 487T431 434Q487 400 521 371T572 318T596 273T602 232Q602 190 576 155T490 78Q496 62 498 45T501 6Q501 -42 474 -79T401 -137T294 -159ZM442 134Q452 144 455 154T459
175Q459 193 441 214T392 260T324 310Q293 334 267 353T219 390T181 424Q171 414 168 405T164 385Q164 371 174 356T204 323T249 287T302 247Q348 214 382 187T442 134Z" />
<glyph unicode="&#xa8;" horiz-adv-x="500" d="M372 600Q329 600 302 624T275 691Q275 731 302 755T372 779Q423 779 447 755T471 690Q471 649 443 625T372 600ZM126 600Q82 600 55 624T28 691Q28 731 55 755T126 779Q176 779 200 755T224 690Q224 649 197 625T126 600Z" />
<glyph unicode="&#xa9;" horiz-adv-x="862" d="M431 -20Q311 -20 228 25T103 150T60 335Q60 414 90 478T173 589T292 661T432 686Q510 686 577 661T695 590T774 480T803 338Q803 258 779 192T707 79T590 6T431 -20ZM432 54Q509 54 562 77T648 141T695 230T710
330Q710 415 677 478T581 577T432 612Q347 612 284 577T188 478T154 329Q154 278 168 229T215 141T301 78T432 54ZM435 119Q373 119 327 143T255 212T230 321Q230 388 255 435T324 508T422 533Q455 533 481 524T526 501L531 533H581L607 380L543 369Q529 408 508
433T453 459Q428 459 410 446T382 406T372 337Q372 306 378 281T397 239T427 213T470 204Q505 204 528 217T572 249L612 192Q587 170 562 153T506 128T435 119Z" />
<glyph unicode="&#xaa;" horiz-adv-x="463" d="M139 362Q103 362 78 373T38 405T24 459Q24 506 55 530T144 564Q167 568 193 570T250 573V597Q250 622 246 638T231 661T197 669Q181 669 168 667T144 659Q150 648 153 639T156 624Q156 607 141 596T94 584Q67 584
54 598T40 638Q40 668 62 691T124 728T222 742Q284 742 323 728T381 684T400 604V479Q400 463 405 455T425 447Q432 447 438 448T451 452L462 395Q446 383 420 373T362 362Q325 362 299 377T266 417Q255 397 223 380T139 362ZM212 446Q223 446 231 450T245 462T250
480V518Q228 518 213 514T190 501T182 478Q182 467 189 457T212 446Z" />
<glyph unicode="&#xab;" horiz-adv-x="570" d="M495 29L309 189Q289 207 281 225T272 265Q272 291 283 309T316 346L493 501L555 453L445 269L558 76L495 29ZM254 29L68 189Q48 207 40 225T31 265Q31 291 42 309T75 346L252 501L314 453L204 269L317 76L254 29Z" />
<glyph unicode="&#xac;" horiz-adv-x="582" d="M367 131V266H77V399H505V131H367Z" />
<glyph unicode="&#xad;" horiz-adv-x="330" d="M33 234V361H298V234H33Z" />
<glyph unicode="&#xae;" horiz-adv-x="492" d="M246 381Q178 381 132 407T63 477T40 579Q40 643 67 689T142 760T247 785Q342 785 397 731T452 586Q452 525 426 479T353 407T246 381ZM334 466Q348 466 360 470T382 482L376 503Q372 502 369 501T360 500Q352 500
347 506T337 523L324 551Q318 565 306 574T275 585V588Q290 590 303 596T325 614T334 646Q334 676 311 690T247 704H134L133 679L150 676Q157 675 160 672T163 661V512Q163 505 162 502T154 497L133 494V469H250V494L235 497Q228 498 226 501T223 512V571H236Q243
571 248 567T260 546L276 506Q284 485 299 476T334 466ZM223 599V676H236Q255 676 262 665T269 639Q269 624 263 612T234 599H223Z" />
<glyph unicode="&#xaf;" horiz-adv-x="500" d="M79 618V746H421V618H79Z" />
<glyph unicode="&#xb0;" horiz-adv-x="395" d="M196 543Q117 543 80 578T43 665Q43 721 82 759T201 798Q275 798 313 764T352 673Q352 620 312 582T196 543ZM198 618Q218 618 234 628T251 670Q251 699 236 710T200 722Q181 722 166 710T151 669Q151 640 165 629T198 618Z" />
<glyph unicode="&#xb1;" horiz-adv-x="582" d="M219 191V318H80V451H219V573H356V451H502V318H356V191H219ZM78 1V134H504V1H78Z" />
<glyph unicode="&#xb2;" horiz-adv-x="421" d="M37 374L26 467Q91 523 130 560T191 622T220 665T228 705Q228 732 214 748T174 764Q160 764 146 761T121 753Q127 740 133 729T139 705Q139 686 123 671T79 656Q48 656 31 670T14 715Q14 753 38 781T106 824T204
839Q255 839 294 827T357 787T381 716Q381 687 370 662T334 611T266 554T156 478H238Q268 478 282 483T304 501T321 538H399L385 374H37Z" />
<glyph unicode="&#xb3;" horiz-adv-x="423" d="M200 360Q157 360 123 369T63 394T18 427L69 503Q85 492 100 483T134 469T172 464Q194 464 208 470T229 487T237 513Q237 533 225 544T187 559T122 561L129 633Q179 638 204 656T230 713Q230 739 215 753T175 767Q162
767 150 765T130 756Q136 744 142 733T149 710Q149 691 133 680T89 668Q59 668 42 681T25 721Q25 758 50 784T117 824T208 839Q260 839 299 827T361 791T384 729Q384 686 351 656T261 613V607Q325 603 359 577T393 499Q393 456 368 425T299 377T200 360Z" />
<glyph unicode="&#xb4;" horiz-adv-x="500" d="M205 572L163 615L276 785Q290 806 303 812T332 818Q358 818 373 805T395 773T402 741Q402 725 393 709T363 678L205 572Z" />
<glyph unicode="&#xb5;" horiz-adv-x="697" d="M96 -226L78 -216Q75 -167 73 -118T70 -16T68 92Q68 109 68 139T68 208T68 290T69 376T68 453T68 512L252 523L269 513Q266 448 264 394T260 294T259 206T258 119Q270 110 285 105T323 100Q360 100 379 127T398 208Q398
217 398 236T398 282T398 338T398 400T398 460T398 512L583 523L600 513Q598 478 597 441T594 366T591 290T589 221T588 162Q588 140 593 125T607 103T630 95Q640 95 648 97T667 102L682 34Q655 12 617 -1T542 -14Q514 -14 488 -1T441 34T413 85V85Q405 41 378
14T313 -14Q300 -14 287 -9T261 6H259Q263 -33 267 -70T277 -143T291 -214L96 -226Z" />
<glyph unicode="&#xb6;" horiz-adv-x="660" d="M283 -143V-57L369 -51Q387 -49 393 -39T400 -1V701H634V615L603 611Q584 608 578 598T572 560V-143H283ZM298 241Q219 241 160 264T69 336T36 465Q36 543 65 595T153 674T302 701H339V241H298Z" />
<glyph unicode="&#xb7;" horiz-adv-x="327" d="M164 211Q112 211 83 237T54 306Q54 348 83 374T164 400Q217 400 244 375T272 306Q272 263 243 237T164 211Z" />
<glyph unicode="&#xb8;" horiz-adv-x="500" d="M266 -252Q215 -252 177 -239T121 -213L141 -154Q163 -163 182 -167T218 -171Q239 -171 249 -162T260 -134Q260 -120 251 -111T217 -101Q207 -101 197 -102T179 -106L165 -67L196 13H286L265 -43Q306 -39 334 -50T376
-84T390 -139Q390 -178 374 -203T329 -240T266 -252Z" />
<glyph unicode="&#xb9;" horiz-adv-x="346" d="M32 374V445L81 453Q96 455 100 463T105 485V688Q105 709 101 717T74 727L19 732L26 805L246 835L266 820V483Q266 468 270 462T291 453L337 445V374H32Z" />
<glyph unicode="&#xba;" horiz-adv-x="474" d="M232 360Q166 360 120 381T48 444T23 546Q23 617 53 660T134 722T246 742Q303 742 349 724T423 665T451 559Q451 493 424 449T348 383T232 360ZM241 437Q262 437 273 448T290 484T295 546Q295 594 288 619T267 656T235
667Q218 667 206 659T186 629T179 569Q179 524 184 495T203 451T241 437Z" />
<glyph unicode="&#xbb;" horiz-adv-x="571" d="M332 29L269 76L381 269L270 453L333 501L511 346Q531 329 542 311T554 266Q554 243 546 225T516 189L332 29ZM319 29L256 76L368 269L257 453L320 501L498 346Q518 329 529 311T541 266Q541 243 533 225T503 189L319 29Z" />
<glyph unicode="&#xbc;" horiz-adv-x="1054" d="M32 515V586L81 594Q96 596 100 604T105 626V829Q105 850 101 858T74 868L19 873L26 946L246 976L266 961V624Q266 609 270 603T291 594L337 586V515H32ZM256 -14L673 714H826L410 -14H256ZM819 0V84H625L614 150L822
455L961 466L977 453V165H1038V84H977V0H819ZM711 165H819V311V322L711 165Z" />
<glyph unicode="&#xbd;" horiz-adv-x="1110" d="M32 515V586L81 594Q96 596 100 604T105 626V829Q105 850 101 858T74 868L19 873L26 946L246 976L266 961V624Q266 609 270 603T291 594L337 586V515H32ZM255 -14L672 714H825L409 -14H255ZM726 13L715 106Q780
162 819 199T880 261T909 304T917 344Q917 371 903 387T863 403Q849 403 835 400T810 392Q816 379 822 368T828 344Q828 325 812 310T768 295Q737 295 720 309T703 354Q703 392 727 420T795 463T893 478Q944 478 983 466T1046 426T1070 355Q1070 326 1059 301T1023
250T955 193T845 117H927Q957 117 971 122T993 140T1010 177H1088L1074 13H726Z" />
<glyph unicode="&#xbe;" horiz-adv-x="1095" d="M297 -14L714 714H867L451 -14H297ZM861 0V84H667L656 150L864 455L1003 466L1019 453V165H1080V84H1019V0H861ZM753 165H861V311V322L753 165ZM200 491Q157 491 123 500T63 525T18 558L69 634Q85 623 100 614T134
600T172 595Q194 595 208 601T229 618T237 644Q237 664 225 675T187 690T122 692L129 764Q179 769 204 787T230 844Q230 870 215 884T175 898Q162 898 150 896T130 887Q136 875 142 864T149 841Q149 822 133 811T89 799Q59 799 42 812T25 852Q25 889 50 915T117
955T208 970Q260 970 299 958T361 922T384 860Q384 817 351 787T261 744V738Q325 734 359 708T393 630Q393 587 368 556T299 508T200 491Z" />
<glyph unicode="&#xbf;" horiz-adv-x="571" d="M383 292V181Q383 150 377 129T356 89T309 47Q273 21 256 1T238 -47Q238 -77 260 -94T319 -112Q348 -112 369 -105T405 -88Q391 -67 384 -51T376 -18Q376 5 394 22T452 39Q492 39 515 18T538 -41Q538 -83 508 -119T421
-177T282 -200Q204 -200 150 -180T69 -124T41 -37Q41 1 54 31T99 91T180 153Q206 172 221 185T243 210T252 230T254 250V292H383ZM319 530Q367 530 393 507T420 442Q420 403 394 380T319 356Q271 356 245 379T219 443Q219 482 246 506T319 530Z" />
<glyph unicode="&#xc0;" horiz-adv-x="767" d="M3 0V88L39 96Q58 101 68 112T89 150L289 701H483L684 145Q695 116 704 106T733 92L765 86V0H408V88L447 94Q465 97 469 109T467 145L450 200H231L214 149Q207 128 208 113T240 92L276 86V0H3ZM263 296H423L348 543H345L263
296ZM459 737L280 810Q247 823 234 841T221 881Q221 912 239 936T291 960Q304 960 316 956T343 935L493 790L459 737Z" />
<glyph unicode="&#xc1;" horiz-adv-x="767" d="M3 0V88L39 96Q58 101 68 112T89 150L289 701H483L684 145Q695 116 704 106T733 92L765 86V0H408V88L447 94Q465 97 469 109T467 145L450 200H231L214 149Q207 128 208 113T240 92L276 86V0H3ZM263 296H423L348 543H345L263
296ZM308 737L274 790L424 935Q440 951 452 955T476 960Q510 960 528 936T546 881Q546 859 533 841T487 810L308 737Z" />
<glyph unicode="&#xc2;" horiz-adv-x="767" d="M3 0V88L39 96Q58 101 68 112T89 150L289 701H483L684 145Q695 116 704 106T733 92L765 86V0H408V88L447 94Q465 97 469 109T467 145L450 200H231L214 149Q207 128 208 113T240 92L276 86V0H3ZM263 296H423L348 543H345L263
296ZM235 733L192 786L311 925Q332 950 348 959T389 969Q409 969 427 961T465 926L576 788L535 733L385 824L235 733Z" />
<glyph unicode="&#xc3;" horiz-adv-x="747" d="M3 0V88L39 96Q58 101 68 112T89 150L289 701H483L684 145Q695 116 704 106T733 92L765 86V0H408V88L447 94Q465 97 469 109T467 145L450 200H231L214 149Q207 128 208 113T240 92L276 86V0H3ZM263 296H423L348 543H345L263
296ZM454 763Q428 763 405 769T360 785Q344 793 330 798T303 807T278 810Q267 810 256 802T235 770L174 804Q193 857 211 886T251 927T303 940Q329 940 350 933T395 914Q417 905 435 899T473 892Q487 892 497 901T518 932L579 898Q561 849 543 819T504 776T454
763Z" />
<glyph unicode="&#xc4;" horiz-adv-x="767" d="M3 0V88L39 96Q58 101 68 112T89 150L289 701H483L684 145Q695 116 704 106T733 92L765 86V0H408V88L447 94Q465 97 469 109T467 145L450 200H231L214 149Q207 128 208 113T240 92L276 86V0H3ZM263 296H423L348 543H345L263
296ZM506 768Q463 768 436 792T409 859Q409 899 436 923T506 947Q558 947 582 923T606 858Q606 817 578 793T506 768ZM259 768Q215 768 188 792T161 859Q161 899 188 923T259 947Q310 947 334 923T358 858Q358 817 331 793T259 768Z" />
<glyph unicode="&#xc5;" horiz-adv-x="767" d="M3 0V88L39 96Q58 101 68 112T89 150L289 701H483L684 145Q695 116 704 106T733 92L765 86V0H408V88L447 94Q465 97 469 109T467 145L450 200H231L214 149Q207 128 208 113T240 92L276 86V0H3ZM263 296H423L348 543H345L263
296ZM377 745Q307 745 266 777T225 864Q225 903 245 929T303 969T389 982Q468 982 506 953T545 864Q545 827 524 801T465 760T377 745ZM384 804Q403 804 413 818T423 864Q423 888 418 900T404 918T383 923Q363 923 355 910T346 864Q346 841 350 828T362 809T384
804Z" />
<glyph unicode="&#xc6;" horiz-adv-x="1059" d="M3 0V88L37 96Q49 100 57 104T73 118T89 148L304 605L231 616V701H985L1018 503L906 489Q898 521 890 543T869 577T837 595T789 601H693V392H732Q746 392 755 395T770 406T781 427T791 462L871 468V232L789 221Q785
250 780 266T763 289T731 295H693V101H799Q830 101 849 108T881 129T903 169T921 230H1032L1006 0H421V86L455 92Q475 97 481 107T487 144V293H291L227 159Q221 145 218 134T216 114T224 101T243 94L288 86L286 0H3ZM334 391H487V601H425L334 391Z" />
<glyph unicode="&#xc7;" horiz-adv-x="716" d="M400 -252Q350 -252 312 -239T256 -213L276 -154Q297 -163 316 -167T353 -171Q374 -171 384 -162T395 -134Q395 -120 386 -111T352 -101Q341 -101 332 -102T313 -106L300 -67L322 -10Q234 1 170 45T72 166T38 347Q38
430 62 498T133 614T243 689T388 715Q438 715 475 702T544 664L557 715H632L671 464L572 445Q553 503 528 536T473 584T406 599Q354 599 320 572T270 495T253 374Q253 301 268 253T310 176T368 137T435 126Q478 126 513 138T574 168T617 203L680 120Q665 102 644
82T594 44T528 12T447 -8Q439 -9 430 -10T412 -12L400 -43Q441 -39 469 -50T511 -84T525 -139Q525 -178 509 -203T464 -240T400 -252Z" />
<glyph unicode="&#xc8;" horiz-adv-x="679" d="M41 0V86L75 92Q94 96 100 105T106 144V562Q106 588 100 597T73 610L41 615V701H606L639 503L527 489Q519 521 510 543T489 577T458 595T410 601H314V402H353Q371 402 381 408T398 429T411 472L491 478V241L410 230Q406
259 400 275T383 298T351 304H314V101H420Q450 101 470 108T502 129T523 169T541 230H653L626 0H41ZM418 737L239 810Q206 823 193 841T180 881Q180 912 198 936T250 960Q263 960 275 956T302 935L452 790L418 737Z" />
<glyph unicode="&#xc9;" horiz-adv-x="679" d="M41 0V86L75 92Q94 96 100 105T106 144V562Q106 588 100 597T73 610L41 615V701H606L639 503L527 489Q519 521 510 543T489 577T458 595T410 601H314V402H353Q371 402 381 408T398 429T411 472L491 478V241L410 230Q406
259 400 275T383 298T351 304H314V101H420Q450 101 470 108T502 129T523 169T541 230H653L626 0H41ZM267 737L233 790L383 935Q399 951 411 955T435 960Q469 960 487 936T505 881Q505 859 492 841T446 810L267 737Z" />
<glyph unicode="&#xca;" horiz-adv-x="679" d="M41 0V86L75 92Q94 96 100 105T106 144V562Q106 588 100 597T73 610L41 615V701H606L639 503L527 489Q519 521 510 543T489 577T458 595T410 601H314V402H353Q371 402 381 408T398 429T411 472L491 478V241L410 230Q406
259 400 275T383 298T351 304H314V101H420Q450 101 470 108T502 129T523 169T541 230H653L626 0H41ZM194 733L151 786L270 925Q291 950 307 959T348 969Q368 969 386 961T424 926L535 788L494 733L344 824L194 733Z" />
<glyph unicode="&#xcb;" horiz-adv-x="679" d="M41 0V86L75 92Q94 96 100 105T106 144V562Q106 588 100 597T73 610L41 615V701H606L639 503L527 489Q519 521 510 543T489 577T458 595T410 601H314V402H353Q371 402 381 408T398 429T411 472L491 478V241L410 230Q406
259 400 275T383 298T351 304H314V101H420Q450 101 470 108T502 129T523 169T541 230H653L626 0H41ZM465 768Q422 768 395 792T368 859Q368 899 395 923T465 947Q517 947 541 923T565 858Q565 817 537 793T465 768ZM218 768Q174 768 147 792T120 859Q120 899 147
923T218 947Q269 947 293 923T317 858Q317 817 290 793T218 768Z" />
<glyph unicode="&#xcc;" horiz-adv-x="422" d="M41 0V86L77 92Q97 97 102 107T107 143V562Q107 588 101 597T73 610L41 615V701H381V615L345 609Q328 605 322 596T315 558V139Q315 114 320 106T347 92L381 86V0H41ZM543 737L364 810Q331 823 318 841T305 881Q305
912 323 936T375 960Q388 960 400 956T427 935L577 790L543 737Z" />
<glyph unicode="&#xcd;" horiz-adv-x="422" d="M41 0V86L77 92Q97 97 102 107T107 143V562Q107 588 101 597T73 610L41 615V701H381V615L345 609Q328 605 322 596T315 558V139Q315 114 320 106T347 92L381 86V0H41ZM392 737L358 790L508 935Q524 951 536 955T560
960Q594 960 612 936T630 881Q630 859 617 841T571 810L392 737Z" />
<glyph unicode="&#xce;" horiz-adv-x="422" d="M41 0V86L77 92Q97 97 102 107T107 143V562Q107 588 101 597T73 610L41 615V701H381V615L345 609Q328 605 322 596T315 558V139Q315 114 320 106T347 92L381 86V0H41ZM319 733L276 786L395 925Q416 950 432 959T473
969Q493 969 511 961T549 926L660 788L619 733L469 824L319 733Z" />
<glyph unicode="&#xcf;" horiz-adv-x="422" d="M41 0V86L77 92Q97 97 102 107T107 143V562Q107 588 101 597T73 610L41 615V701H381V615L345 609Q328 605 322 596T315 558V139Q315 114 320 106T347 92L381 86V0H41ZM590 768Q547 768 520 792T493 859Q493 899 520
923T590 947Q642 947 666 923T690 858Q690 817 662 793T590 768ZM343 768Q299 768 272 792T245 859Q245 899 272 923T343 947Q394 947 418 923T442 858Q442 817 415 793T343 768Z" />
<glyph unicode="&#xd0;" horiz-adv-x="786" d="M382 701Q436 701 488 692T588 661T671 601T727 507T748 371Q748 279 722 210T642 94T508 24T318 0H41V86L75 92Q94 96 100 105T106 144V302H9L21 416H106V562Q106 588 100 597T73 610L41 615V701H382ZM363 113Q411
113 443 128T494 174T522 252T531 364Q531 442 512 491T456 564T367 588H314V416H432V302H314V117Q327 115 339 114T363 113Z" />
<glyph unicode="&#xd1;" horiz-adv-x="839" d="M41 0V86L75 92Q93 96 99 105T106 143V561Q106 588 100 597T73 610L41 615V701H318L594 251L597 253V561Q597 587 591 596T564 608L533 615V701H801V615L768 610Q750 607 744 597T737 559V0H521L250 428L246 427V139Q246
112 252 105T278 92L311 86V0H41ZM493 763Q467 763 444 769T399 785Q383 793 369 798T342 807T317 810Q306 810 295 802T274 770L213 804Q232 857 250 886T290 927T342 940Q368 940 389 933T434 914Q456 905 474 899T512 892Q526 892 536 901T557 932L618 898Q600
849 582 819T543 776T493 763Z" />
<glyph unicode="&#xd2;" horiz-adv-x="787" d="M387 -14Q267 -14 190 32T75 158T38 340Q38 461 84 545T213 672T408 715Q511 715 587 675T706 558T749 367Q749 288 727 219T660 98T547 16T387 -14ZM399 104Q431 104 455 116T497 155T522 230T531 350Q531 414 522
461T496 538T452 584T390 599Q357 599 332 587T290 546T264 472T255 358Q255 293 263 246T290 167T335 120T399 104ZM470 737L291 810Q258 823 245 841T232 881Q232 912 250 936T302 960Q315 960 327 956T354 935L504 790L470 737Z" />
<glyph unicode="&#xd3;" horiz-adv-x="787" d="M387 -14Q267 -14 190 32T75 158T38 340Q38 461 84 545T213 672T408 715Q511 715 587 675T706 558T749 367Q749 288 727 219T660 98T547 16T387 -14ZM399 104Q431 104 455 116T497 155T522 230T531 350Q531 414 522
461T496 538T452 584T390 599Q357 599 332 587T290 546T264 472T255 358Q255 293 263 246T290 167T335 120T399 104ZM319 737L285 790L435 935Q451 951 463 955T487 960Q521 960 539 936T557 881Q557 859 544 841T498 810L319 737Z" />
<glyph unicode="&#xd4;" horiz-adv-x="787" d="M387 -14Q267 -14 190 32T75 158T38 340Q38 461 84 545T213 672T408 715Q511 715 587 675T706 558T749 367Q749 288 727 219T660 98T547 16T387 -14ZM399 104Q431 104 455 116T497 155T522 230T531 350Q531 414 522
461T496 538T452 584T390 599Q357 599 332 587T290 546T264 472T255 358Q255 293 263 246T290 167T335 120T399 104ZM246 733L203 786L322 925Q343 950 359 959T400 969Q420 969 438 961T476 926L587 788L546 733L396 824L246 733Z" />
<glyph unicode="&#xd5;" horiz-adv-x="787" d="M387 -14Q267 -14 190 32T75 158T38 340Q38 461 84 545T213 672T408 715Q511 715 587 675T706 558T749 367Q749 288 727 219T660 98T547 16T387 -14ZM399 104Q431 104 455 116T497 155T522 230T531 350Q531 414 522
461T496 538T452 584T390 599Q357 599 332 587T290 546T264 472T255 358Q255 293 263 246T290 167T335 120T399 104ZM473 763Q447 763 424 769T379 785Q363 793 349 798T322 807T297 810Q286 810 275 802T254 770L193 804Q212 857 230 886T270 927T322 940Q348
940 369 933T414 914Q436 905 454 899T492 892Q506 892 516 901T537 932L598 898Q580 849 562 819T523 776T473 763Z" />
<glyph unicode="&#xd6;" horiz-adv-x="787" d="M387 -14Q267 -14 190 32T75 158T38 340Q38 461 84 545T213 672T408 715Q511 715 587 675T706 558T749 367Q749 288 727 219T660 98T547 16T387 -14ZM399 104Q431 104 455 116T497 155T522 230T531 350Q531 414 522
461T496 538T452 584T390 599Q357 599 332 587T290 546T264 472T255 358Q255 293 263 246T290 167T335 120T399 104ZM517 768Q474 768 447 792T420 859Q420 899 447 923T517 947Q569 947 593 923T617 858Q617 817 589 793T517 768ZM270 768Q226 768 199 792T172
859Q172 899 199 923T270 947Q321 947 345 923T369 858Q369 817 342 793T270 768Z" />
<glyph unicode="&#xd7;" horiz-adv-x="582" d="M399 102L289 212L181 103L89 196L197 305L91 410L182 501L288 396L397 505L490 412L380 302L490 193L399 102Z" />
<glyph unicode="&#xd8;" horiz-adv-x="787" d="M24 -14L115 94Q76 141 57 203T38 340Q38 461 84 545T213 672T408 715Q463 715 511 703T598 669L636 715H766L674 606Q710 563 729 503T749 367Q749 288 727 219T660 98T547 16T387 -14Q328 -14 279 -2T191 32L153
-14H24ZM399 104Q431 104 455 116T497 155T522 230T531 350Q531 372 530 391T524 427L297 157Q309 139 324 128T358 110T399 104ZM264 272L492 543Q480 562 465 574T431 593T390 599Q357 599 332 587T290 546T264 472T255 358Q255 333 257 312T264 272Z" />
<glyph unicode="&#xd9;" horiz-adv-x="772" d="M392 -14Q304 -14 246 7T156 66T110 152T96 254V559Q96 586 90 596T62 610L31 615V701H368V615L333 609Q315 605 309 595T303 559V251Q303 208 315 178T355 131T427 114Q478 114 506 131T545 179T557 250V559Q557
587 551 596T522 610L491 615V701H742V615L708 609Q689 605 683 595T677 555V259Q677 167 645 107T550 16T392 -14ZM494 737L315 810Q282 823 269 841T256 881Q256 912 274 936T326 960Q339 960 351 956T378 935L528 790L494 737Z" />
<glyph unicode="&#xda;" horiz-adv-x="772" d="M392 -14Q304 -14 246 7T156 66T110 152T96 254V559Q96 586 90 596T62 610L31 615V701H368V615L333 609Q315 605 309 595T303 559V251Q303 208 315 178T355 131T427 114Q478 114 506 131T545 179T557 250V559Q557
587 551 596T522 610L491 615V701H742V615L708 609Q689 605 683 595T677 555V259Q677 167 645 107T550 16T392 -14ZM343 737L309 790L459 935Q475 951 487 955T511 960Q545 960 563 936T581 881Q581 859 568 841T522 810L343 737Z" />
<glyph unicode="&#xdb;" horiz-adv-x="772" d="M392 -14Q304 -14 246 7T156 66T110 152T96 254V559Q96 586 90 596T62 610L31 615V701H368V615L333 609Q315 605 309 595T303 559V251Q303 208 315 178T355 131T427 114Q478 114 506 131T545 179T557 250V559Q557
587 551 596T522 610L491 615V701H742V615L708 609Q689 605 683 595T677 555V259Q677 167 645 107T550 16T392 -14ZM270 733L227 786L346 925Q367 950 383 959T424 969Q444 969 462 961T500 926L611 788L570 733L420 824L270 733Z" />
<glyph unicode="&#xdc;" horiz-adv-x="772" d="M392 -14Q304 -14 246 7T156 66T110 152T96 254V559Q96 586 90 596T62 610L31 615V701H368V615L333 609Q315 605 309 595T303 559V251Q303 208 315 178T355 131T427 114Q478 114 506 131T545 179T557 250V559Q557
587 551 596T522 610L491 615V701H742V615L708 609Q689 605 683 595T677 555V259Q677 167 645 107T550 16T392 -14ZM541 768Q498 768 471 792T444 859Q444 899 471 923T541 947Q593 947 617 923T641 858Q641 817 613 793T541 768ZM294 768Q250 768 223 792T196
859Q196 899 223 923T294 947Q345 947 369 923T393 858Q393 817 366 793T294 768Z" />
<glyph unicode="&#xdd;" horiz-adv-x="763" d="M192 0V86L251 92Q269 95 275 104T282 143V250L105 555Q92 577 81 590T45 607L4 614V701H370V614L323 607Q306 605 304 593T314 557L422 378H427L528 550Q543 577 540 589T510 607L463 614V701H760V614L710 605Q692
601 680 589T653 549L483 254V139Q483 114 489 105T515 92L574 86V0H192ZM334 737L300 790L450 935Q466 951 478 955T502 960Q536 960 554 936T572 881Q572 859 559 841T513 810L334 737Z" />
<glyph unicode="&#xde;" horiz-adv-x="692" d="M41 0V86L75 92Q94 96 100 105T106 144V554Q106 578 100 590T75 605L41 612V698H424V612L353 604Q330 601 322 595T314 569V543H384Q433 543 477 538T556 522T617 489T657 436T671 357Q671 309 653 275T605 219T540
183T469 165T407 159Q391 159 373 159T339 161T314 163V129Q314 113 319 105T353 94L424 86V0H41ZM314 263Q323 262 336 262T360 261Q385 261 404 268T436 288T455 320T462 363Q462 393 451 412T417 441T360 451H314V263Z" />
<glyph unicode="&#xdf;" horiz-adv-x="815" d="M348 -14L333 169L430 173Q436 155 447 139T476 108T515 86T566 77Q585 77 600 83T625 101T635 129Q635 153 618 166T573 188T516 207T458 233T414 275T396 345Q396 382 406 407T432 454T463 496T489 544T500 608Q500
645 486 665T450 693T404 701Q377 701 357 693T322 667T300 624T293 563V0H27V83L62 89Q83 93 88 103T94 140V413H22V497L95 513V531Q95 590 117 637T180 716T280 765T416 782Q494 782 553 766T646 717T680 640Q680 608 667 584T632 541T589 504T554 470T540 432Q540
407 558 391T606 364T668 340T730 310T778 262T797 184Q797 124 768 80T690 11T584 -14Q524 -14 490 0T437 28L425 -14H348Z" />
<glyph unicode="&#xe0;" horiz-adv-x="601" d="M189 -14Q112 -14 70 23T28 123Q28 185 60 219T157 268T320 286V352Q320 387 315 409T294 442T249 453Q229 453 209 448T175 434Q184 419 190 407T198 387T201 370Q201 347 180 331T114 315Q76 315 58 333T39 380Q39
423 69 456T154 509T284 528Q365 528 416 507T493 443T518 332V140Q518 117 525 106T552 95Q562 95 571 97T588 102L603 34Q581 16 545 1T465 -14Q413 -14 382 9T342 66Q332 47 312 29T262 -2T189 -14ZM265 84Q283 84 295 91T313 111T320 144V212Q286 212 264 205T232
183T221 142Q221 117 231 101T265 84ZM333 572L175 678Q154 692 145 708T136 741Q136 755 142 773T165 804T206 818Q223 818 235 812T262 785L375 615L333 572Z" />
<glyph unicode="&#xe1;" horiz-adv-x="601" d="M189 -14Q112 -14 70 23T28 123Q28 185 60 219T157 268T320 286V352Q320 387 315 409T294 442T249 453Q229 453 209 448T175 434Q184 419 190 407T198 387T201 370Q201 347 180 331T114 315Q76 315 58 333T39 380Q39
423 69 456T154 509T284 528Q365 528 416 507T493 443T518 332V140Q518 117 525 106T552 95Q562 95 571 97T588 102L603 34Q581 16 545 1T465 -14Q413 -14 382 9T342 66Q332 47 312 29T262 -2T189 -14ZM265 84Q283 84 295 91T313 111T320 144V212Q286 212 264 205T232
183T221 142Q221 117 231 101T265 84ZM242 572L200 615L313 785Q327 806 340 812T369 818Q395 818 410 805T432 773T439 741Q439 725 430 709T400 678L242 572Z" />
<glyph unicode="&#xe2;" horiz-adv-x="601" d="M189 -14Q112 -14 70 23T28 123Q28 185 60 219T157 268T320 286V352Q320 387 315 409T294 442T249 453Q229 453 209 448T175 434Q184 419 190 407T198 387T201 370Q201 347 180 331T114 315Q76 315 58 333T39 380Q39
423 69 456T154 509T284 528Q365 528 416 507T493 443T518 332V140Q518 117 525 106T552 95Q562 95 571 97T588 102L603 34Q581 16 545 1T465 -14Q413 -14 382 9T342 66Q332 47 312 29T262 -2T189 -14ZM265 84Q283 84 295 91T313 111T320 144V212Q286 212 264 205T232
183T221 142Q221 117 231 101T265 84ZM140 572L91 618L202 770Q224 800 243 809T288 818Q313 818 328 812T355 793T382 759L484 619L435 572L287 681L140 572Z" />
<glyph unicode="&#xe3;" horiz-adv-x="601" d="M189 -14Q112 -14 70 23T28 123Q28 185 60 219T157 268T320 286V352Q320 387 315 409T294 442T249 453Q229 453 209 448T175 434Q184 419 190 407T198 387T201 370Q201 347 180 331T114 315Q76 315 58 333T39 380Q39
423 69 456T154 509T284 528Q365 528 416 507T493 443T518 332V140Q518 117 525 106T552 95Q562 95 571 97T588 102L603 34Q581 16 545 1T465 -14Q413 -14 382 9T342 66Q332 47 312 29T262 -2T189 -14ZM265 84Q283 84 295 91T313 111T320 144V212Q286 212 264 205T232
183T221 142Q221 117 231 101T265 84ZM365 599Q339 599 316 605T271 622Q254 630 240 635T214 644T189 647Q178 647 168 639T147 607L85 641Q105 693 123 722T163 764T214 776Q241 776 262 769T305 751Q328 742 346 735T383 728Q398 728 408 737T428 768L490 734Q471
685 454 656T415 613T365 599Z" />
<glyph unicode="&#xe4;" horiz-adv-x="601" d="M189 -14Q112 -14 70 23T28 123Q28 185 60 219T157 268T320 286V352Q320 387 315 409T294 442T249 453Q229 453 209 448T175 434Q184 419 190 407T198 387T201 370Q201 347 180 331T114 315Q76 315 58 333T39 380Q39
423 69 456T154 509T284 528Q365 528 416 507T493 443T518 332V140Q518 117 525 106T552 95Q562 95 571 97T588 102L603 34Q581 16 545 1T465 -14Q413 -14 382 9T342 66Q332 47 312 29T262 -2T189 -14ZM265 84Q283 84 295 91T313 111T320 144V212Q286 212 264 205T232
183T221 142Q221 117 231 101T265 84ZM411 600Q368 600 341 624T314 691Q314 731 341 755T411 779Q462 779 486 755T510 690Q510 649 482 625T411 600ZM165 600Q121 600 94 624T67 691Q67 731 94 755T165 779Q215 779 239 755T263 690Q263 649 236 625T165 600Z"
/>
<glyph unicode="&#xe5;" horiz-adv-x="601" d="M189 -14Q112 -14 70 23T28 123Q28 185 60 219T157 268T320 286V352Q320 387 315 409T294 442T249 453Q229 453 209 448T175 434Q184 419 190 407T198 387T201 370Q201 347 180 331T114 315Q76 315 58 333T39 380Q39
423 69 456T154 509T284 528Q365 528 416 507T493 443T518 332V140Q518 117 525 106T552 95Q562 95 571 97T588 102L603 34Q581 16 545 1T465 -14Q413 -14 382 9T342 66Q332 47 312 29T262 -2T189 -14ZM265 84Q283 84 295 91T313 111T320 144V212Q286 212 264 205T232
183T221 142Q221 117 231 101T265 84ZM279 579Q209 579 169 611T128 697Q128 736 148 762T206 802T291 815Q371 815 409 786T447 698Q447 660 426 634T367 594T279 579ZM287 638Q300 638 308 644T320 663T325 698Q325 721 320 733T307 751T286 757Q274 757 266
751T253 732T249 698Q249 675 253 662T266 643T287 638Z" />
<glyph unicode="&#xe6;" horiz-adv-x="877" d="M189 -14Q140 -14 104 2T48 49T28 123Q28 189 65 224T172 272Q203 279 240 282T320 286V352Q320 388 314 410T293 442T249 453Q228 453 209 448T175 434Q184 419 190 407T198 387T201 370Q201 347 180 331T114 315Q75
315 57 333T39 380Q39 423 69 456T154 509T284 528Q333 528 373 516T444 473Q479 502 520 515T608 529Q680 529 733 507T814 439T843 328Q843 302 841 276T834 228H520Q523 195 538 172T578 137T638 125Q690 125 726 139T796 176L852 108Q811 57 746 22T591 -14Q519
-14 467 7T385 65Q364 37 334 20T268 -6T189 -14ZM265 84Q281 84 293 90T312 110T320 145V212Q304 212 290 210T266 205Q240 198 231 181T221 143Q221 116 231 100T265 84ZM519 320H653Q655 333 656 345T657 369Q657 401 643 419T600 437Q571 437 554 421T528 378T519
320Z" />
<glyph unicode="&#xe7;" horiz-adv-x="570" d="M329 -252Q278 -252 240 -239T184 -213L205 -154Q226 -163 245 -167T281 -171Q302 -171 312 -162T323 -134Q323 -120 314 -111T281 -101Q270 -101 260 -102T242 -106L228 -67L251 -11Q180 -2 131 31T56 120T31 245Q31
330 65 393T164 493T323 529Q394 529 443 509T517 456T542 387Q542 363 533 342T503 308T449 295Q411 295 389 310T366 356Q366 366 371 380T390 420Q376 428 361 431T325 435Q296 435 275 419T243 369T231 284Q231 204 262 165T356 125Q392 125 425 135T499 170L552
96Q516 54 465 25T340 -12L328 -43Q369 -39 397 -50T439 -84T453 -139Q453 -178 437 -203T393 -240T329 -252Z" />
<glyph unicode="&#xe8;" horiz-adv-x="593" d="M306 -14Q215 -14 154 18T62 108T31 242Q31 336 68 400T172 496T324 529Q396 529 449 507T530 439T559 328Q559 302 557 276T550 229H236Q238 195 253 172T294 137T354 125Q404 125 440 138T512 176L568 108Q526
56 461 21T306 -14ZM234 320H369Q371 333 372 345T373 369Q373 401 359 419T316 437Q288 437 271 422T245 381T234 320ZM360 572L202 678Q181 692 172 708T163 741Q163 755 169 773T192 804T233 818Q250 818 262 812T289 785L402 615L360 572Z" />
<glyph unicode="&#xe9;" horiz-adv-x="593" d="M306 -14Q215 -14 154 18T62 108T31 242Q31 336 68 400T172 496T324 529Q396 529 449 507T530 439T559 328Q559 302 557 276T550 229H236Q238 195 253 172T294 137T354 125Q404 125 440 138T512 176L568 108Q526
56 461 21T306 -14ZM234 320H369Q371 333 372 345T373 369Q373 401 359 419T316 437Q288 437 271 422T245 381T234 320ZM269 572L227 615L340 785Q354 806 367 812T396 818Q422 818 437 805T459 773T466 741Q466 725 457 709T427 678L269 572Z" />
<glyph unicode="&#xea;" horiz-adv-x="593" d="M306 -14Q215 -14 154 18T62 108T31 242Q31 336 68 400T172 496T324 529Q396 529 449 507T530 439T559 328Q559 302 557 276T550 229H236Q238 195 253 172T294 137T354 125Q404 125 440 138T512 176L568 108Q526
56 461 21T306 -14ZM234 320H369Q371 333 372 345T373 369Q373 401 359 419T316 437Q288 437 271 422T245 381T234 320ZM167 572L118 618L229 770Q251 800 270 809T315 818Q340 818 355 812T382 793T409 759L511 619L462 572L314 681L167 572Z" />
<glyph unicode="&#xeb;" horiz-adv-x="593" d="M306 -14Q215 -14 154 18T62 108T31 242Q31 336 68 400T172 496T324 529Q396 529 449 507T530 439T559 328Q559 302 557 276T550 229H236Q238 195 253 172T294 137T354 125Q404 125 440 138T512 176L568 108Q526
56 461 21T306 -14ZM234 320H369Q371 333 372 345T373 369Q373 401 359 419T316 437Q288 437 271 422T245 381T234 320ZM438 600Q395 600 368 624T341 691Q341 731 368 755T438 779Q489 779 513 755T537 690Q537 649 509 625T438 600ZM192 600Q148 600 121 624T94
691Q94 731 121 755T192 779Q242 779 266 755T290 690Q290 649 263 625T192 600Z" />
<glyph unicode="&#xec;" horiz-adv-x="383" d="M31 0V84L70 90Q86 93 91 102T97 139V351Q97 386 91 397T61 413L28 418L35 509L279 522L295 512V138Q295 112 300 103T322 90L360 83V0H31ZM461 572L303 678Q282 692 273 708T264 741Q264 755 270 773T293 804T334
818Q351 818 363 812T390 785L503 615L461 572Z" />
<glyph unicode="&#xed;" horiz-adv-x="383" d="M31 0V84L70 90Q86 93 91 102T97 139V351Q97 386 91 397T61 413L28 418L35 509L279 522L295 512V138Q295 112 300 103T322 90L360 83V0H31ZM370 572L328 615L441 785Q455 806 468 812T497 818Q523 818 538 805T560
773T567 741Q567 725 558 709T528 678L370 572Z" />
<glyph unicode="&#xee;" horiz-adv-x="383" d="M31 0V84L70 90Q86 93 91 102T97 139V351Q97 386 91 397T61 413L28 418L35 509L279 522L295 512V138Q295 112 300 103T322 90L360 83V0H31ZM268 572L219 618L330 770Q352 800 371 809T416 818Q441 818 456 812T483
793T510 759L612 619L563 572L415 681L268 572Z" />
<glyph unicode="&#xef;" horiz-adv-x="383" d="M31 0V84L70 90Q86 93 91 102T97 139V351Q97 386 91 397T61 413L28 418L35 509L279 522L295 512V138Q295 112 300 103T322 90L360 83V0H31ZM539 600Q496 600 469 624T442 691Q442 731 469 755T539 779Q590 779 614
755T638 690Q638 649 610 625T539 600ZM293 600Q249 600 222 624T195 691Q195 731 222 755T293 779Q343 779 367 755T391 690Q391 649 364 625T293 600Z" />
<glyph unicode="&#xf0;" horiz-adv-x="615" d="M292 -14Q172 -14 102 52T31 239Q31 308 51 357T106 436T183 481T268 496Q309 496 340 481T393 439L398 440Q392 472 380 504T352 565T319 611L208 532L152 618L228 666Q202 679 170 688T101 703L116 790Q181 789
238 779T344 747L485 846L536 756L438 693Q487 655 520 604T569 488T586 350Q586 266 570 199T518 84T427 11T292 -14ZM314 82Q339 82 355 98T380 151T388 245Q388 275 387 297T382 336T372 365Q365 381 349 390T313 400Q284 400 267 380T241 325T233 244Q233 207
237 178T251 127T276 94T314 82Z" />
<glyph unicode="&#xf1;" horiz-adv-x="713" d="M36 0V83L72 90Q87 93 92 102T97 138V357Q97 387 91 398T63 414L29 419L37 510L254 523L271 513L279 421H283Q306 472 350 500T462 529Q523 529 560 507T615 445T632 358V129Q632 109 637 100T662 88L693 83V0H386V82L407
86Q424 89 428 98T433 128V310Q433 343 428 362T409 390T375 399Q353 399 335 390T307 357T296 293V131Q296 109 300 100T320 87L344 82V0H36ZM441 599Q415 599 392 605T347 622Q330 630 316 635T290 644T265 647Q254 647 244 639T223 607L161 641Q181 693 199
722T239 764T290 776Q317 776 338 769T381 751Q404 742 422 735T459 728Q474 728 484 737T504 768L566 734Q547 685 530 656T491 613T441 599Z" />
<glyph unicode="&#xf2;" horiz-adv-x="647" d="M315 -14Q224 -14 161 15T64 103T31 249Q31 347 69 409T177 500T337 529Q419 529 482 503T580 419T616 268Q616 176 581 113T479 18T315 -14ZM329 89Q360 89 377 106T401 158T408 250Q408 302 402 336T385 390T358
418T321 427Q296 427 278 415T249 371T239 282Q239 215 247 172T276 109T329 89ZM370 572L212 678Q191 692 182 708T173 741Q173 755 179 773T202 804T243 818Q260 818 272 812T299 785L412 615L370 572Z" />
<glyph unicode="&#xf3;" horiz-adv-x="647" d="M315 -14Q224 -14 161 15T64 103T31 249Q31 347 69 409T177 500T337 529Q419 529 482 503T580 419T616 268Q616 176 581 113T479 18T315 -14ZM329 89Q360 89 377 106T401 158T408 250Q408 302 402 336T385 390T358
418T321 427Q296 427 278 415T249 371T239 282Q239 215 247 172T276 109T329 89ZM279 572L237 615L350 785Q364 806 377 812T406 818Q432 818 447 805T469 773T476 741Q476 725 467 709T437 678L279 572Z" />
<glyph unicode="&#xf4;" horiz-adv-x="647" d="M315 -14Q224 -14 161 15T64 103T31 249Q31 347 69 409T177 500T337 529Q419 529 482 503T580 419T616 268Q616 176 581 113T479 18T315 -14ZM329 89Q360 89 377 106T401 158T408 250Q408 302 402 336T385 390T358
418T321 427Q296 427 278 415T249 371T239 282Q239 215 247 172T276 109T329 89ZM177 572L128 618L239 770Q261 800 280 809T325 818Q350 818 365 812T392 793T419 759L521 619L472 572L324 681L177 572Z" />
<glyph unicode="&#xf5;" horiz-adv-x="647" d="M315 -14Q224 -14 161 15T64 103T31 249Q31 347 69 409T177 500T337 529Q419 529 482 503T580 419T616 268Q616 176 581 113T479 18T315 -14ZM329 89Q360 89 377 106T401 158T408 250Q408 302 402 336T385 390T358
418T321 427Q296 427 278 415T249 371T239 282Q239 215 247 172T276 109T329 89ZM402 599Q376 599 353 605T308 622Q291 630 277 635T251 644T226 647Q215 647 205 639T184 607L122 641Q142 693 160 722T200 764T251 776Q278 776 299 769T342 751Q365 742 383 735T420
728Q435 728 445 737T465 768L527 734Q508 685 491 656T452 613T402 599Z" />
<glyph unicode="&#xf6;" horiz-adv-x="647" d="M315 -14Q224 -14 161 15T64 103T31 249Q31 347 69 409T177 500T337 529Q419 529 482 503T580 419T616 268Q616 176 581 113T479 18T315 -14ZM329 89Q360 89 377 106T401 158T408 250Q408 302 402 336T385 390T358
418T321 427Q296 427 278 415T249 371T239 282Q239 215 247 172T276 109T329 89ZM448 600Q405 600 378 624T351 691Q351 731 378 755T448 779Q499 779 523 755T547 690Q547 649 519 625T448 600ZM202 600Q158 600 131 624T104 691Q104 731 131 755T202 779Q252
779 276 755T300 690Q300 649 273 625T202 600Z" />
<glyph unicode="&#xf7;" horiz-adv-x="582" d="M69 240V373H513V240H69ZM291 26Q255 26 228 50T201 110Q201 146 228 171T291 196Q328 196 354 172T381 112Q381 76 355 51T291 26ZM291 416Q255 416 228 440T201 501Q201 536 228 561T291 586Q328 586 354 562T381
502Q381 466 355 441T291 416Z" />
<glyph unicode="&#xf8;" horiz-adv-x="647" d="M41 -22L104 55Q68 88 50 136T31 249Q31 347 69 409T177 500T337 529Q374 529 408 523T472 506L501 542H608L543 463Q578 432 597 384T616 268Q616 176 581 113T479 18T315 -14Q275 -14 240 -8T175 13L146 -22H41ZM329
89Q360 89 377 106T401 158T408 250Q408 261 407 271T404 289L266 124Q273 112 282 104T303 93T329 89ZM242 226L381 394Q374 407 365 414T346 424T321 427Q296 427 278 415T249 371T239 282Q239 267 239 253T242 226Z" />
<glyph unicode="&#xf9;" horiz-adv-x="701" d="M250 -14Q168 -14 126 31T84 157V352Q84 381 80 395T51 414L17 419L24 510L265 523L282 513V203Q282 171 288 152T306 124T338 116Q363 116 380 128T405 164T414 223V353Q414 389 408 399T380 414L353 418L366 510L595
523L613 513V153Q613 121 620 109T644 92L677 86V0L443 -8L430 82H425Q409 56 389 35T336 0T250 -14ZM377 572L219 678Q198 692 189 708T180 741Q180 755 186 773T209 804T250 818Q267 818 279 812T306 785L419 615L377 572Z" />
<glyph unicode="&#xfa;" horiz-adv-x="701" d="M250 -14Q168 -14 126 31T84 157V352Q84 381 80 395T51 414L17 419L24 510L265 523L282 513V203Q282 171 288 152T306 124T338 116Q363 116 380 128T405 164T414 223V353Q414 389 408 399T380 414L353 418L366 510L595
523L613 513V153Q613 121 620 109T644 92L677 86V0L443 -8L430 82H425Q409 56 389 35T336 0T250 -14ZM286 572L244 615L357 785Q371 806 384 812T413 818Q439 818 454 805T476 773T483 741Q483 725 474 709T444 678L286 572Z" />
<glyph unicode="&#xfb;" horiz-adv-x="701" d="M250 -14Q168 -14 126 31T84 157V352Q84 381 80 395T51 414L17 419L24 510L265 523L282 513V203Q282 171 288 152T306 124T338 116Q363 116 380 128T405 164T414 223V353Q414 389 408 399T380 414L353 418L366 510L595
523L613 513V153Q613 121 620 109T644 92L677 86V0L443 -8L430 82H425Q409 56 389 35T336 0T250 -14ZM184 572L135 618L246 770Q268 800 287 809T332 818Q357 818 372 812T399 793T426 759L528 619L479 572L331 681L184 572Z" />
<glyph unicode="&#xfc;" horiz-adv-x="701" d="M250 -14Q168 -14 126 31T84 157V352Q84 381 80 395T51 414L17 419L24 510L265 523L282 513V203Q282 171 288 152T306 124T338 116Q363 116 380 128T405 164T414 223V353Q414 389 408 399T380 414L353 418L366 510L595
523L613 513V153Q613 121 620 109T644 92L677 86V0L443 -8L430 82H425Q409 56 389 35T336 0T250 -14ZM455 600Q412 600 385 624T358 691Q358 731 385 755T455 779Q506 779 530 755T554 690Q554 649 526 625T455 600ZM209 600Q165 600 138 624T111 691Q111 731 138
755T209 779Q259 779 283 755T307 690Q307 649 280 625T209 600Z" />
<glyph unicode="&#xfd;" horiz-adv-x="632" d="M154 -230Q91 -230 51 -202T10 -123Q10 -88 32 -62T91 -36Q126 -36 142 -51T158 -86Q158 -97 153 -114T141 -150Q170 -154 190 -143T225 -108T253 -50L266 -21L85 370Q76 390 69 401T43 417L12 424L22 515H336V427L304
423Q282 420 278 408T285 367L366 172H371L447 361Q457 386 454 401T428 420L393 427L406 515H628V426L595 420Q577 416 569 405T547 361L391 -10Q369 -63 347 -104T299 -173T237 -215T154 -230ZM292 572L250 615L363 785Q377 806 390 812T419 818Q445 818 460
805T482 773T489 741Q489 725 480 709T450 678L292 572Z" />
<glyph unicode="&#xfe;" horiz-adv-x="674" d="M16 -217V-133L50 -128Q66 -125 71 -116T77 -79V599Q77 621 75 633T65 652T40 660L10 665L17 755L258 768L275 757V451L279 449Q296 473 318 491T369 519T437 529Q502 529 548 501T618 417T643 278Q643 190 617 125T535
23T392 -13Q356 -13 327 -6T276 13V-81Q276 -106 282 -115T310 -127L373 -135V-217H16ZM351 99Q383 99 401 115T427 169T435 267Q435 316 426 348T400 396T355 412Q331 412 313 399T286 362T276 304V123Q289 113 310 106T351 99Z" />
<glyph unicode="&#xff;" horiz-adv-x="632" d="M154 -230Q91 -230 51 -202T10 -123Q10 -88 32 -62T91 -36Q126 -36 142 -51T158 -86Q158 -97 153 -114T141 -150Q170 -154 190 -143T225 -108T253 -50L266 -21L85 370Q76 390 69 401T43 417L12 424L22 515H336V427L304
423Q282 420 278 408T285 367L366 172H371L447 361Q457 386 454 401T428 420L393 427L406 515H628V426L595 420Q577 416 569 405T547 361L391 -10Q369 -63 347 -104T299 -173T237 -215T154 -230ZM461 600Q418 600 391 624T364 691Q364 731 391 755T461 779Q512
779 536 755T560 690Q560 649 532 625T461 600ZM215 600Q171 600 144 624T117 691Q117 731 144 755T215 779Q265 779 289 755T313 690Q313 649 286 625T215 600Z" />
<glyph unicode="&#x2013;" horiz-adv-x="500" d="M15 244V343H485V244H15Z" />
<glyph unicode="&#x2014;" horiz-adv-x="1000" d="M15 244V343H985V244H15Z" />
<glyph unicode="&#x2018;" horiz-adv-x="295" d="M150 484Q101 484 74 512T47 584Q47 625 63 665T112 741T194 805L236 748Q200 724 181 700T158 646H170Q186 646 204 639T235 615T248 570Q248 532 221 508T150 484Z" />
<glyph unicode="&#x2019;" horiz-adv-x="295" d="M100 472L59 529Q95 554 114 578T136 631H124Q108 631 90 638T59 662T46 708Q46 745 73 769T144 794Q193 794 220 765T248 693Q248 653 232 613T182 537T100 472Z" />
<glyph unicode="&#x201a;" horiz-adv-x="300" d="M103 -191L62 -134Q98 -109 116 -85T139 -32H127Q111 -32 93 -25T62 -1T49 44Q49 82 76 106T147 130Q196 130 223 102T250 30Q250 -10 234 -50T185 -126T103 -191Z" />
<glyph unicode="&#x201c;" horiz-adv-x="535" d="M150 484Q101 484 74 512T47 584Q47 625 63 665T112 741T194 805L236 748Q200 724 181 700T158 646H170Q186 646 204 639T235 615T248 570Q248 532 221 508T150 484ZM390 484Q341 484 314 512T287 584Q287 625
303 665T352 741T434 805L475 748Q440 724 421 700T398 646H410Q426 646 444 639T475 616T488 570Q488 532 461 508T390 484Z" />
<glyph unicode="&#x201d;" horiz-adv-x="535" d="M100 472L59 529Q95 554 114 578T136 631H124Q108 631 90 638T59 662T46 708Q46 745 73 769T144 794Q193 794 220 765T248 693Q248 653 232 613T182 537T100 472ZM340 472L299 529Q317 542 330 554T353 578T368
604T376 631H364Q348 631 330 638T299 662T286 708Q286 745 313 769T384 794Q433 794 460 765T488 693Q488 653 472 613T422 537T340 472Z" />
<glyph unicode="&#x201e;" horiz-adv-x="513" d="M330 -191L288 -134Q325 -109 343 -85T365 -32H354Q337 -32 319 -25T289 -1T276 44Q276 82 302 106T374 130Q423 130 450 102T477 30Q477 -10 461 -50T412 -126T330 -191ZM90 -191L49 -134Q85 -109 103 -85T125
-32H114Q98 -32 80 -25T49 -1T36 44Q36 82 63 106T134 130Q183 130 210 102T237 30Q237 -10 221 -50T172 -126T90 -191Z" />
<glyph unicode="&#x2022;" horiz-adv-x="401" d="M202 172Q129 172 89 208T48 305Q48 364 88 400T202 437Q276 437 314 401T353 305Q353 245 312 209T202 172Z" />
<glyph unicode="&#x2039;" horiz-adv-x="330" d="M246 29L60 189Q40 207 32 225T23 265Q23 291 34 309T67 346L244 501L306 453L196 269L309 76L246 29Z" />
<glyph unicode="&#x203a;" horiz-adv-x="329" d="M84 29L21 76L133 269L22 453L85 501L263 346Q283 329 294 311T306 266Q306 243 298 225T268 189L84 29Z" />
</font>
</defs>
</svg>
