<svg width="0" height="0" class="hidden" xmlns="http://www.w3.org/2000/svg">
  <symbol xmlns="http://www.w3.org/2000/svg" viewBox="0 0 14 14" id="compare_small">
        <path fill-rule="evenodd" clip-rule="evenodd" d="M1 5C1.55228 5 2 5.44772 2 6V9C2 9.55228 1.55228 10 1 10C0.447715 10 0 9.55228 0 9V6C0 5.44772 0.447715 5 1 5Z"/>
        <path fill-rule="evenodd" clip-rule="evenodd" d="M5 2C4.44772 2 4 2.44772 4 3V9C4 9.55228 4.44772 10 5 10C5.55228 10 6 9.55228 6 9V3C6 2.44772 5.55228 2 5 2Z"/>
        <path fill-rule="evenodd" clip-rule="evenodd" d="M9 0C9.55229 0 10 0.447715 10 1V9C10 9.55229 9.55229 10 9 10C8.44771 10 8 9.55229 8 9V1C8 0.447715 8.44771 0 9 0Z"/>
        <path fill-rule="evenodd" clip-rule="evenodd" d="M13 4C12.4477 4 12 4.44772 12 5V9C12 9.55228 12.4477 10 13 10C13.5523 10 14 9.55228 14 9V5C14 4.44772 13.5523 4 13 4Z"/>
        <path fill-rule="evenodd" clip-rule="evenodd" d="M0 13C0 12.4477 0.447715 12 1 12H13C13.5523 12 14 12.4477 14 13C14 13.5523 13.5523 14 13 14H1C0.447715 14 0 13.5523 0 13Z"/>
    </symbol>
     <symbol xmlns="http://www.w3.org/2000/svg" viewBox="0 0 14 18" id="compare">
        <path fill-rule="evenodd" clip-rule="evenodd" d="M1 7C1.55228 7 2 7.44772 2 8V13C2 13.5523 1.55228 14 1 14C0.447715 14 0 13.5523 0 13V8C0 7.44772 0.447715 7 1 7Z"/>
        <path fill-rule="evenodd" clip-rule="evenodd" d="M5 4C4.44772 4 4 4.44772 4 5V13C4 13.5523 4.44772 14 5 14C5.55228 14 6 13.5523 6 13V5C6 4.44772 5.55228 4 5 4Z"/>
        <path fill-rule="evenodd" clip-rule="evenodd" d="M9 0C9.55229 0 10 0.447715 10 1V13C10 13.5523 9.55229 14 9 14C8.44771 14 8 13.5523 8 13V1C8 0.447715 8.44771 0 9 0Z"/>
        <path fill-rule="evenodd" clip-rule="evenodd" d="M0 17C0 16.4477 0.447715 16 1 16H13C13.5523 16 14 16.4477 14 17C14 17.5523 13.5523 18 13 18H1C0.447715 18 0 17.5523 0 17Z"/>
        <path fill-rule="evenodd" clip-rule="evenodd" d="M13 5C12.4477 5 12 5.44772 12 6V13C12 13.5523 12.4477 14 13 14C13.5523 14 14 13.5523 14 13V6C14 5.44772 13.5523 5 13 5Z"/>
    </symbol>
    <symbol xmlns="http://www.w3.org/2000/svg" viewBox="0 0 11 14" width="11" height="14" id="question">
        <path fill-rule="evenodd" clip-rule="evenodd" d="M5.5146 2.03369C4.45959 2.03372 3.24533 2.6612 2.96994 4.1758C2.87115 4.71917 2.35056 5.07957 1.80719 4.98078C1.26381 4.88198 0.903408 4.3614 1.0022 3.81802C1.48987 1.1359 3.73124 0.0337409 5.51455 0.0336914C6.91272 0.0336525 8.00391 0.424602 8.77565 1.0855C9.54192 1.74172 9.92076 2.60395 9.99565 3.40728C10.0755 4.26352 9.89492 4.97988 9.5382 5.59011C9.19794 6.17216 8.72305 6.61131 8.30289 6.96322C8.13689 7.10226 7.9863 7.22296 7.8451 7.33614C7.58986 7.54072 7.36528 7.72073 7.13574 7.94003C6.81177 8.24954 6.58179 8.54922 6.44498 8.8965C6.24256 9.41035 5.6619 9.66281 5.14805 9.46038C4.6342 9.25796 4.38174 8.6773 4.58417 8.16345C4.86418 7.45264 5.30859 6.9196 5.75417 6.49391C6.04464 6.2164 6.3881 5.94027 6.68162 5.70428C6.80544 5.60473 6.92038 5.51232 7.01871 5.42997C7.39599 5.11397 7.65129 4.85495 7.81157 4.58077C7.95537 4.33477 8.04567 4.03685 8.00429 3.59293C7.97431 3.27137 7.82011 2.90036 7.47473 2.60458C7.13481 2.31348 6.53574 2.03366 5.5146 2.03369Z"/>
        <path d="M3.99999 12.5C3.99999 13.3284 4.67156 14 5.49999 14C6.32842 14 6.99999 13.3284 6.99999 12.5C6.99999 11.6716 6.32842 11 5.49999 11C4.67156 11 3.99999 11.6716 3.99999 12.5Z"/>
    </symbol>
    <symbol xmlns="http://www.w3.org/2000/svg" viewBox="0 0 12 13" width="12" height="13" fill="none" id="remove_img">
        <path d="M1 4H11" stroke-width="2" stroke-linecap="round" stroke-linejoin="round"/>
        <path d="M10 4L9.5586 11.0624C9.52566 11.5894 9.08861 12 8.56055 12H3.43945C2.91139 12 2.47434 11.5894 2.4414 11.0624L2 4" stroke-width="2"/>
        <path d="M8 4V2C8 1.44772 7.55228 1 7 1H5C4.44772 1 4 1.44772 4 2V4" stroke-width="2"/>
    </symbol>
    <symbol xmlns="http://www.w3.org/2000/svg" viewBox="0 0 8 7" width="8" height="7" id="plus">
        <path d="M6.50146 4C6.77761 4 7.00146 3.77614 7.00146 3.5C7.00146 3.22386 6.77761 3 6.50146 3V4ZM0.501474 3C0.225332 3 0.00147379 3.22386 0.00147413 3.5C0.00147379 3.77614 0.225332 4 0.501474 4V3ZM3.00147 6.5C3.00147 6.77614 3.22533 7 3.50147 7C3.77761 7 4.00147 6.77614 4.00147 6.5L3.00147 6.5ZM4.00147 0.500005C4.00147 0.223862 3.77761 4.50307e-06 3.50147 4.65059e-06C3.22533 4.43985e-06 3.00147 0.223862 3.00147 0.500005L4.00147 0.500005ZM6.50146 3L0.501474 3V4L6.50146 4V3ZM4.00147 6.5V0.500005L3.00147 0.500005V6.5L4.00147 6.5Z"/>
    </symbol>

</svg>