<svg width="10" height="10" viewBox="0 0 10 10" fill="none" xmlns="http://www.w3.org/2000/svg">
<path d="M0 1C0 0.447723 0.447754 0 1 0C1.55225 0 2 0.447723 2 1C2 1.55228 1.55225 2 1 2C0.447754 2 0 1.55228 0 1Z" fill="#333333"/>
<path d="M5 0C4.44775 0 4 0.447723 4 1C4 1.55228 4.44775 2 5 2H9C9.55225 2 10 1.55228 10 1C10 0.447723 9.55225 0 9 0H5Z" fill="#333333"/>
<path d="M0 5C0 4.44772 0.447754 4 1 4C1.55225 4 2 4.44772 2 5C2 5.55228 1.55225 6 1 6C0.447754 6 0 5.55228 0 5Z" fill="#333333"/>
<path d="M5 4C4.44775 4 4 4.44772 4 5C4 5.55228 4.44775 6 5 6H9C9.55225 6 10 5.55228 10 5C10 4.44772 9.55225 4 9 4H5Z" fill="#333333"/>
<path d="M1 8C0.447754 8 0 8.44772 0 9C0 9.55228 0.447754 10 1 10C1.55225 10 2 9.55228 2 9C2 8.44772 1.55225 8 1 8Z" fill="#333333"/>
<path d="M4 9C4 8.44772 4.44775 8 5 8H9C9.55225 8 10 8.44772 10 9C10 9.55228 9.55225 10 9 10H5C4.44775 10 4 9.55228 4 9Z" fill="#333333"/>
</svg>
