<svg width="10" height="10" viewBox="0 0 10 10" fill="none" xmlns="http://www.w3.org/2000/svg">
<path d="M1 0C0.447754 0 0 0.447723 0 1C0 1.55228 0.447754 2 1 2C1.55225 2 2 1.55228 2 1C2 0.447723 1.55225 0 1 0Z" fill="#333333"/>
<path d="M4 1C4 0.447723 4.44775 0 5 0C5.55225 0 6 0.447723 6 1C6 1.55228 5.55225 2 5 2C4.44775 2 4 1.55228 4 1Z" fill="#333333"/>
<path d="M8 1C8 0.447723 8.44775 0 9 0C9.55225 0 10 0.447723 10 1C10 1.55228 9.55225 2 9 2C8.44775 2 8 1.55228 8 1Z" fill="#333333"/>
<path d="M1 4C0.447754 4 0 4.44772 0 5C0 5.55228 0.447754 6 1 6C1.55225 6 2 5.55228 2 5C2 4.44772 1.55225 4 1 4Z" fill="#333333"/>
<path d="M4 5C4 4.44772 4.44775 4 5 4C5.55225 4 6 4.44772 6 5C6 5.55228 5.55225 6 5 6C4.44775 6 4 5.55228 4 5Z" fill="#333333"/>
<path d="M9 4C8.44775 4 8 4.44772 8 5C8 5.55228 8.44775 6 9 6C9.55225 6 10 5.55228 10 5C10 4.44772 9.55225 4 9 4Z" fill="#333333"/>
<path d="M0 9C0 8.44772 0.447754 8 1 8C1.55225 8 2 8.44772 2 9C2 9.55228 1.55225 10 1 10C0.447754 10 0 9.55228 0 9Z" fill="#333333"/>
<path d="M5 8C4.44775 8 4 8.44772 4 9C4 9.55228 4.44775 10 5 10C5.55225 10 6 9.55228 6 9C6 8.44772 5.55225 8 5 8Z" fill="#333333"/>
<path d="M8 9C8 8.44772 8.44775 8 9 8C9.55225 8 10 8.44772 10 9C10 9.55228 9.55225 10 9 10C8.44775 10 8 9.55228 8 9Z" fill="#333333"/>
</svg>
