<svg width="18" height="11" viewBox="0 0 18 11" fill="none" xmlns="http://www.w3.org/2000/svg">
<path fill-rule="evenodd" clip-rule="evenodd" d="M16.5 1H11.5C11.3674 1 11.2403 0.947345 11.1465 0.853577C11.0527 0.759808 11 0.632608 11 0.5C11 0.367392 11.0527 0.240192 11.1465 0.146423C11.2403 0.0526552 11.3674 0 11.5 0H16.5C16.6326 0 16.7597 0.0526552 16.8535 0.146423C16.9473 0.240192 17 0.367392 17 0.5C17 0.632608 16.9473 0.759808 16.8535 0.853577C16.7597 0.947345 16.6326 1 16.5 1ZM14 3C15.0609 3 16.0782 3.42142 16.8284 4.17157C17.5785 4.92172 18 5.93913 18 7H11.6899C11.661 7.3107 11.7009 7.62399 11.8068 7.91754C11.9126 8.2111 12.0817 8.47769 12.3022 8.69849C12.5228 8.91928 12.7892 9.08881 13.0826 9.19501C13.3761 9.30121 13.6893 9.3415 14 9.31299C14.4479 9.36184 14.8993 9.25905 15.2819 9.021C15.6644 8.78295 15.956 8.42342 16.11 8H17.86C17.6719 8.72282 17.2848 9.37843 16.7428 9.89233C16.2008 10.4062 15.5255 10.7579 14.7937 10.9073C14.0619 11.0567 13.3029 10.9979 12.6028 10.7376C11.9027 10.4773 11.2897 10.0259 10.8333 9.43469C10.3768 8.84347 10.0954 8.13612 10.0208 7.39294C9.94615 6.64977 10.0815 5.90056 10.4113 5.23041C10.7411 4.56026 11.2521 3.996 11.8865 3.60175C12.5208 3.20749 13.2531 2.99902 14 3ZM16.0699 6C15.8875 5.60783 15.5944 5.2776 15.2266 5.04999C14.8588 4.82237 14.4324 4.70731 14 4.71899C13.5541 4.68173 13.1078 4.78533 12.7239 5.01514C12.34 5.24495 12.0378 5.5894 11.86 6H16.0699ZM5.5 11H0V0H5C5.54037 0.000369346 6.07058 0.146714 6.53467 0.423523C6.99876 0.700332 7.37949 1.09734 7.6366 1.57263C7.8937 2.04792 8.01765 2.5838 7.99536 3.12372C7.97307 3.66363 7.80541 4.18753 7.51001 4.64001C8.11687 5.06811 8.57183 5.67815 8.80908 6.3819C9.04634 7.08564 9.05363 7.84661 8.82983 8.55475C8.60604 9.26289 8.1628 9.88146 7.56421 10.321C6.96562 10.7606 6.24266 10.9984 5.5 11ZM5 2H2V4H5C5.26522 4 5.51962 3.89463 5.70715 3.70709C5.89469 3.51956 6 3.26522 6 3C6 2.73478 5.89469 2.48044 5.70715 2.29291C5.51962 2.10537 5.26522 2 5 2ZM5.5 6H2V9H5.5C5.89782 9 6.27936 8.84197 6.56067 8.56067C6.84197 8.27936 7 7.89782 7 7.5C7 7.10218 6.84197 6.72064 6.56067 6.43933C6.27936 6.15803 5.89782 6 5.5 6Z" fill="#333333"/>
</svg>
