<svg width="13" height="13" viewBox="0 0 13 13" fill="none" xmlns="http://www.w3.org/2000/svg">
<path d="M2.20711 11.7929L2.91421 12.5L2.91421 12.5L2.20711 11.7929ZM4 10V9C3.73478 9 3.48043 9.10536 3.29289 9.29289L4 10ZM2 3C2 2.44772 2.44772 2 3 2V0C1.34315 0 0 1.34315 0 3H2ZM2 6.38743V3H0V6.38743H2ZM2 8V6.38743H0V8H2ZM2 11.2929V8H0V11.2929H2ZM1.70711 11C1.86887 11 2 11.1311 2 11.2929H0C0 12.2357 0.764299 13 1.70711 13V11ZM1.5 11.0858C1.55493 11.0309 1.62942 11 1.70711 11V13C2.15986 13 2.59407 12.8201 2.91421 12.5L1.5 11.0858ZM3.29289 9.29289L1.5 11.0858L2.91421 12.5L4.70711 10.7071L3.29289 9.29289ZM10 9H4V11H10V9ZM11 8C11 8.55228 10.5523 9 10 9V11C11.6569 11 13 9.65685 13 8H11ZM11 3V8H13V3H11ZM10 2C10.5523 2 11 2.44772 11 3H13C13 1.34315 11.6569 0 10 0V2ZM3 2H10V0H3V2Z" fill="#333333"/>
</svg>