<svg width="13" height="13" viewBox="0 0 13 13" fill="none" xmlns="http://www.w3.org/2000/svg">
<path fill-rule="evenodd" clip-rule="evenodd" d="M6.50002 13C5.21445 13 3.95774 12.6188 2.88882 11.9045C1.8199 11.1903 0.986745 10.1752 0.494775 8.98744C0.00280574 7.79972 -0.125902 6.49282 0.124902 5.23194C0.375706 3.97107 0.994792 2.81286 1.90383 1.90382C2.81287 0.994776 3.97108 0.37569 5.23196 0.124887C6.49283 -0.125917 7.79973 0.00285101 8.98745 0.494821C10.1752 0.98679 11.1903 1.81988 11.9046 2.8888C12.6188 3.95772 13 5.21443 13 6.50001C13 8.22392 12.3152 9.87721 11.0962 11.0962C9.87723 12.3152 8.22393 13 6.50002 13ZM11 8.38203C10.4614 8.21926 9.90261 8.13273 9.33999 8.12501C9.09915 8.12907 8.85877 8.14712 8.62002 8.17902C8.80668 9.00913 8.90726 9.85624 8.92007 10.707C9.8476 10.1781 10.5777 9.36163 11 8.38099V8.38203ZM7.30007 11.294C7.30007 11.185 7.31008 11.078 7.31008 10.968C7.3072 10.1685 7.21664 9.37174 7.04006 8.59199C5.92463 9.04921 4.96829 9.82437 4.29006 10.821C4.97208 11.1789 5.7298 11.3686 6.50002 11.374C6.76845 11.3689 7.03606 11.3418 7.30007 11.293V11.294ZM3.00002 9.88203C3.87749 8.595 5.12113 7.60107 6.56997 7.029C6.44997 6.702 6.30005 6.38202 6.15005 6.07002C4.70156 6.58196 3.13087 6.63713 1.65005 6.22804C1.65005 6.31904 1.62002 6.40601 1.62002 6.50001C1.62164 7.76382 2.11683 8.977 3.00002 9.88099V9.88203ZM3.48 2.701C2.83291 3.20456 2.3238 3.8637 2.00002 4.61701C2.53859 4.78011 3.09739 4.86695 3.66006 4.87501C4.20799 4.87124 4.7529 4.79352 5.28005 4.64399C4.76076 3.92568 4.15631 3.27295 3.48 2.70002V2.701ZM5.00002 1.883C5.67643 2.51372 6.28023 3.21807 6.80007 3.98298C7.55541 3.52227 8.20318 2.90509 8.69998 2.17298C8.02099 1.81721 7.26657 1.62962 6.50002 1.62599C5.98967 1.63183 5.48343 1.71827 5.00002 1.88203V1.883ZM10.01 3.13398C9.38846 4.0489 8.57662 4.81881 7.63003 5.391C7.82411 5.78407 7.9977 6.18698 8.15005 6.59803C8.54354 6.53404 8.94134 6.50057 9.33999 6.49799C10.0192 6.49865 10.6952 6.59048 11.35 6.771C11.35 6.679 11.37 6.59203 11.37 6.49903C11.3703 5.24313 10.8827 4.03622 10.01 3.133V3.13398Z" fill="#333333"/>
</svg>