<svg width="15" height="15" viewBox="0 0 15 15" fill="none" xmlns="http://www.w3.org/2000/svg">
<path fill-rule="evenodd" clip-rule="evenodd" d="M12.004 15H9.01605V9.98602H11.39L11.7 7.979H9.01605C9.01605 7.979 9.01605 5.69399 9.01605 5.46899C9.025 5.3916 9.04994 5.31693 9.08929 5.24969C9.12865 5.18246 9.18153 5.12413 9.24463 5.07843C9.30773 5.03273 9.37965 5.00062 9.45581 4.98419C9.53197 4.96776 9.61069 4.96734 9.68701 4.98297C10.126 4.98297 10.992 4.98297 10.992 4.98297L11.304 3C10.5047 2.94555 9.70246 2.95158 8.90405 3.01801C8.34722 3.09213 7.83823 3.37177 7.47705 3.802C7.13616 4.26331 6.96736 4.82932 7 5.40198V7.99298L5 7.979V9.98602L7 9.99298V15H3C2.20435 15 1.44133 14.6839 0.878723 14.1213C0.316114 13.5587 0 12.7956 0 12V3C0 2.20435 0.316114 1.44127 0.878723 0.878662C1.44133 0.316053 2.20435 0 3 0H12C12.7956 0 13.5587 0.316053 14.1213 0.878662C14.6839 1.44127 15 2.20435 15 3V12C15 12.795 14.6845 13.5574 14.1227 14.1199C13.561 14.6824 12.799 14.9989 12.004 15Z" fill="#333333"/>
</svg>