<svg width="15" height="15" viewBox="0 0 15 15" fill="none" xmlns="http://www.w3.org/2000/svg">
<path fill-rule="evenodd" clip-rule="evenodd" d="M4 0H11C12.0609 0 13.0783 0.421424 13.8284 1.17157C14.5786 1.92172 15 2.93913 15 4V11C15 12.0609 14.5786 13.0783 13.8284 13.8284C13.0783 14.5786 12.0609 15 11 15H4C2.93913 15 1.92172 14.5786 1.17157 13.8284C0.421424 13.0783 0 12.0609 0 11V4C0 2.93913 0.421424 1.92172 1.17157 1.17157C1.92172 0.421424 2.93913 0 4 0ZM4 2H11C11.5304 2 12.0391 2.21074 12.4142 2.58582C12.7893 2.96089 13 3.46957 13 4V11C13 11.5304 12.7893 12.0391 12.4142 12.4142C12.0391 12.7893 11.5304 13 11 13H4C3.46957 13 2.96089 12.7893 2.58582 12.4142C2.21074 12.0391 2 11.5304 2 11V4C2 3.46957 2.21074 2.96089 2.58582 2.58582C2.96089 2.21074 3.46957 2 4 2ZM7.5 4C8.19223 4 8.86895 4.20526 9.44452 4.58984C10.0201 4.97443 10.4687 5.52104 10.7336 6.16058C10.9985 6.80013 11.0678 7.50387 10.9327 8.1828C10.7977 8.86173 10.4643 9.48537 9.97485 9.97485C9.48537 10.4643 8.86173 10.7977 8.1828 10.9327C7.50387 11.0678 6.80013 10.9985 6.16058 10.7336C5.52104 10.4687 4.97443 10.0201 4.58984 9.44452C4.20526 8.86895 4 8.19223 4 7.5C4 6.57174 4.36877 5.68152 5.02515 5.02515C5.68152 4.36877 6.57174 4 7.5 4ZM7.5 6C7.79667 6 8.0867 6.08799 8.33337 6.25281C8.58005 6.41763 8.77227 6.65188 8.8858 6.92596C8.99933 7.20005 9.02907 7.50169 8.97119 7.79266C8.91331 8.08364 8.77045 8.35089 8.56067 8.56067C8.35089 8.77045 8.08364 8.91331 7.79266 8.97119C7.50169 9.02907 7.20005 8.99933 6.92596 8.8858C6.65188 8.77227 6.41763 8.58005 6.25281 8.33337C6.08799 8.0867 6 7.79667 6 7.5C6 7.10218 6.15803 6.72064 6.43933 6.43933C6.72064 6.15803 7.10218 6 7.5 6Z" fill="#333333"/>
</svg>