<svg width="13" height="13" viewBox="0 0 13 13" fill="none" xmlns="http://www.w3.org/2000/svg">
<path fill-rule="evenodd" clip-rule="evenodd" d="M3 4H0V13H3V4ZM7 4H4V13H7V8C7.13992 7.71064 7.35535 7.46442 7.6236 7.28735C7.89184 7.11029 8.20292 7.00896 8.52399 6.99402C8.73322 6.98879 8.94108 7.02939 9.13293 7.11304C9.32479 7.19668 9.49602 7.32135 9.63458 7.47821C9.77314 7.63507 9.87567 7.82035 9.935 8.02106C9.99433 8.22177 10.009 8.43303 9.97803 8.64001L10 13H13V8C13 5.873 12.378 4 9.737 4C9.20139 3.99669 8.67268 4.12084 8.19452 4.36218C7.71636 4.60352 7.30246 4.95514 6.987 5.388L7 4ZM1.5 0C1.79667 0 2.0867 0.0879855 2.33337 0.252808C2.58005 0.41763 2.77227 0.651875 2.8858 0.925964C2.99933 1.20005 3.02907 1.50169 2.97119 1.79266C2.91331 2.08364 2.77045 2.35089 2.56067 2.56067C2.35089 2.77045 2.08364 2.91331 1.79266 2.97119C1.50169 3.02907 1.20005 2.99933 0.925964 2.8858C0.651875 2.77227 0.41763 2.58005 0.252808 2.33337C0.0879855 2.0867 0 1.79667 0 1.5C0 1.10218 0.158026 0.720636 0.439331 0.439331C0.720636 0.158026 1.10218 0 1.5 0Z" fill="#333333"/>
</svg>
