<svg width="15" height="11" viewBox="0 0 15 11" fill="none" xmlns="http://www.w3.org/2000/svg">
<path fill-rule="evenodd" clip-rule="evenodd" d="M4.50127 0C4.7978 0 5.08769 0.0876793 5.33425 0.251928C5.5808 0.416176 5.77293 0.649606 5.88641 0.922741C5.99988 1.19588 6.0296 1.49647 5.97175 1.78642C5.9139 2.07638 5.77111 2.34271 5.56143 2.55176C5.35175 2.7608 5.08463 2.90317 4.7938 2.96085C4.50296 3.01853 4.20147 2.9889 3.92752 2.87576C3.65356 2.76262 3.41943 2.57107 3.25468 2.32525C3.08994 2.07944 3.002 1.79042 3.002 1.49478C3.002 1.09834 3.15995 0.718127 3.44112 0.437802C3.72229 0.157476 4.10364 0 4.50127 0V0ZM10.4984 0C10.7949 0 11.0848 0.0876793 11.3313 0.251928C11.5779 0.416176 11.77 0.649606 11.8835 0.922741C11.997 1.19588 12.0267 1.49647 11.9689 1.78642C11.911 2.07638 11.7682 2.34271 11.5585 2.55176C11.3489 2.7608 11.0817 2.90317 10.7909 2.96085C10.5001 3.01853 10.1986 2.9889 9.92462 2.87576C9.65066 2.76262 9.41653 2.57107 9.25179 2.32525C9.08704 2.07944 8.9991 1.79042 8.9991 1.49478C8.9991 1.09834 9.15705 0.718127 9.43822 0.437802C9.71939 0.157476 10.1007 0 10.4984 0V0ZM14.4964 10.8362C14.2664 10.9668 13.9941 11.0023 13.7381 10.935C13.4821 10.8678 13.2627 10.7031 13.1271 10.4764L12.2975 9.20886C10.9578 10.3391 9.25975 10.9593 7.50483 10.9593C5.74991 10.9593 4.05181 10.3391 2.71216 9.20886L1.87254 10.4983C1.80691 10.6122 1.71943 10.7121 1.61509 10.7922C1.51076 10.8723 1.39165 10.9312 1.26449 10.9654C1.13734 10.9997 1.00461 11.0086 0.873997 10.9917C0.74338 10.9748 0.6174 10.9325 0.503205 10.8671C0.38901 10.8016 0.288873 10.7144 0.208486 10.6104C0.128099 10.5064 0.0690221 10.3876 0.034681 10.2608C0.000339936 10.134 -0.00860645 10.0018 0.00832657 9.87153C0.0252596 9.7413 0.067759 9.61564 0.133388 9.50179L2.13242 6.43152C2.26497 6.20158 2.48367 6.0336 2.74047 5.96446C2.99727 5.89531 3.27113 5.93066 3.50176 6.06281C3.73238 6.19496 3.90093 6.41306 3.97028 6.66909C4.03963 6.92512 4.00412 7.1981 3.87157 7.42804L3.8116 7.51976C4.81418 8.44788 6.1317 8.96369 7.49983 8.96369C8.86795 8.96369 10.1855 8.44788 11.188 7.51976L11.1281 7.436C11.0634 7.3237 11.0217 7.19981 11.0053 7.07137C10.9889 6.94293 10.9982 6.8125 11.0325 6.68764C11.0669 6.56278 11.1258 6.44591 11.2056 6.34381C11.2855 6.24171 11.3848 6.1564 11.4979 6.09273C11.728 5.9621 12.0002 5.92658 12.2563 5.99384C12.5123 6.06109 12.7316 6.22573 12.8672 6.45244L14.8663 9.48488C14.932 9.59755 14.9746 9.72214 14.9916 9.85139C15.0086 9.98065 14.9997 10.112 14.9653 10.2377C14.9309 10.3635 14.8717 10.4812 14.7912 10.5839C14.7107 10.6867 14.6105 10.7724 14.4964 10.8362V10.8362Z" fill="#333333"/>
</svg>