<svg width="15" height="12" viewBox="0 0 15 12" fill="none" xmlns="http://www.w3.org/2000/svg">
<path fill-rule="evenodd" clip-rule="evenodd" d="M1.77875 2.44812C1.7975 2.26232 1.72687 2.07904 1.58937 1.95434L0.189375 0.253818V0H4.53813L7.89937 7.42875L10.8544 0H15V0.253818L13.8025 1.4108C13.6994 1.49016 13.6481 1.62053 13.6694 1.74965V10.251C13.6481 10.3795 13.6994 10.5098 13.8025 10.5892L14.9719 11.7462V12H9.08938V11.7462L10.3013 10.5609C10.42 10.4412 10.42 10.4059 10.42 10.2226V3.35128L7.05187 11.9723H6.59688L2.675 3.35128V9.12927C2.6425 9.37175 2.7225 9.61675 2.89187 9.79184L4.4675 11.7178V11.9723H0V11.7178L1.57562 9.79184C1.74437 9.61612 1.81937 9.36986 1.77875 9.12927V2.44812V2.44812Z" fill="#333333"/>
</svg>
