<svg width="7" height="13" viewBox="0 0 7 13" fill="none" xmlns="http://www.w3.org/2000/svg">
<path fill-rule="evenodd" clip-rule="evenodd" d="M7.00002 3.5C7.00002 5.433 5.43301 7 3.50003 7C1.56704 7 2.49915e-05 5.433 2.49915e-05 3.5C2.49915e-05 1.567 1.56704 0 3.50003 0C5.43301 0 7.00002 1.567 7.00002 3.5ZM5.00002 3.5C5.00002 4.32843 4.32839 5 3.50003 5C2.67166 5 2.00003 4.32843 2.00003 3.5C2.00003 2.67157 2.67166 2 3.50003 2C4.32839 2 5.00002 2.67157 5.00002 3.5Z" fill="#333333"/>
<path d="M5.40762 7.63959C4.79775 7.8703 4.15383 7.99077 3.50418 7.99568V7.99368C2.87576 8.00346 2.25295 7.86925 1.68118 7.60069C1.15404 7.3531 0.975489 7.2019 0.597193 7.06007C0.154566 7.06007 0.0276129 7.84607 0.000513273 8.35677C-0.019018 8.72746 0.507564 8.96867 0.842122 9.12696C1.17668 9.28525 1.25569 9.33143 1.43801 9.39716C1.62034 9.46289 1.89453 9.55859 2.05606 9.60463C1.80078 9.85156 1.52236 10.0901 1.28115 10.3597C0.842122 10.8504 0.403467 11.2879 0.0790045 11.8429C0.123194 12.1177 0.243921 12.3733 0.426539 12.5787C0.609156 12.7841 0.84585 12.9305 1.10769 13C1.61685 12.7127 2.01438 12.2874 2.43276 11.8619C2.98391 11.3013 3.51284 10.8156 3.51284 10.8156C3.51284 10.8156 4.02822 11.3282 4.59292 11.8828C5.03474 12.3168 5.42874 12.7252 5.949 13C6.1846 12.9431 6.40017 12.8195 6.57131 12.6433C6.74246 12.4671 6.86233 12.2452 6.91763 12.0025C6.74465 11.4913 6.39669 11.1501 5.99941 10.7278C5.79019 10.5053 4.96975 9.60159 4.96975 9.60159C5.19922 9.53906 5.50165 9.41922 5.67202 9.35527C5.8424 9.29132 5.96861 9.22416 6.19008 9.12696C6.41155 9.02976 6.96816 8.78877 6.99319 8.39067C7.05325 7.44907 6.70168 7.08498 6.48855 7.077C6.10989 7.22444 5.8425 7.47507 5.40762 7.63959Z" fill="#333333"/>
</svg>