<svg width="17" height="14" viewBox="0 0 17 14" fill="none" xmlns="http://www.w3.org/2000/svg">
	<path fill-rule="evenodd" clip-rule="evenodd" d="M17 2C17 3.10498 16.104 4 15 4C13.896 4 13 3.10498 13 2C13 0.89502 13.896 0 15 0C16.104 0 17 0.89502 17 2ZM0 3H9.87799C10.487 3 10.981 3.06604 11.377 3.18103C11.771 3.31305 12.101 3.51099 12.397 3.79199C12.676 4.08801 12.874 4.41797 12.989 4.79797C13.105 5.177 13.17 5.672 13.17 6.29797V7.12299C13.17 8.17798 12.989 8.97003 12.627 9.46503C12.265 9.96002 11.673 10.273 10.849 10.405L13.5 14H10.421L8.01703 10.421H2.74902V14H0V3ZM2.74902 7.99701H9.43298C9.81201 7.99701 10.076 7.94696 10.208 7.83197C10.339 7.71698 10.421 7.50201 10.421 7.172V6.24902C10.421 5.93604 10.339 5.72101 10.208 5.60602C10.076 5.48999 9.81201 5.42401 9.43298 5.42401H2.74902V7.99701Z" fill="#333333"/>
</svg>