<svg width="15" height="15" viewBox="0 0 15 15" fill="none" xmlns="http://www.w3.org/2000/svg">
<path fill-rule="evenodd" clip-rule="evenodd" d="M13.0284 10.0283C13.3487 10.2342 14.3492 10.8591 14.5894 11.0811C14.7305 11.1452 14.8464 11.2543 14.9188 11.3913C14.9913 11.5283 15.0162 11.6854 14.9897 11.838C14.9096 12.405 13.7089 12.315 13.3787 12.7139C12.8025 13.1701 12.1152 13.4648 11.3874 13.5678C11.2199 13.5822 11.058 13.6348 10.914 13.7215C10.7701 13.8081 10.6479 13.9266 10.5569 14.0677C9.64598 14.6756 8.57515 15 7.47982 15C6.38448 15 5.31377 14.6756 4.40287 14.0677C4.31182 13.9266 4.18955 13.8081 4.04559 13.7215C3.90162 13.6348 3.7397 13.5822 3.57226 13.5678C2.84441 13.4648 2.15712 13.1701 1.58098 12.7139C1.25077 12.314 0.0800518 12.406 0 11.838C0.00224674 11.6937 0.0399026 11.5521 0.10969 11.4257C0.179478 11.2993 0.279287 11.192 0.400283 11.1132C0.894995 10.716 1.41651 10.3535 1.96123 10.0283C2.33147 9.8283 3.18204 9.27734 2.98191 8.59443C2.77937 8.2857 2.51745 8.02026 2.21139 7.81352C1.72853 7.47379 1.30865 7.05254 0.970599 6.56868C0.953177 6.49907 0.952011 6.42641 0.967056 6.35624C0.982102 6.28608 1.01301 6.22026 1.05745 6.16389C1.10188 6.10751 1.15858 6.06208 1.22333 6.03103C1.28807 5.99998 1.35905 5.98415 1.43086 5.98477C1.84112 5.98477 2.41159 5.96877 2.66176 5.98477C3.14207 6.01677 2.96189 5.28488 2.97189 4.37999C3.03206 3.37383 3.34155 2.39839 3.8725 1.54136C4.27621 1.05068 4.78543 0.657271 5.36236 0.390499C5.93928 0.123727 6.56899 -0.00955692 7.20461 0.000532989H7.78507C8.41627 -0.000819216 9.04036 0.133259 9.61523 0.393733C10.1901 0.654208 10.7023 1.03501 11.1172 1.51035C11.6924 2.35576 11.9929 3.35779 11.9777 4.37999C11.9977 5.28588 11.8777 6.01677 12.368 5.98477C12.6081 5.96877 13.1486 5.98477 13.5588 5.98477C13.6306 5.98415 13.7016 5.99998 13.7664 6.03103C13.8311 6.06208 13.8878 6.10751 13.9322 6.16389C13.9767 6.22026 14.0076 6.28608 14.0226 6.35624C14.0377 6.42641 14.0365 6.49907 14.0191 6.56868C13.6555 7.051 13.2161 7.47138 12.7182 7.81352C12.3882 7.96456 12.1249 8.23093 11.9777 8.56245C11.8977 9.14838 12.2179 9.51033 13.0284 10.0283Z" fill="#333333"/>
</svg>