<svg width="14" height="12" viewBox="0 0 14 12" fill="none" xmlns="http://www.w3.org/2000/svg">
<path fill-rule="evenodd" clip-rule="evenodd" d="M11.9849 11.0426C11.9664 11.2403 11.8889 11.4281 11.7623 11.5816C11.6358 11.7351 11.466 11.8474 11.2747 11.9038C11.0835 11.9603 10.8797 11.9584 10.6895 11.8985C10.4993 11.8386 10.3315 11.7233 10.2077 11.5675C9.1195 10.7066 7.42235 9.46583 7.42235 9.46583C7.42235 9.46583 6.19427 11.6202 5.97463 11.8409C5.90207 11.9016 5.81761 11.9466 5.72662 11.973C5.63563 11.9993 5.54013 12.0065 5.44619 11.9941C5.35225 11.9816 5.26191 11.9498 5.181 11.9007C5.10009 11.8516 5.03037 11.7862 4.97625 11.7087C4.96505 11.6748 4.95179 11.6415 4.9364 11.6092L5.62522 8.17744L10.5373 3.37265L3.83809 7.17927C3.83809 7.17927 0.813035 6.27855 0.363766 6.10259C0.24787 6.03955 0.152297 5.94511 0.0880913 5.8302C0.023886 5.71529 -0.00623899 5.58462 0.00107471 5.45333C0.00838841 5.32203 0.0528319 5.19548 0.129406 5.08834C0.20598 4.98121 0.311534 4.89788 0.43372 4.84799C1.07268 4.5239 12.3443 0.237053 12.7237 0.126701C13.103 0.0163493 14.1014 -0.270965 13.9916 0.696353C13.8818 1.66367 12.0947 10.5107 11.9849 11.0426Z" fill="#333333"/>
</svg>