<svg width="13" height="15" viewBox="0 0 13 15" fill="none" xmlns="http://www.w3.org/2000/svg">
<path fill-rule="evenodd" clip-rule="evenodd" d="M12 6C10.9151 5.99608 9.86134 5.63673 9.00004 4.97699V10.5C9.00004 11.39 8.73608 12.26 8.24161 13.0001C7.74715 13.7401 7.04435 14.3169 6.22208 14.6575C5.39981 14.9981 4.49502 15.0871 3.62211 14.9135C2.74919 14.7399 1.94736 14.3113 1.31803 13.682C0.688692 13.0527 0.260095 12.2508 0.0864611 11.3779C-0.0871724 10.505 0.00197026 9.60022 0.342565 8.77795C0.683159 7.95569 1.25989 7.25283 1.99991 6.75836C2.73993 6.2639 3.61002 6 4.50004 6C4.66747 6.00774 4.83438 6.02442 5.00004 6.04999V8.04999C4.8354 8.01702 4.66794 8.00029 4.50004 8C4.00558 8 3.52224 8.14662 3.11112 8.42133C2.7 8.69603 2.37956 9.08646 2.19034 9.54327C2.00112 10.0001 1.95167 10.5028 2.04813 10.9877C2.14459 11.4727 2.38258 11.9181 2.73221 12.2678C3.08184 12.6174 3.52741 12.8555 4.01236 12.952C4.49732 13.0484 4.99989 12.9989 5.4567 12.8097C5.91352 12.6205 6.30395 12.3 6.57865 11.8889C6.85335 11.4778 7.00004 10.9945 7.00004 10.5V1V0H9.00004V1C9.00004 1.79565 9.31609 2.55873 9.8787 3.12134C10.4413 3.68395 11.2044 4 12 4C12.3415 3.99687 12.6798 3.93459 13 3.81598V5.90002C12.6709 5.96694 12.3359 6.00042 12 6Z" fill="#333333"/>
</svg>