<svg width="13" height="11" viewBox="0 0 13 11" fill="none" xmlns="http://www.w3.org/2000/svg">
<path fill-rule="evenodd" clip-rule="evenodd" d="M6.25903 3.4184C6.25903 3.4184 6.49594 0.0709796 8.82854 0.0419847C10.7274 0.0169892 11.0912 0.879849 11.0912 0.879849C11.6644 0.704679 12.1946 0.411065 12.6472 0.0180022C12.6064 0.576899 12.3826 1.10677 12.0106 1.52573C12.3718 1.52328 12.7212 1.39653 13 1.16679C12.9268 1.43662 12.7963 1.68746 12.6172 1.90213C12.4382 2.1168 12.2149 2.29026 11.9627 2.41058C12.0817 4.50352 11.5207 6.5788 10.3636 8.32652C8.66459 10.7941 5.57446 10.979 3.87947 11C2.52297 10.9197 1.20199 10.5346 0.0147803 9.87325C0.0147803 9.87325 2.58622 9.90424 3.73753 9.06339C2.826 8.43987 1.97302 7.73476 1.18907 6.95677C1.49965 6.98265 1.81237 6.95111 2.11155 6.86377C1.28867 5.99289 0.583075 5.01812 0.0127673 3.96426C0.331126 4.02766 0.657013 4.04448 0.980207 4.01424C0.980207 4.01424 -0.518875 1.57872 0.190701 0C0.190701 0.00399929 2.72415 3.20544 6.25903 3.4184Z" fill="#333333"/>
</svg>