<svg width="13" height="13" viewBox="0 0 13 13" fill="none" xmlns="http://www.w3.org/2000/svg">
<path fill-rule="evenodd" clip-rule="evenodd" d="M3.42203 0.924028C3.79157 1.52471 4.62048 2.9734 4.74033 3.2377C4.84281 3.4129 4.87505 3.62055 4.83055 3.81869C4.78604 4.01682 4.66813 4.19063 4.50064 4.3049C4.17484 4.50291 3.87025 4.73409 3.59174 4.99471C3.45192 5.26202 3.3221 6.2962 4.86017 7.83095C6.39825 9.36571 7.63667 9.67606 7.95627 9.33267C8.27587 8.98928 8.46571 8.60985 8.66546 8.40962C8.81113 8.25078 9.01086 8.15238 9.22531 8.13385C9.43976 8.11532 9.65328 8.17796 9.82393 8.30947C10.6704 8.7578 11.4877 9.25937 12.2709 9.81118C12.7603 10.1896 13.1298 10.4649 12.95 10.9565C12.7852 11.4485 12.5122 11.897 12.1511 12.269C11.857 12.5619 11.4951 12.7772 11.0977 12.8957C10.7003 13.0141 10.2799 13.032 9.87391 12.9478C8.71674 12.663 7.6182 12.1774 6.62798 11.5131C5.57706 10.7593 4.60045 9.90647 3.71159 8.96622C2.89905 8.16573 2.15412 7.2991 1.4844 6.37525C0.826632 5.27276 0.351168 4.0709 0.0762482 2.8162C-0.0157098 2.48498 -0.0246418 2.13615 0.0502798 1.80064C0.125201 1.46513 0.281588 1.15337 0.505642 0.893048C0.905279 0.477646 1.41441 0.184559 1.97377 0.0480284C2.36329 -0.0540881 2.80281 -0.0540881 3.42203 0.924028ZM6.50813 1.08321V0C8.22988 0 9.88111 0.685604 11.0986 1.90598C12.316 3.12636 13 4.78155 13 6.50742H11.9214C11.9206 5.06874 11.3499 3.68923 10.3349 2.67212C9.31982 1.655 7.94338 1.08347 6.50813 1.08321V1.08321ZM10.8327 6.50645H9.75407C9.75327 5.64375 9.41106 4.8166 8.8025 4.20658C8.19394 3.59656 7.36876 3.25353 6.50813 3.25273V2.16849C7.07631 2.16875 7.63883 2.28118 8.16365 2.49937C8.68848 2.71757 9.16535 3.03723 9.56692 3.44014C9.9685 3.84305 10.2869 4.32129 10.5041 4.84757C10.7213 5.37385 10.8329 5.93789 10.8327 6.50742V6.50645Z" fill="#333333"/>
</svg>