<svg width="15" height="9" viewBox="0 0 15 9" fill="none" xmlns="http://www.w3.org/2000/svg">
<path fill-rule="evenodd" clip-rule="evenodd" d="M8.95125 0.779503V4.03225C8.94767 4.08596 8.95692 4.1398 8.97823 4.18921C8.99954 4.23862 9.03229 4.28219 9.07376 4.31636C9.11523 4.35054 9.16424 4.37435 9.2167 4.38573C9.26916 4.39711 9.32353 4.39577 9.37537 4.38183C9.67408 4.36186 10.3492 1.58543 10.6489 0.986205C10.8081 0.644817 11.0636 0.357723 11.3837 0.16031C11.4848 0.069078 11.6135 0.0145305 11.7491 0.00548164H14.6147C14.6921 0.0185428 14.7648 0.0511498 14.8261 0.100208C14.8875 0.149265 14.9353 0.213147 14.9651 0.28588C14.995 0.358613 15.006 0.437788 14.9969 0.515929C14.9879 0.59407 14.9591 0.668644 14.9134 0.732567C14.6894 1.23192 12.7677 4.33786 12.6681 4.46369C12.5483 4.62608 12.4675 4.81406 12.4321 5.01297C12.4715 5.24768 12.5797 5.46537 12.7428 5.6382C12.942 5.8649 14.551 7.64157 14.7013 7.79038C14.8429 7.9541 14.9375 8.15327 14.9752 8.36666C14.9393 8.54838 14.8386 8.71078 14.692 8.82346C14.5454 8.93614 14.3629 8.99135 14.1786 8.97884C13.5553 8.97884 12.0219 8.97884 11.8467 8.97884C11.4964 8.8559 11.1742 8.66406 10.8988 8.41457C10.6748 8.21483 9.84435 7.26408 9.71989 7.13924C9.67776 7.08843 9.62394 7.04866 9.56304 7.02343C9.50214 6.99819 9.43599 6.98823 9.37039 6.99441C9.22104 6.99441 8.93727 7.00944 8.95021 7.5777C8.98557 7.97238 8.9031 8.36865 8.71326 8.71618C8.61604 8.80968 8.50083 8.8823 8.37464 8.92953C8.24845 8.97675 8.11396 8.99762 7.97944 8.99085C6.96096 9.05277 5.94811 8.79933 5.078 8.2648C3.51078 7.28806 1.72649 4.68041 0.896085 3.01757C0.400758 2.19151 0.0947066 1.26538 0 0.306117C0.0497845 0.130345 0.0497369 0.00645693 0.224978 0.00645693C0.40022 0.00645693 2.60372 0.00645693 2.81381 0.00645693C2.95931 0.0791652 3.08071 0.192622 3.16331 0.33306C3.23799 0.432931 3.80748 2.14269 3.98173 2.4433C4.15597 2.74391 5.01524 4.39079 5.48122 4.39079C5.63594 4.36032 5.77239 4.26975 5.8608 4.1388C5.94921 4.00784 5.98241 3.8471 5.95318 3.69168C5.95318 3.2922 5.95318 1.71525 5.95318 1.51451C5.76377 1.07168 5.41659 0.715592 4.97942 0.515807C5.08829 0.370757 5.22716 0.251073 5.38648 0.164882C5.54579 0.0786915 5.72179 0.0280331 5.90243 0.0164537C6.49984 -0.0085139 7.99835 -0.00846611 8.32195 0.0404705C8.49466 0.0742147 8.65089 0.165632 8.76516 0.299839C8.87944 0.434046 8.94504 0.603121 8.95125 0.779503Z" fill="#333333"/>
</svg>