<svg width="15" height="15" viewBox="0 0 15 15" fill="none" xmlns="http://www.w3.org/2000/svg">
<path fill-rule="evenodd" clip-rule="evenodd" d="M7.50028 15C6.08617 14.9964 4.70226 14.5899 3.51014 13.8278L0 15L1.17009 11.4824C0.288563 10.0731 -0.100419 8.41014 0.0644556 6.75516C0.22933 5.10018 0.938712 3.54706 2.08089 2.34005C3.22307 1.13304 4.73322 0.340632 6.37402 0.0874329C8.01483 -0.165766 9.69316 0.134597 11.145 0.941322C12.5967 1.74805 13.7396 3.01532 14.394 4.54388C15.0483 6.07244 15.1769 7.77558 14.7596 9.38538C14.3423 10.9952 13.4027 12.4203 12.0886 13.4366C10.7745 14.453 9.16044 15.003 7.50028 15ZM9.13035 8.62407C9.62924 8.78574 10.1367 8.91955 10.6504 9.02484C10.7045 9.03281 10.7563 9.0516 10.8029 9.08012C10.8495 9.10864 10.8899 9.14627 10.9217 9.1908C10.9534 9.23532 10.9759 9.28585 10.9877 9.33927C10.9995 9.39269 11.0004 9.44795 10.9904 9.50174V9.79025C10.9954 9.89323 10.9763 9.99597 10.9346 10.0902C10.893 10.1845 10.8298 10.2677 10.7504 10.3333C10.5039 10.5839 10.2121 10.7852 9.89039 10.9264C9.41582 10.9829 8.93467 10.941 8.47701 10.8031C8.01935 10.6652 7.59496 10.4343 7.23025 10.1249C6.76004 9.80886 6.32139 9.44824 5.92027 9.04789C5.52104 8.64397 5.15944 8.20429 4.84015 7.7344C4.53376 7.3688 4.30561 6.94407 4.16971 6.48653C4.03382 6.02899 3.99316 5.5484 4.0502 5.07447C4.19134 4.754 4.39147 4.46303 4.64019 4.21685C4.70356 4.13565 4.78604 4.0715 4.88031 4.03022C4.97459 3.98894 5.07772 3.97181 5.18025 3.98038H5.47018C5.57956 3.96525 5.69055 3.99418 5.77866 4.06086C5.86677 4.12753 5.92479 4.22654 5.94017 4.33609C6.09017 4.9292 6.20021 5.358 6.35022 5.8389C6.41022 6.03927 6.34029 6.08734 6.18029 6.20757C6.08028 6.28471 6.00027 6.34083 5.92027 6.39994C5.87387 6.42017 5.83224 6.44993 5.79807 6.48732C5.7639 6.52472 5.73793 6.56888 5.7219 6.61696C5.70587 6.66505 5.70005 6.71601 5.70493 6.76647C5.70981 6.81693 5.72527 6.86576 5.75022 6.90987C6.00561 7.4023 6.33249 7.85407 6.72023 8.25038C7.11525 8.63957 7.5672 8.96623 8.06036 9.21917C8.10451 9.24374 8.15316 9.2589 8.20344 9.26363C8.25371 9.26835 8.30443 9.26254 8.35237 9.24663C8.4003 9.23071 8.4445 9.20504 8.48201 9.17117C8.51952 9.1373 8.54951 9.09597 8.57027 9.04985C8.63027 8.9687 8.68034 8.89257 8.76034 8.78837C8.77281 8.75236 8.79242 8.71922 8.81796 8.69096C8.8435 8.66271 8.87449 8.63994 8.90903 8.62394C8.94357 8.60795 8.98098 8.59907 9.01902 8.59789C9.05705 8.59672 9.09489 8.60327 9.13035 8.61709V8.62407Z" fill="#333333"/>
</svg>