<svg width="15" height="13" viewBox="0 0 15 13" fill="none" xmlns="http://www.w3.org/2000/svg">
<path fill-rule="evenodd" clip-rule="evenodd" d="M10.9986 13H4.00145C2.89736 12.954 1.85654 12.4719 1.10707 11.6595C0.357597 10.8472 -0.0394022 9.7707 0.00309136 8.66602V4.33301C-0.0388648 3.22856 0.358352 2.15244 1.10774 1.34033C1.85713 0.528223 2.89763 0.0462907 4.00145 0H10.9986C12.1026 0.0462881 13.1432 0.528371 13.8927 1.3407C14.6421 2.15303 15.0392 3.22937 14.9969 4.33398V8.66699C15.0392 9.77151 14.642 10.8477 13.8926 11.6599C13.1432 12.4721 12.1025 12.954 10.9986 13ZM12.9978 4.255C13.0284 3.69254 12.8354 3.14081 12.4608 2.72021C12.0863 2.29962 11.5606 2.0443 10.9986 2.01001H4.00145C3.43943 2.0443 2.91377 2.29962 2.53922 2.72021C2.16468 3.14081 1.97166 3.69254 2.00227 4.255V8.74402C1.97166 9.30648 2.16468 9.85821 2.53922 10.2788C2.91377 10.6994 3.43943 10.9547 4.00145 10.989H10.9986C11.5606 10.9547 12.0863 10.6994 12.4608 10.2788C12.8354 9.85821 13.0284 9.30648 12.9978 8.74402V4.255ZM6.00063 3.987L9.99899 6.49902L6.00063 9.01099V3.987Z" fill="#333333"/>
</svg>