<svg width="15" height="15" viewBox="0 0 15 15" fill="none" xmlns="http://www.w3.org/2000/svg">
<path fill-rule="evenodd" clip-rule="evenodd" d="M13 7.21301L12 7C10.9391 7 9.92178 6.57858 9.17163 5.82843C8.42148 5.07828 8 4.06087 8 3L7.79004 2L7.59998 0H7.40002L7.20996 2L7 3C7 4.06087 6.57851 5.07828 5.82837 5.82843C5.07822 6.57858 4.06087 7 3 7L2 7.21301L0 7.39502V4C0 2.93913 0.421485 1.92172 1.17163 1.17157C1.92178 0.421424 2.93913 0 4 0H11C12.0609 0 13.0782 0.421424 13.8284 1.17157C14.5785 1.92172 15 2.93913 15 4V7.40002L13 7.21301ZM2 7.78699L3 8C4.06087 8 5.07822 8.42142 5.82837 9.17157C6.57851 9.92172 7 10.9391 7 12L7.20996 13L7.40002 15H7.59998L7.79004 13L8 12C8 10.9391 8.42148 9.92172 9.17163 9.17157C9.92178 8.42142 10.9391 8 12 8L13 7.78699L15 7.60498V11C15 12.0609 14.5785 13.0783 13.8284 13.8284C13.0782 14.5786 12.0609 15 11 15H4C2.93913 15 1.92178 14.5786 1.17163 13.8284C0.421485 13.0783 0 12.0609 0 11V7.60498L2 7.78699Z" fill="#333333"/>
</svg>