<svg xmlns="http://www.w3.org/2000/svg"><symbol viewBox="0 0 30 26" id="desktop">
  <path id="Rounded_Rectangle_1069_copy" data-name="Rounded Rectangle 1069 copy" d="M47,872H36v3h5a1,1,0,1,1,0,2H29a1,1,0,0,1,0-2h5v-3H23a3,3,0,0,1-3-3V854a3,3,0,0,1,3-3H47a3,3,0,0,1,3,3v15A3,3,0,0,1,47,872Zm1-18a1,1,0,0,0-1-1H23a1,1,0,0,0-1,1v15a1,1,0,0,0,1,1H47a1,1,0,0,0,1-1V854Z" transform="translate(-20 -851)"/>
</symbol><symbol viewBox="0 0 16 26" id="mobile">
  <path id="Rounded_Rectangle_1073" data-name="Rounded Rectangle 1073" d="M124,877h-8a4,4,0,0,1-4-4V855a4,4,0,0,1,4-4h8a4,4,0,0,1,4,4v18A4,4,0,0,1,124,877Zm2-22a2,2,0,0,0-2-2h0a1,1,0,0,1-1,1h-6a1,1,0,0,1-1-1h0a2,2,0,0,0-2,2v18a2,2,0,0,0,2,2h8a2,2,0,0,0,2-2V855Z" transform="translate(-112 -851)"/>
</symbol><symbol viewBox="0 0 22 26" id="tablet">
  <path id="Ellipse_327_copy_4" data-name="Ellipse 327 copy 4" d="M70,873V855a4,4,0,0,1,4-4H88a4,4,0,0,1,4,4v18a4,4,0,0,1-4,4H74A4,4,0,0,1,70,873Zm18,2a2,2,0,0,0,2-2V855a2,2,0,0,0-2-2H74a2,2,0,0,0-2,2v18a2,2,0,0,0,2,2H88Zm-8-20.5a0.5,0.5,0,0,1,.5-0.5h1a0.5,0.5,0,1,1,0,1h-1A0.5,0.5,0,0,1,80,854.5Z" transform="translate(-70 -851)"/>
</symbol></svg>