<svg width="10" height="14" viewBox="0 0 10 14" fill="none" xmlns="http://www.w3.org/2000/svg">
<path fill-rule="evenodd" clip-rule="evenodd" d="M10 5.00244C10 6.31243 9.49622 7.50475 8.67184 8.39624L4.88411 12.8264C4.58473 13.1856 4 12.9739 4 12.5063V9.90242C1.71776 9.43915 0 7.4214 0 5.00244C0 2.24102 2.23858 0.00244141 5 0.00244141C7.76142 0.00244141 10 2.24102 10 5.00244ZM5 2.00244C6.65685 2.00244 8 3.34559 8 5.00244C8 6.6593 6.65685 8.00244 5 8.00244C3.34315 8.00244 2 6.6593 2 5.00244C2 3.34559 3.34315 2.00244 5 2.00244Z" fill="#888888"/>
</svg>