<svg width="19" height="14" viewBox="0 0 19 14" fill="none" xmlns="http://www.w3.org/2000/svg">
<path fill-rule="evenodd" clip-rule="evenodd" d="M3 0C1.34315 0 0 1.34315 0 3V11C0 12.6569 1.34315 14 3 14H16C17.6569 14 19 12.6569 19 11V3C19 1.34315 17.6569 0 16 0H3ZM2 3.28062V10.5858L4.29289 8.29289C4.68342 7.90237 5.31658 7.90237 5.70711 8.29289C6.09763 8.68342 6.09763 9.31658 5.70711 9.70711L3.41421 12H15.5858L13.2929 9.70711C12.9024 9.31658 12.9024 8.68342 13.2929 8.29289C13.6834 7.90237 14.3166 7.90237 14.7071 8.29289L17 10.5858V3.28062L10.7494 8.28111C10.019 8.86546 8.98104 8.86546 8.25061 8.28111L2 3.28062ZM15.3992 2H3.60078L9.5 6.71937L15.3992 2Z" fill="#999999"/>
</svg>
