<svg width="21" height="19" viewBox="0 0 21 19" fill="none" xmlns="http://www.w3.org/2000/svg">
<path d="M10.9975 11.0024C8.78835 11.0024 6.99749 9.21158 6.99749 7.00244V5.00244C6.99749 4.45016 7.44521 4.00244 7.99749 4.00244C8.54978 4.00244 8.99749 4.45016 8.99749 5.00244V7.00244C8.99749 8.10701 9.89292 9.00244 10.9975 9.00244C12.1021 9.00244 12.9975 8.10701 12.9975 7.00244V5.00244C12.9975 4.45016 13.4452 4.00244 13.9975 4.00244C14.5498 4.00244 14.9975 4.45016 14.9975 5.00244V7.00244C14.9975 9.21158 13.2066 11.0024 10.9975 11.0024Z" fill="#888888"/>
<path fill-rule="evenodd" clip-rule="evenodd" d="M5.72847 0.00244141C4.23733 0.00244141 2.97252 1.09764 2.7593 2.57346L1.02555 14.5735C0.764213 16.3822 2.16715 18.0024 3.99472 18.0024H17.9921C19.8191 18.0024 21.2219 16.3832 20.9615 14.5748L19.2334 2.57483C19.0208 1.09839 17.7557 0.00244141 16.264 0.00244141H5.72847ZM4.73875 2.85945C4.80982 2.36751 5.23142 2.00244 5.72847 2.00244H16.264C16.7613 2.00244 17.183 2.36776 17.2538 2.8599L18.9819 14.8599C19.0687 15.4627 18.6011 16.0024 17.9921 16.0024H3.99472C3.38553 16.0024 2.91788 15.4624 3.00499 14.8594L4.73875 2.85945Z" fill="#888888"/>
</svg>