<svg width="55" height="50" viewBox="0 0 55 50" fill="none" xmlns="http://www.w3.org/2000/svg">
<path class="stroke-theme-svg" d="M6.22761 2.72932C6.36295 1.73855 7.20924 1 8.20921 1H37.8079C38.8082 1 39.6546 1.73903 39.7896 2.73019L44.691 38.7302C44.8544 39.9309 43.9211 41 42.7092 41H3.29176C2.07961 41 1.14611 39.9303 1.31017 38.7293L6.22761 2.72932Z" stroke="#3761E9" stroke-width="2"/>
<path class="fill-theme-svg" opacity="0.1" d="M18.8536 14.7274C18.9898 13.7375 19.8357 13 20.8349 13H48.1809C49.1805 13 50.0266 13.738 50.1624 14.7282L54.6884 47.7282C54.8532 48.9296 53.9196 50 52.707 50H16.2941C15.0811 50 14.1474 48.929 14.3127 47.7274L18.8536 14.7274Z" fill="#3761E9"/>
<path class="stroke-theme-svg" d="M30 11V17C30 20.866 26.866 24 23 24V24C19.134 24 16 20.866 16 17V11" stroke="#3761E9" stroke-width="2" stroke-linecap="round"/>
</svg>
