<svg width="39" height="39" viewBox="0 0 39 39" fill="none" xmlns="http://www.w3.org/2000/svg">
<circle opacity="0.1" cx="22.5" cy="22.5" r="16.5" fill="#3761E9"/>
<circle cx="17" cy="17" r="16" stroke="#3761E9" fill="none" class="stroke-theme-svg no-fill" stroke-width="2"/>
<path fill-rule="evenodd" clip-rule="evenodd" d="M13 2H11V17C11 20.3137 13.6863 23 17 23C20.3137 23 23 20.3137 23 17C23 13.6863 20.3137 11 17 11H17H16C15.4477 11 15 11.4477 15 12C15 12.5523 15.4477 13 16 13H17H17C19.2091 13 21 14.7909 21 17C21 19.2091 19.2091 21 17 21C14.7909 21 13 19.2091 13 17V2ZM7 4H9V10.999V17V18H9.06189C9.55399 21.9463 12.9204 25 17 25C21.4183 25 25 21.4183 25 17C25 12.5817 21.4183 9 17 9H16C15.4477 9 15 8.55228 15 8C15 7.44772 15.4477 7 16 7H17C22.5228 7 27 11.4772 27 17C27 22.5228 22.5228 27 17 27C11.4772 27 7 22.5228 7 17V4Z" fill="#3761E9"/>
</svg>
