<svg width="19" height="22" viewBox="0 0 19 22" fill="none" xmlns="http://www.w3.org/2000/svg">
<path fill-rule="evenodd" clip-rule="evenodd" d="M3 20H16C16.5523 20 17 19.5523 17 19L17 3C17 2.44772 16.5523 2 16 2L3 2C2.44772 2 2 2.44772 2 3L2 19C2 19.5523 2.44772 20 3 20ZM16 22C17.6569 22 19 20.6569 19 19L19 3C19 1.34315 17.6569 -1.44847e-07 16 0L3 1.1365e-06C1.34315 1.28134e-06 -1.44847e-07 1.34315 0 3L1.39876e-06 19C1.54361e-06 20.6569 1.34315 22 3 22L16 22Z" fill="#999999"/>
<path d="M4 6C4 5.44771 4.44771 5 5 5H14C14.5523 5 15 5.44771 15 6C15 6.55228 14.5523 7 14 7H5C4.44771 7 4 6.55228 4 6Z" fill="#999999"/>
<path d="M7 10C7 9.44772 7.44771 9 8 9C8.55228 9 9 9.44772 9 10C9 10.5523 8.55228 11 8 11C7.44771 11 7 10.5523 7 10Z" fill="#999999"/>
<path d="M4 10C4 9.44772 4.44771 9 5 9C5.55228 9 6 9.44772 6 10C6 10.5523 5.55228 11 5 11C4.44771 11 4 10.5523 4 10Z" fill="#999999"/>
<path d="M7 13C7 12.4477 7.44771 12 8 12C8.55228 12 9 12.4477 9 13C9 13.5523 8.55228 14 8 14C7.44771 14 7 13.5523 7 13Z" fill="#999999"/>
<path d="M4 13C4 12.4477 4.44771 12 5 12C5.55228 12 6 12.4477 6 13C6 13.5523 5.55228 14 5 14C4.44771 14 4 13.5523 4 13Z" fill="#999999"/>
<path d="M7 16C7 15.4477 7.44771 15 8 15C8.55228 15 9 15.4477 9 16C9 16.5523 8.55228 17 8 17C7.44771 17 7 16.5523 7 16Z" fill="#999999"/>
<path d="M4 16C4 15.4477 4.44771 15 5 15C5.55228 15 6 15.4477 6 16C6 16.5523 5.55228 17 5 17C4.44771 17 4 16.5523 4 16Z" fill="#999999"/>
<path d="M10 10C10 9.44772 10.4477 9 11 9C11.5523 9 12 9.44772 12 10C12 10.5523 11.5523 11 11 11C10.4477 11 10 10.5523 10 10Z" fill="#999999"/>
<path d="M10 13C10 12.4477 10.4477 12 11 12C11.5523 12 12 12.4477 12 13C12 13.5523 11.5523 14 11 14C10.4477 14 10 13.5523 10 13Z" fill="#999999"/>
<path d="M10 16C10 15.4477 10.4477 15 11 15C11.5523 15 12 15.4477 12 16C12 16.5523 11.5523 17 11 17C10.4477 17 10 16.5523 10 16Z" fill="#999999"/>
<path d="M13 10C13 9.44772 13.4477 9 14 9C14.5523 9 15 9.44772 15 10C15 10.5523 14.5523 11 14 11C13.4477 11 13 10.5523 13 10Z" fill="#999999"/>
<path d="M13 13C13 12.4477 13.4477 12 14 12C14.5523 12 15 12.4477 15 13V16C15 16.5523 14.5523 17 14 17C13.4477 17 13 16.5523 13 16V13Z" fill="#999999"/>
</svg>
