<svg width="0" height="0" class="hidden" xmlns="http://www.w3.org/2000/svg">
    <symbol id="audio" xmlns="http://www.w3.org/2000/svg" viewBox="0 0 22 18" fill="none" width="22" height="18">
        <path d="M1 3C1 1.89543 1.89543 1 3 1H19C20.1046 1 21 1.89543 21 3V15C21 16.1046 20.1046 17 19 17H3C1.89543 17 1 16.1046 1 15V3Z" stroke="var(--svg-fill-color)" stroke-width="2"/>
        <path d="M4 10C4 10.5523 4.44772 11 5 11C5.55228 11 6 10.5523 6 10L4 10ZM6 8C6 7.44772 5.55228 7 5 7C4.44772 7 4 7.44772 4 8L6 8ZM6 10L6 8L4 8L4 10L6 10Z" fill="var(--svg-fill-color)"/>
        <path d="M14 10C14 10.5523 13.5523 11 13 11C12.4477 11 12 10.5523 12 10L14 10ZM12 8C12 7.44772 12.4477 7 13 7C13.5523 7 14 7.44772 14 8L12 8ZM12 10L12 8L14 8L14 10L12 10Z" fill="var(--svg-fill-color)"/>
        <path d="M16 7C16 6.44772 16.4477 6 17 6C17.5523 6 18 6.44772 18 7L16 7ZM18 11C18 11.5523 17.5523 12 17 12C16.4477 12 16 11.5523 16 11L18 11ZM18 7L18 11L16 11L16 7L18 7Z" fill="var(--svg-fill-color)"/>
        <path d="M10 5C10 4.44772 9.55228 4 9 4C8.44772 4 8 4.44772 8 5L10 5ZM8 13C8 13.5523 8.44772 14 9 14C9.55228 14 10 13.5523 10 13L8 13ZM8 5L8 13L10 13L10 5L8 5Z" fill="var(--svg-fill-color)"/>
    </symbol>
    <symbol id="photo" xmlns="http://www.w3.org/2000/svg" viewBox="0 0 22 18" fill="none" width="22" height="18">
        <rect x="1" y="1" width="20" height="16" rx="2" stroke="var(--svg-fill-color)" stroke-width="2"/>
        <circle cx="7" cy="6" r="2" stroke="var(--svg-fill-color)" stroke-width="2"/>
        <path d="M1 8.75L5.70079 12.0336C6.90998 12.8783 8.55377 12.7187 9.57783 11.6571L14.6587 6.3904C15.4069 5.61484 16.635 5.5715 17.436 6.29239L21 9.5" stroke="var(--svg-fill-color)" stroke-width="2"/>
    </symbol>
    <symbol id="video" xmlns="http://www.w3.org/2000/svg" viewBox="0 0 22 18" fill="none" width="22" height="18">
        <rect x="1" y="1" width="20" height="16" rx="2" stroke="var(--svg-fill-color)" stroke-width="2"/>
        <path d="M16 12C15.4477 12 15 12.4477 15 13C15 13.5523 15.4477 14 16 14V12ZM17 14C17.5523 14 18 13.5523 18 13C18 12.4477 17.5523 12 17 12V14ZM16 14H17V12H16V14Z" fill="var(--svg-fill-color)"/>
        <path d="M16 8C15.4477 8 15 8.44772 15 9C15 9.55228 15.4477 10 16 10V8ZM17 10C17.5523 10 18 9.55228 18 9C18 8.44772 17.5523 8 17 8V10ZM16 10H17V8H16V10Z" fill="var(--svg-fill-color)"/>
        <path d="M16 4C15.4477 4 15 4.44772 15 5C15 5.55228 15.4477 6 16 6V4ZM17 6C17.5523 6 18 5.55228 18 5C18 4.44772 17.5523 4 17 4V6ZM16 6H17V4H16V6Z" fill="var(--svg-fill-color)"/>
        <path d="M5 12C4.44772 12 4 12.4477 4 13C4 13.5523 4.44772 14 5 14V12ZM6 14C6.55228 14 7 13.5523 7 13C7 12.4477 6.55228 12 6 12V14ZM5 14H6V12H5V14Z" fill="var(--svg-fill-color)"/>
        <path d="M5 8C4.44772 8 4 8.44772 4 9C4 9.55228 4.44772 10 5 10V8ZM6 10C6.55228 10 7 9.55228 7 9C7 8.44772 6.55228 8 6 8V10ZM5 10H6V8H5V10Z" fill="var(--svg-fill-color)"/>
        <path d="M5 4C4.44772 4 4 4.44772 4 5C4 5.55228 4.44772 6 5 6V4ZM6 6C6.55228 6 7 5.55228 7 5C7 4.44772 6.55228 4 6 4V6ZM5 6H6V4H5V6Z" fill="var(--svg-fill-color)"/>
    </symbol>
</svg>