<svg width="18" height="16" viewBox="0 0 18 16" fill="none" xmlns="http://www.w3.org/2000/svg">
<path fill-rule="evenodd" clip-rule="evenodd" d="M4 0C1.79086 0 0 1.79086 0 4V12C0 14.2091 1.79086 16 4 16H14C16.2091 16 18 14.2091 18 12V4C18 1.79086 16.2091 0 14 0H4ZM2.05092 3.54958C2.25522 2.66192 3.05031 2 4 2H14C14.9497 2 15.7448 2.66192 15.9491 3.54958L9 7.82594L2.05092 3.54958ZM2 5.86661V12C2 13.1046 2.89543 14 4 14H14C15.1046 14 16 13.1046 16 12V5.86661L10.0482 9.52925C9.40538 9.92483 8.59462 9.92483 7.95181 9.52925L2 5.86661Z" fill="#888888"/>
</svg>