<svg class="eyed-hidden" width="20" height="18" viewBox="0 0 20 18" fill="none" xmlns="http://www.w3.org/2000/svg">
	<path fill-rule="evenodd" clip-rule="evenodd" d="M4.5 16C5.88071 16 7 14.8807 7 13.5C7 12.1193 5.88071 11 4.5 11C3.11929 11 2 12.1193 2 13.5C2 14.8807 3.11929 16 4.5 16ZM4.5 18C6.98528 18 9 15.9853 9 13.5C9 11.0147 6.98528 9 4.5 9C2.01472 9 0 11.0147 0 13.5C0 15.9853 2.01472 18 4.5 18Z" fill="#888888"/>
	<path fill-rule="evenodd" clip-rule="evenodd" d="M15.5 16C16.8807 16 18 14.8807 18 13.5C18 12.1193 16.8807 11 15.5 11C14.1193 11 13 12.1193 13 13.5C13 14.8807 14.1193 16 15.5 16ZM15.5 18C17.9853 18 20 15.9853 20 13.5C20 11.0147 17.9853 9 15.5 9C13.0147 9 11 11.0147 11 13.5C11 15.9853 13.0147 18 15.5 18Z" fill="#888888"/>
	<path fill-rule="evenodd" clip-rule="evenodd" d="M12 14H8V12H12V14Z" fill="#888888"/>
	<path fill-rule="evenodd" clip-rule="evenodd" d="M5 2C3.34315 2 2 3.34315 2 5V13H0V5C0 2.23858 2.23858 0 5 0H6C6.55228 0 7 0.447715 7 1C7 1.55228 6.55228 2 6 2H5Z" fill="#888888"/>
	<path fill-rule="evenodd" clip-rule="evenodd" d="M15 2C16.6569 2 18 3.34315 18 5V13H20V5C20 2.23858 17.7614 0 15 0H14C13.4477 0 13 0.447715 13 1C13 1.55228 13.4477 2 14 2H15Z" fill="#888888"/>
</svg>
<svg class="not-eyed-hidden" width="24" height="20" viewBox="0 0 24 20" fill="none" xmlns="http://www.w3.org/2000/svg">
    <path fill-rule="evenodd" clip-rule="evenodd" d="M4.5 18C5.88071 18 7 16.8807 7 15.5C7 14.1193 5.88071 13 4.5 13C3.11929 13 2 14.1193 2 15.5C2 16.8807 3.11929 18 4.5 18ZM4.5 20C6.98528 20 9 17.9853 9 15.5C9 13.0147 6.98528 11 4.5 11C2.01472 11 0 13.0147 0 15.5C0 17.9853 2.01472 20 4.5 20Z" fill="#888888"/>
    <path fill-rule="evenodd" clip-rule="evenodd" d="M15.5 18C16.8807 18 18 16.8807 18 15.5C18 14.1193 16.8807 13 15.5 13C14.1193 13 13 14.1193 13 15.5C13 16.8807 14.1193 18 15.5 18ZM15.5 20C17.9853 20 20 17.9853 20 15.5C20 13.0147 17.9853 11 15.5 11C13.0147 11 11 13.0147 11 15.5C11 17.9853 13.0147 20 15.5 20Z" fill="#888888"/>
    <path fill-rule="evenodd" clip-rule="evenodd" d="M12 16H8V14H12V16Z" fill="#888888"/>
    <path fill-rule="evenodd" clip-rule="evenodd" d="M5 4C3.34315 4 2 5.34315 2 7V15H0V7C0 4.23858 2.23858 2 5 2H6C6.55228 2 7 2.44772 7 3C7 3.55228 6.55228 4 6 4H5Z" fill="#888888"/>
    <path class="not-eyed-hidden" fill-rule="evenodd" clip-rule="evenodd" d="M19 8C18.4477 8 18 8.44772 18 9V16H20V9C20 8.44772 19.5523 8 19 8Z" fill="#888888"/>
    <path class="fill-more-theme not-eyed-hidden" fill-rule="evenodd" clip-rule="evenodd" d="M23.7071 0.295335C24.0976 0.685859 24.0976 1.31902 23.7071 1.70955L19.7071 5.70955C19.3166 6.10007 18.6834 6.10007 18.2929 5.70955L16.2929 3.70955C15.9024 3.31902 15.9024 2.68586 16.2929 2.29533C16.6834 1.90481 17.3166 1.90481 17.7071 2.29533L19 3.58823L22.2929 0.295335C22.6834 -0.0951898 23.3166 -0.0951898 23.7071 0.295335Z" fill="#888888"/>
</svg>