<svg width="12" height="16" viewBox="0 0 12 16" fill="none" xmlns="http://www.w3.org/2000/svg">
<path d="M7 1C7 0.447715 6.55228 0 6 0C5.44772 0 5 0.447715 5 1V8.58579L2.70711 6.29289C2.31658 5.90237 1.68342 5.90237 1.29289 6.29289C0.902369 6.68342 0.902369 7.31658 1.29289 7.70711L5.29289 11.7071C5.68342 12.0976 6.31658 12.0976 6.70711 11.7071L10.7071 7.70711C11.0976 7.31658 11.0976 6.68342 10.7071 6.29289C10.3166 5.90237 9.68342 5.90237 9.29289 6.29289L7 8.58579V1Z" fill="#B8B8B8"/>
<path d="M1 14C0.447715 14 0 14.4477 0 15C0 15.5523 0.447715 16 1 16H11C11.5523 16 12 15.5523 12 15C12 14.4477 11.5523 14 11 14H1Z" fill="#B8B8B8"/>
</svg>
