<svg width="63" height="45" viewBox="0 0 63 45" fill="none" xmlns="http://www.w3.org/2000/svg">
<path class="stroke-theme-svg" d="M18.0537 28.5766L2.19196 23.617C1.76131 23.4823 1.71524 22.8911 2.11983 22.6914L45.3349 1.35613C45.6672 1.19207 46.0562 1.43388 46.0562 1.80447V36.7049C46.0562 37.0442 45.7255 37.2849 45.4026 37.1807L28.4206 31.6974C28.1993 31.626 27.958 31.7165 27.8383 31.9158L22.9849 39.998C22.7239 40.4327 22.0562 40.2476 22.0562 39.7406V28.4514C22.0562 28.3188 22.1089 28.1916 22.2027 28.0978L35.0562 15.2443" stroke="#3761E9" stroke-width="2" stroke-linecap="round"/>
<circle cx="49.0562" cy="32" r="13" fill="white" class="fill_card_bg_hover_black"/>
<circle class="fill-theme-svg stroke-theme-svg" cx="49.0562" cy="32" r="10" fill="#3761E9" fill-opacity="0.07" stroke="#3761E9" stroke-width="2"/>
<path class="fill-theme-svg" d="M45.7633 31.2929C45.3727 30.9024 44.7396 30.9024 44.349 31.2929C43.9585 31.6834 43.9585 32.3166 44.349 32.7071L45.7633 31.2929ZM48.0562 35L47.349 35.7071C47.7396 36.0976 48.3727 36.0976 48.7633 35.7071L48.0562 35ZM53.7633 30.7071C54.1538 30.3166 54.1538 29.6834 53.7633 29.2929C53.3727 28.9024 52.7396 28.9024 52.349 29.2929L53.7633 30.7071ZM44.349 32.7071L47.349 35.7071L48.7633 34.2929L45.7633 31.2929L44.349 32.7071ZM48.7633 35.7071L53.7633 30.7071L52.349 29.2929L47.349 34.2929L48.7633 35.7071Z" fill="#3761E9"/>
</svg>
