<svg width="18" height="19" viewBox="0 0 18 19" fill="none" xmlns="http://www.w3.org/2000/svg">
<path fill-rule="evenodd" clip-rule="evenodd" d="M0 7.00244C0 3.13645 3.13401 0.00244141 7 0.00244141H11C14.866 0.00244141 18 3.13645 18 7.00244V11.0024C18 14.8684 14.866 18.0024 11 18.0024H7C3.13401 18.0024 0 14.8684 0 11.0024V7.00244ZM7 2.00244C4.23858 2.00244 2 4.24102 2 7.00244V11.0024C2 12.2874 2.48473 13.4592 3.28131 14.3449C3.81254 12.8325 5.05024 11.6528 6.59842 11.2015C5.62776 10.4717 5 9.31039 5 8.00244C5 5.7933 6.79086 4.00244 9 4.00244C11.2091 4.00244 13 5.7933 13 8.00244C13 9.31039 12.3722 10.4717 11.4016 11.2015C12.9498 11.6528 14.1875 12.8325 14.7187 14.3449C15.5153 13.4592 16 12.2874 16 11.0024V7.00244C16 4.24102 13.7614 2.00244 11 2.00244H7ZM7 16.0024C6.29934 16.0024 5.63233 15.8583 5.02702 15.5981C5.22447 14.1325 6.48027 13.0024 8 13.0024H10C11.5197 13.0024 12.7755 14.1325 12.973 15.5981C12.3677 15.8583 11.7007 16.0024 11 16.0024H7ZM7 8.00244C7 6.89787 7.89543 6.00244 9 6.00244C10.1046 6.00244 11 6.89787 11 8.00244C11 9.10701 10.1046 10.0024 9 10.0024C7.89543 10.0024 7 9.10701 7 8.00244Z" fill="#888888"/>
</svg>