<svg xmlns="http://www.w3.org/2000/svg" width="44" height="55" viewBox="0 0 44 55">
  <defs>
    <style>
      .cls-1, .cls-3 {
        fill: #fff;
      }

      .cls-1, .cls-2 {
        fill-rule: evenodd;
      }

      .cls-1 {
        opacity: 0.75;
      }

      .cls-2 {
        fill: #ff6307;
      }
    </style>
  </defs>
  <path class="cls-1" d="M44,23.051c0,15.949-22,31.938-22,31.938S0.009,39,.009,23.051c0-.147.019-0.29,0.022-0.436C0.025,22.409,0,22.208,0,22A22,22,0,0,1,19.627.132,19.174,19.174,0,0,1,24.5.152,22,22,0,0,1,44,22c0,0.172-.022.338-0.026,0.509S44,22.869,44,23.051Z"/>
  <path data-name="Shape" class="cls-2" d="M42,23.393c0,13.424-20,29.6-20,29.6s-20-16.174-20-29.6c0-.209.024-0.414,0.03-0.623C2.029,22.513,2,22.26,2,22a20,20,0,0,1,40,0c0,0.227-.026.448-0.034,0.673C41.974,22.914,42,23.151,42,23.393Z"/>
  <circle data-name="Shape" class="cls-3" cx="22" cy="22" r="11"/>
</svg>
