<svg width="0" height="0" class="hidden" xmlns="http://www.w3.org/2000/svg">
  <symbol xmlns="http://www.w3.org/2000/svg" viewBox="0 0 50 50" id="elements">
    <path d="M44 12H32a6 6 0 010-12h12a6 6 0 010 12zm0-10H32a4 4 0 100 8h12a4 4 0 100-8zm0 5H32a1 1 0 010-2h12a1 1 0 010 2zm-26 5H6A6 6 0 016 0h12a6 6 0 010 12zm0-10H6a4 4 0 100 8h12a4 4 0 100-8zm0 5H6a1 1 0 010-2h12a1 1 0 010 2zM5 16h40a3 3 0 013 3v12a2.954 2.954 0 000 4v12a3 3 0 01-3 3H5a3 3 0 01-3-3V35a2.954 2.954 0 000-4V19a3 3 0 013-3zM4 47a1 1 0 001 1h40a1 1 0 001-1V35a1 1 0 00-1-1H5a1 1 0 00-1 1v12zm0-16a1 1 0 001 1h40a1 1 0 001-1V19a1 1 0 00-1-1H5a1 1 0 00-1 1v12zm6-7h17a1 1 0 110 2H10a1 1 0 110-2zm25.69-.711l1.31 1.3 1.28-1.3a1.009 1.009 0 011.41 0 .97.97 0 010 1.388l-1.98 2.022a1.021 1.021 0 01-1.42 0v-.006l-2.01-2a.98.98 0 010-1.4 1 1 0 011.41-.004zM10 40h17a1 1 0 010 2H10a1 1 0 010-2zm25.69-.71l1.31 1.3 1.28-1.3a1.009 1.009 0 011.41 0 .97.97 0 010 1.388L37.71 42.7a1.019 1.019 0 01-1.42 0v-.006l-2.01-2a.98.98 0 010-1.4 1 1 0 011.41-.005z"  fill-rule="evenodd"></path>
    <path d="M6 20h41v13H6V20zm0 16h41v13H6V36zM7 4h13a3 3 0 110 6H7a3 3 0 110-6zm26 0h13a3 3 0 110 6H33a3 3 0 110-6z" opacity=".1"  fill-rule="evenodd"></path>
  </symbol>
  <symbol xmlns="http://www.w3.org/2000/svg" viewBox="0 0 50 50" id="icons">
    <path d="M25 50a25 25 0 1125-25 25 25 0 01-25 25zm0-48a23 23 0 1023 23A23 23 0 0025 2zm10.68 30.526a14.984 14.984 0 01-21.36 0l.01-.012a.989.989 0 01-.33-.733 1 1 0 011-1 .974.974 0 01.72.316 12.984 12.984 0 0018.56 0 .974.974 0 01.72-.316 1 1 0 011 1 .991.991 0 01-.33.734zM33 22a2 2 0 112-2 2 2 0 01-2 2zm-16 0a2 2 0 112-2 2 2 0 01-2 2z" fill-rule="evenodd" ></path>
    <circle cx="27.5" cy="27.5" r="20.5" opacity=".1" ></circle>
  </symbol>
  <symbol xmlns="http://www.w3.org/2000/svg" viewBox="0 0 50 50" id="buttons">
    <path d="M35.989 19v-8h1.236l.851 2.321.488 1.459h.052V11H40v8h-1.2l-.848-2.332-.5-1.516H37.4V19h-1.412zM13.5 15.08a1.4 1.4 0 01.287.4 1.832 1.832 0 01.154.488 3.116 3.116 0 01.046.54 2.706 2.706 0 01-.561 1.89 2.172 2.172 0 01-1.672.6H9.99v-8h1.8a2.1 2.1 0 011.6.563 2.341 2.341 0 01.532 1.666 2.247 2.247 0 01-.051.477 1.852 1.852 0 01-.155.442 1.317 1.317 0 01-.269.368 1.063 1.063 0 01-.4.241v.058a1.163 1.163 0 01.453.267zm-1.242-2.43a.81.81 0 00-.55-.155h-.161v1.585h.2a.664.664 0 00.687-.8.849.849 0 00-.179-.63zm.074 3.074a.619.619 0 00-.5-.2h-.287V17.5h.275a.628.628 0 00.35-.087.589.589 0 00.206-.237 1.046 1.046 0 00.1-.346 3.775 3.775 0 00.023-.428 1.071 1.071 0 00-.17-.678zM45 30h-6.055l-3.57-2H45a3 3 0 003-3V5a3 3 0 00-3-3H5a3 3 0 00-3 3v20a3 3 0 003 3h12v2H5a5 5 0 01-5-5V5a5 5 0 015-5h40a5 5 0 015 5v20a5 5 0 01-5 5zM14.986 17v-5.984h1.534v6.018a.464.464 0 00.135.382.507.507 0 00.327.108.483.483 0 00.321-.108.473.473 0 00.13-.382v-6.018h1.556V17a2.024 2.024 0 01-.507 1.516 2.08 2.08 0 01-1.5.49A1.769 1.769 0 0114.986 17zm6.37 2v-6.5h-1.362V11h4.454v1.5h-1.361V19h-1.731zm5.546 0v-6.5h-1.361V11H30v1.5h-1.362V19H26.9zm4.1-1.985v-4.037a1.928 1.928 0 01.53-1.5 2.555 2.555 0 012.982 0 2.022 2.022 0 01.491 1.5v4.037a2 2 0 01-.508 1.5A2.088 2.088 0 0133 19a1.762 1.762 0 01-2-1.988zm2.447.069v-4.163a.425.425 0 00-.451-.486.49.49 0 00-.327.114.456.456 0 00-.136.372v4.163a.456.456 0 00.136.378.507.507 0 00.327.108.487.487 0 00.321-.108.471.471 0 00.132-.381zm-12.472 4.879a.967.967 0 01.247.049c.024 0 .048.007.072.014a.962.962 0 01.233.123.948.948 0 01.1.052l17.95 12.444c.006 0 .008.011.014.016a1.072 1.072 0 01.124.151.923.923 0 01.12.161.109.109 0 01.013.017.9.9 0 01.039.153 1.01 1.01 0 01.05.2.962.962 0 01-.02.221 1.017 1.017 0 01-.023.155.992.992 0 01-.132.249.714.714 0 01-.043.082l-.01.008a.985.985 0 01-.213.175.848.848 0 01-.1.073c-.009 0-.014.013-.023.017l-4.391 2.145 3.158 6.65a1 1 0 01-.472 1.333l-7.467 3.444a1 1 0 01-1.333-.473l-2.932-6.629-4.487 2.14a.983.983 0 01-.442.088.3.3 0 01-.032.007.986.986 0 01-.231-.046c-.022-.006-.045 0-.066-.013a.986.986 0 01-.7-.936V22.966a1 1 0 01.999-1.006zm5.032 18.582a1 1 0 011.333.472l2.937 6.642 5.626-2.6-3.148-6.63a1 1 0 01.472-1.333l3.751-1.832-15-10.4v17.6z"  fill-rule="evenodd"></path>
    <path d="M23.971 42.93l.047-18.01 13.607 10.207-3.644 2.824 3.4 6.852-6.941 3.542-3.027-6.8z" opacity=".1"  fill-rule="evenodd"></path>
  </symbol>
  <symbol xmlns="http://www.w3.org/2000/svg" viewBox="0 0 50.031 50" id="decoration">
    <path d="M49 16h-3a1 1 0 01-1-1 9 9 0 00-9-9h-6v35a3 3 0 003 3l4 .485h1a1 1 0 011 1V49a1 1 0 01-1 1H12a1 1 0 01-1-1v-3.519a1 1 0 011-1h1l4-.485a3 3 0 003-3.006V6h-6a9 9 0 00-9 9 1 1 0 01-1 1H1a1 1 0 01-1-1V1a1 1 0 011-1h48a1 1 0 011 1v14a1 1 0 01-1 1zM48 2H2v12h1.05A11 11 0 0114 4h7a1 1 0 011 1v35.988a5.005 5.005 0 01-5 5.01l-4 .485V48h24v-1.515L33 46a5 5 0 01-5-5V5a1 1 0 011-1h7a11 11 0 0110.95 10H48V2z"  fill-rule="evenodd"></path>
    <path d="M33 45l-2-1-2-2V11.01h15.91l1.707 3.658 3.408.3v10.04H47.6a19.013 19.013 0 00-1.211-3.231 11.058 11.058 0 00-1.752-2.874 16.633 16.633 0 00-2.406-2.39 4.927 4.927 0 00-2.414-1.242 11.008 11.008 0 00-1.748-.211c-1.1-.047-.814-.071-1.753-.071h-1.327v26.968a4.618 4.618 0 00.492 2.127 3.272 3.272 0 001.723 1.494 20.6 20.6 0 002.654.668 29.757 29.757 0 004.136.457v3.305h-26V49H38v-3zM17.394 19a11.42 11.42 0 00-1.668 2.847 24.944 24.944 0 00-1.257 3.161h-2.461v-14H21v4.684a6.46 6.46 0 00-1.205.818A16.462 16.462 0 0017.394 19z" opacity=".1"  fill-rule="evenodd"></path>
  </symbol>
</svg>