<svg xmlns="http://www.w3.org/2000/svg" width="47" height="55" viewBox="0 0 47 55">
  <defs>
    <style>
      .oscls-1 {
        fill: #222;
        fill-rule: evenodd;
      }
    </style>
  </defs>
  <path class="oscls-1" d="M34.5,55A12.5,12.5,0,1,1,47,42.5,12.5,12.5,0,0,1,34.5,55Zm0-23A10.5,10.5,0,1,0,45,42.5,10.5,10.5,0,0,0,34.5,32ZM33.757,46.647c-0.018.021-.024,0.047-0.044,0.066a1.026,1.026,0,0,1-1.427,0c-0.02-.02-0.026-0.046-0.044-0.066l-3.956-3.956a0.993,0.993,0,0,1,1.4-1.4L33,44.6l6.309-6.309a0.993,0.993,0,0,1,1.4,1.4ZM41,28a1,1,0,0,1-1-1V5H32.859A3.991,3.991,0,0,1,29,8H13A3.991,3.991,0,0,1,9.141,5H2V48H19a1,1,0,0,1,0,2H2a2,2,0,0,1-2-2V5A2,2,0,0,1,2,3H9.141A3.991,3.991,0,0,1,13,0H29a3.991,3.991,0,0,1,3.859,3H40a2,2,0,0,1,2,2V27A1,1,0,0,1,41,28ZM29,2H13a2,2,0,0,0,0,4H29A2,2,0,0,0,29,2Zm2,24H11a1,1,0,0,1,0-2H31A1,1,0,0,1,31,26Zm0-10H11a1,1,0,0,1,0-2H31A1,1,0,0,1,31,16Zm0,5H11a1,1,0,0,1,0-2H31A1,1,0,0,1,31,21ZM10,30a1,1,0,0,1,1-1H21a1,1,0,0,1,0,2H11A1,1,0,0,1,10,30Z"/>
</svg>
