<svg width="39" height="46" viewBox="0 0 39 46" fill="none" xmlns="http://www.w3.org/2000/svg">
<path d="M10 13C10 11.3431 11.3431 10 13 10H36C37.6569 10 39 11.3431 39 13V43C39 44.6569 37.6569 46 36 46H13C11.3431 46 10 44.6569 10 43V13Z" class="fill-theme-svg" opacity="0.1"/>
<path d="M1 4C1 2.34315 2.34315 1 4 1H30C31.6569 1 33 2.34315 33 4V37C33 38.6569 31.6569 40 30 40H4C2.34315 40 1 38.6569 1 37V4Z" stroke-width="2"/>
<path d="M9 9H22" stroke-width="2" stroke-linecap="round" stroke-linejoin="round"/>
<path d="M9 17H25" stroke-width="2" stroke-linecap="round" stroke-linejoin="round"/>
<path d="M9 22H25" stroke-width="2" stroke-linecap="round" stroke-linejoin="round"/>
<path d="M9 27H25" stroke-width="2" stroke-linecap="round" stroke-linejoin="round"/>
<path d="M9 32H16" stroke-width="2" stroke-linecap="round" stroke-linejoin="round"/>
</svg>
