<svg width="1276" height="320" viewBox="0 0 1276 320" fill="none" xmlns="http://www.w3.org/2000/svg">
<path opacity="0.4" fill-rule="evenodd" clip-rule="evenodd" d="M13 254V251C13 250.735 13.1054 250.48 13.2929 250.293C13.4804 250.105 13.7348 250 14 250C14.2652 250 14.5196 250.105 14.7071 250.293C14.8946 250.48 15 250.735 15 251V254H13ZM10 254V249C10 248.735 10.1054 248.48 10.2929 248.293C10.4804 248.105 10.7348 248 11 248C11.2652 248 11.5196 248.105 11.7071 248.293C11.8946 248.48 12 248.735 12 249V254H10ZM7 254V251C7 250.735 7.10536 250.48 7.29289 250.293C7.48043 250.105 7.73478 250 8 250C8.26522 250 8.51957 250.105 8.70711 250.293C8.89464 250.48 9 250.735 9 251V254H7ZM4 254V253C4 252.735 4.10536 252.48 4.29289 252.293C4.48043 252.105 4.73478 252 5 252C5.26522 252 5.51957 252.105 5.70711 252.293C5.89464 252.48 6 252.735 6 253V254H4Z" fill="#999999"/>
<path fill-rule="evenodd" clip-rule="evenodd" d="M17 264V257C17 256.735 16.8946 256.48 16.7071 256.293C16.5196 256.105 16.2652 256 16 256C15.7348 256 15.4804 256.105 15.2929 256.293C15.1054 256.48 15 256.735 15 257V260.051C14.8348 260.022 14.6677 260.005 14.5 260C13.5717 260 12.6815 260.369 12.0251 261.025C11.3688 261.681 11 262.572 11 263.5C11.0059 263.668 11.0246 263.835 11.056 264H0V254H20V264H17ZM5 257C4.60444 257 4.21775 257.117 3.88885 257.337C3.55996 257.557 3.30361 257.869 3.15224 258.235C3.00086 258.6 2.96127 259.002 3.03844 259.39C3.11561 259.778 3.30608 260.135 3.58578 260.414C3.86549 260.694 4.22186 260.884 4.60982 260.962C4.99778 261.039 5.39991 260.999 5.76537 260.848C6.13082 260.696 6.44317 260.44 6.66293 260.111C6.8827 259.782 7 259.396 7 259C7 258.47 6.78929 257.961 6.41422 257.586C6.03914 257.211 5.53043 257 5 257Z" fill="#999999"/>
<path opacity="0.5" d="M5 261C6.10457 261 7 260.105 7 259C7 257.895 6.10457 257 5 257C3.89543 257 3 257.895 3 259C3 260.105 3.89543 261 5 261Z" fill="#999999"/>
<path opacity="0.4" fill-rule="evenodd" clip-rule="evenodd" d="M17 264.937C16.4192 265.873 15.6094 266.645 14.647 267.181C13.6847 267.717 12.6015 267.999 11.5 268H10.5C9.21674 268 7.96219 267.62 6.89445 266.908C5.82672 266.196 4.99356 265.185 4.5 264H11.056C11.0246 263.835 11.0059 263.668 11 263.5C11 262.572 11.3688 261.681 12.0251 261.025C12.6815 260.369 13.5717 260 14.5 260C14.6677 260.005 14.8348 260.022 15 260.051V257C15 256.735 15.1054 256.48 15.2929 256.293C15.4804 256.105 15.7348 256 16 256C16.2652 256 16.5196 256.105 16.7071 256.293C16.8946 256.48 17 256.735 17 257V264.937Z" fill="#999999"/>
<path fill-rule="evenodd" clip-rule="evenodd" d="M69.108 264C69.108 264 68.878 262.6 68.801 262.248H65.483C65.391 262.523 64.932 264 64.932 264H62.225L66.064 254.844C66.1594 254.572 66.3447 254.34 66.5894 254.188C66.8341 254.035 67.1236 253.97 67.41 254.004H69.41L71.51 264.004H69.11L69.108 264ZM67.777 257.559L67.593 256.705C67.471 257.086 67.241 257.681 67.257 257.666C67.257 257.666 66.431 259.878 66.232 260.458H68.373C68.266 259.955 67.777 257.559 67.777 257.559V257.559ZM62.209 256.309C61.6043 256.036 60.9451 255.905 60.282 255.927C59.257 255.927 58.798 256.354 58.782 256.781C58.782 257.255 59.333 257.559 60.25 258.017C61.734 258.717 62.422 259.589 62.407 260.733C62.392 262.792 60.633 264.133 57.907 264.133C56.9238 264.136 55.9488 263.955 55.032 263.6L55.383 261.357L55.735 261.525C56.4861 261.895 57.3151 262.078 58.152 262.059C58.4874 262.124 58.8352 262.06 59.1249 261.879C59.4146 261.697 59.6244 261.412 59.712 261.082C59.712 260.64 59.376 260.319 58.366 259.831C57.387 259.359 56.087 258.565 56.102 257.131C56.118 255.194 57.907 253.831 60.462 253.831C61.2555 253.826 62.0432 253.966 62.787 254.242L62.435 256.409L62.209 256.309ZM50.829 264L52.451 254H55.036L53.415 264H50.829ZM44.604 264L42.597 256.472L42.44 255.861C42.7937 256.038 43.1287 256.25 43.44 256.494C44.3814 257.262 45.1863 258.184 45.821 259.22L45.813 259.177L45.863 259.436L46.139 260.809L48.673 254H51.411L47.342 264H44.6H44.604Z" fill="#999999"/>
<path opacity="0.35" fill-rule="evenodd" clip-rule="evenodd" d="M43.435 256.494C43.1237 256.25 42.7887 256.038 42.435 255.861L42.288 255.307C41.5577 254.877 40.7776 254.538 39.965 254.298V253.988H43.936C44.1741 253.989 44.4047 254.071 44.5894 254.221C44.7742 254.371 44.9018 254.58 44.951 254.813L45.811 259.22C45.1778 258.184 44.3746 257.263 43.435 256.494Z" fill="#999999"/>
<path fill-rule="evenodd" clip-rule="evenodd" d="M106 267H93C92.7348 267 92.4804 266.895 92.2929 266.707C92.1054 266.52 92 266.265 92 266V256.974C92.0001 256.667 92.1183 256.371 92.33 256.148L92.777 255.748L102.225 247.998L103 248V255L102.989 260.236L93.503 266.248L104.993 262.491L105 256H107V267H106ZM98.927 255.483C99.051 255.375 99.1966 255.295 99.3541 255.248C99.5116 255.201 99.6773 255.188 99.8401 255.211C100.003 255.233 100.159 255.29 100.298 255.378C100.437 255.465 100.556 255.582 100.646 255.719C100.765 256.053 100.761 256.417 100.637 256.749C100.512 257.08 100.275 257.357 99.966 257.53C99.8419 257.638 99.6962 257.718 99.5386 257.765C99.3811 257.812 99.2153 257.824 99.0525 257.802C98.8896 257.78 98.7334 257.723 98.5944 257.635C98.4553 257.548 98.3365 257.431 98.246 257.294C98.1275 256.96 98.1308 256.596 98.2555 256.264C98.3801 255.933 98.618 255.656 98.927 255.483V255.483Z" fill="#999999"/>
<path opacity="0.4" fill-rule="evenodd" clip-rule="evenodd" d="M103 256H105L104.993 262.491L93.503 266.248L102.989 260.236L103 256Z" fill="#999999"/>
<path fill-rule="evenodd" clip-rule="evenodd" d="M550 267C554.971 267 559 262.971 559 258C559 253.029 554.971 249 550 249C545.029 249 541 253.029 541 258C541 262.971 545.029 267 550 267ZM550 261.5C551.933 261.5 553.5 259.933 553.5 258C553.5 256.067 551.933 254.5 550 254.5C548.067 254.5 546.5 256.067 546.5 258C546.5 259.933 548.067 261.5 550 261.5Z" fill="#999999"/>
<path d="M541 252H534L537.733 264H541V252Z" fill="#999999"/>
<path fill-rule="evenodd" clip-rule="evenodd" d="M135.973 248.993C137.334 248.992 138.677 249.305 139.898 249.907C140.084 249.996 140.27 250.094 140.456 250.201L139.632 250.944L138.393 249.656L136.3 251.53L135.058 250.168L131.158 253.696L133.658 256.463L132.676 257.33L135.136 260.101L134.16 260.966L137.675 264.899L139.762 262.968L141.562 265.036C141.189 265.328 140.795 265.591 140.382 265.824C139.04 266.595 137.52 267 135.973 267C133.585 267 131.295 266.051 129.607 264.363C127.918 262.674 126.97 260.384 126.97 257.997C126.97 255.609 127.918 253.319 129.607 251.63C131.295 249.942 133.585 248.993 135.973 248.993ZM134.34 257.428L136.47 255.5L138.389 257.641L136.259 259.568L134.34 257.428V257.428ZM135.855 261.128L137.985 259.199L139.904 261.34L137.773 263.269L135.855 261.128ZM132.816 253.772L134.946 251.844L136.864 253.985L134.734 255.912L132.816 253.772V253.772ZM136.725 252.734L138.325 251.289L139.763 252.894L138.163 254.341L136.724 252.734H136.725ZM139.564 259.356L141.164 257.91L142.602 259.516L141.002 260.961L139.564 259.356V259.356ZM140.964 262.599L142.564 261.153L144.003 262.759L142.403 264.204L140.964 262.599V262.599ZM141.608 255.167L142.673 254.203L143.632 255.273L142.567 256.236L141.608 255.167ZM140.247 251.985L141.312 251.022L142.271 252.092L141.206 253.056L140.247 251.985V251.985ZM142.969 258.346L144.035 257.382L145 258.453L143.935 259.417L142.976 258.346H142.969ZM138.193 255.963L139.793 254.517L141.232 256.122L139.632 257.569L138.193 255.963Z" fill="#999999"/>
<path fill-rule="evenodd" clip-rule="evenodd" d="M181.593 263.383C181.451 262.652 181.072 261.989 180.513 261.497C180.319 261.309 180.099 261.151 179.86 261.026C179.738 260.955 179.61 260.895 179.478 260.846C179.137 260.7 178.766 260.639 178.397 260.668C178.685 260.564 178.992 260.525 179.297 260.554C179.557 260.591 179.812 260.651 180.061 260.734C180.261 260.845 180.468 260.957 180.669 261.071C181.115 259.493 181.028 257.812 180.422 256.288C179.933 254.995 179.138 253.839 178.104 252.92C177.055 251.939 175.753 251.27 174.345 250.989C173.526 250.83 172.684 250.838 171.868 251.012C171.177 251.193 170.528 251.505 169.955 251.931C169.424 252.357 168.975 252.874 168.627 253.459C168.524 253.601 168.434 253.751 168.357 253.908C168.288 254.078 168.21 254.241 168.132 254.402C167.702 255.564 167.565 256.813 167.732 258.04C167.831 258.806 168.035 259.554 168.34 260.263C168.504 260.578 168.653 260.908 168.834 261.205C169.014 261.493 169.209 261.771 169.42 262.037C169.869 262.537 170.375 262.982 170.928 263.362C172.195 264.22 173.676 264.71 175.205 264.776C175.206 264.668 175.183 264.56 175.137 264.462C175.11 264.354 175.1 264.23 175.069 264.125C175.04 263.872 175.04 263.616 175.069 263.362C175.122 263.401 175.162 263.456 175.182 263.519C175.208 263.573 175.247 263.619 175.295 263.653C175.354 263.763 175.421 263.868 175.495 263.968C175.645 264.162 175.819 264.335 176.013 264.484C176.401 264.8 176.833 265.058 177.296 265.247C177.819 265.467 178.374 265.602 178.94 265.647C179.54 265.728 180.121 265.83 180.672 265.961C181.174 266.106 181.658 266.309 182.113 266.567C182.331 266.687 182.542 266.821 182.743 266.967C182.849 267.031 182.947 267.106 183.036 267.192C183.154 267.239 183.206 267.351 183.328 267.392C183.685 267.718 184.017 268.071 184.32 268.448C184.464 268.655 184.592 268.873 184.702 269.1C184.784 269.19 184.808 269.338 184.882 269.437C184.913 269.495 184.931 269.56 184.934 269.626C184.938 269.692 184.928 269.757 184.904 269.819C184.737 269.843 184.771 269.667 184.704 269.594C184.641 269.511 184.588 269.421 184.546 269.325C184.282 269.048 184.046 268.745 183.758 268.494C183.48 268.233 183.179 267.999 182.858 267.794C182.189 267.327 181.442 266.985 180.652 266.783C179.722 266.528 178.755 266.437 177.794 266.513C177.342 266.563 176.896 266.661 176.465 266.805C176.012 266.905 175.553 266.98 175.092 267.03C173.283 267.123 171.477 266.784 169.825 266.042C169.11 265.725 168.443 265.31 167.844 264.807C167.543 264.571 167.264 264.308 167.012 264.021C166.754 263.74 166.527 263.431 166.336 263.1C166.118 262.769 165.923 262.424 165.751 262.067C165.589 261.68 165.454 261.282 165.346 260.877C165.204 260.44 165.114 259.988 165.076 259.53C165.068 259.395 165.007 259.135 165.008 258.924C165.018 258.902 165.026 258.879 165.031 258.856C164.998 258.64 164.998 258.421 165.031 258.205C165.034 257.729 165.087 257.255 165.188 256.79C165.267 256.362 165.38 255.942 165.526 255.532C165.66 255.132 165.837 254.766 165.998 254.388C166.107 254.226 166.189 254.039 166.291 253.872C166.377 253.695 166.506 253.562 166.584 253.372C166.649 253.301 166.709 253.227 166.764 253.148C166.799 253.048 166.892 253.006 166.921 252.901C166.995 252.838 167.056 252.762 167.101 252.676C167.176 252.615 167.237 252.538 167.281 252.452C167.55 252.188 167.79 251.896 168.069 251.644C168.348 251.392 168.66 251.155 168.948 250.903C169.13 250.816 169.262 250.678 169.442 250.588C169.579 250.463 169.779 250.4 169.915 250.274C170.272 250.082 170.639 249.91 171.015 249.757C171.395 249.587 171.786 249.445 172.186 249.331C173.102 249.079 174.05 248.965 174.999 248.994C175.038 248.994 175.057 248.955 175.066 248.994C176.777 249.02 178.444 249.541 179.866 250.494C181.121 251.329 182.131 252.484 182.792 253.84C183.569 255.467 183.829 257.293 183.535 259.072C183.342 260.288 182.897 261.451 182.229 262.485C182.14 262.652 182.034 262.811 181.914 262.957C181.873 263.039 181.82 263.114 181.757 263.181C181.73 263.221 181.699 263.258 181.667 263.294C181.664 263.305 181.658 263.314 181.65 263.322C181.642 263.33 181.633 263.336 181.622 263.339C181.622 263.4 181.6 263.408 181.593 263.383ZM181.054 263.968C180.832 263.805 180.679 263.564 180.625 263.294C180.595 263.192 180.595 263.083 180.625 262.98C180.639 262.97 180.654 262.962 180.67 262.957C180.708 262.947 180.749 262.945 180.788 262.953C180.827 262.961 180.863 262.978 180.895 263.002C181.027 263.166 181.119 263.358 181.166 263.563C181.189 263.634 181.191 263.71 181.171 263.782C181.151 263.854 181.11 263.919 181.054 263.968V263.968ZM179.073 263.586C179.073 263.561 179.095 263.573 179.095 263.586C179.274 263.604 179.438 263.693 179.551 263.831C179.665 263.97 179.72 264.148 179.703 264.327C179.694 264.43 179.652 264.527 179.583 264.604C179.514 264.681 179.421 264.733 179.32 264.753C179.201 264.758 179.083 264.732 178.977 264.677C178.871 264.623 178.781 264.543 178.716 264.443C178.65 264.344 178.611 264.23 178.602 264.111C178.594 263.992 178.616 263.874 178.667 263.766C178.714 263.704 178.776 263.655 178.847 263.624C178.918 263.592 178.996 263.579 179.073 263.586V263.586Z" fill="#999999"/>
<path opacity="0.45" fill-rule="evenodd" clip-rule="evenodd" d="M209.746 259.247C210.078 257.036 210.526 254.697 210.646 253.926C210.722 253.426 210.984 253.014 211.986 253.014H215.641C216.489 253.014 218.519 252.914 219.425 254.187C220.474 255.662 219.787 258.38 219.338 259.322C218.918 260.195 218.262 260.932 217.444 261.451C216.566 261.821 215.623 262.011 214.671 262.011C213.661 262.025 213.396 261.894 213.227 263.001C213.058 264.108 212.692 266.068 212.661 266.312C212.657 266.415 212.632 266.516 212.586 266.608C212.54 266.7 212.475 266.781 212.395 266.846C212.315 266.911 212.222 266.958 212.122 266.984C212.022 267.01 211.918 267.014 211.817 266.996C210.985 266.996 209.717 266.996 209.285 266.996C208.946 266.996 208.638 267.074 208.73 266.361C208.873 265.247 209.546 260.582 209.746 259.247Z" fill="#999999"/>
<path opacity="0.7" fill-rule="evenodd" clip-rule="evenodd" d="M206.238 256.581C206.593 254.399 207.194 250.661 207.32 249.901C207.402 249.401 207.683 249.001 208.756 249.001H213.756C214.664 249.001 217.006 249.108 218.015 250.222C219.062 251.379 219.368 253.082 218.493 255.283C218.237 255.991 217.841 256.639 217.328 257.189C216.814 257.739 216.195 258.179 215.507 258.483C214.159 258.912 212.742 259.083 211.33 258.989C210.248 259.003 209.904 258.889 209.723 259.983C209.542 261.077 209.004 264.083 208.971 264.326C208.938 264.569 208.958 265.001 208.071 265.001C207.184 265.001 206.055 265.001 205.59 265.001C205.226 265.001 204.878 265.075 204.995 264.374C205.165 263.346 206.024 257.9 206.238 256.581Z" fill="#999999"/>
<path fill-rule="evenodd" clip-rule="evenodd" d="M218.494 255.283C218.238 255.99 217.842 256.639 217.329 257.189C216.815 257.739 216.196 258.179 215.508 258.483C214.106 258.912 212.637 259.084 211.174 258.989C210.093 259.003 209.843 258.889 209.661 259.983C209.661 259.983 209.628 259.994 209.628 259.998H209.635C209.679 259.698 209.718 259.433 209.746 259.245C210.078 257.034 210.526 254.695 210.646 253.924C210.722 253.424 210.984 253.012 211.986 253.012H215.641C216.786 252.901 217.938 253.143 218.941 253.705C218.851 254.246 218.702 254.775 218.494 255.283V255.283Z" fill="#999999"/>
<path d="M256.994 257.203C256.998 257.302 257 257.401 257 257.5C257 261.642 253.642 265 249.5 265C245.358 265 242 261.642 242 257.5C242 253.358 245.358 250 249.5 250C251.024 250 252.441 250.454 253.624 251.235L255.257 249.942C253.66 248.724 251.664 248 249.5 248C244.253 248 240 252.253 240 257.5C240 262.747 244.253 267 249.5 267C254.747 267 259 262.747 259 257.5C259 256.895 258.943 256.303 258.835 255.729L256.994 257.203Z" fill="#999999"/>
<path d="M249.5 260L258.049 253.351C257.757 252.752 257.405 252.188 256.999 251.667L249.5 257.5L246 255.313V257.805L249.5 260Z" fill="#999999"/>
<path opacity="0.3" fill-rule="evenodd" clip-rule="evenodd" d="M295 266C293.595 266 292.215 265.628 291 264.921C292.216 264.22 293.226 263.212 293.928 261.997C294.63 260.782 295 259.403 295 258C295 256.597 294.63 255.218 293.928 254.003C293.226 252.788 292.216 251.78 291 251.079C292.063 250.463 293.253 250.1 294.478 250.018C295.704 249.936 296.932 250.137 298.067 250.606C299.202 251.075 300.214 251.799 301.024 252.722C301.835 253.645 302.422 254.742 302.74 255.929C303.058 257.115 303.098 258.359 302.858 259.563C302.618 260.768 302.104 261.901 301.356 262.875C300.607 263.849 299.645 264.637 298.543 265.179C297.44 265.721 296.228 266.002 295 266V266Z" fill="#999999"/>
<path fill-rule="evenodd" clip-rule="evenodd" d="M287 258C287 259.403 287.37 260.782 288.072 261.997C288.775 263.212 289.784 264.22 291 264.921C289.784 265.626 288.404 265.998 286.998 266C285.593 266.002 284.212 265.633 282.994 264.932C281.776 264.23 280.764 263.22 280.061 262.003C279.358 260.786 278.988 259.406 278.988 258C278.988 256.594 279.358 255.214 280.061 253.997C280.764 252.78 281.776 251.77 282.994 251.068C284.212 250.367 285.593 249.998 286.998 250C288.404 250.002 289.784 250.374 291 251.079C289.784 251.78 288.775 252.788 288.072 254.003C287.37 255.218 287 256.597 287 258V258Z" fill="#999999"/>
<path opacity="0.65" fill-rule="evenodd" clip-rule="evenodd" d="M291 264.921C289.784 264.22 288.774 263.212 288.072 261.997C287.37 260.782 287 259.403 287 258C287 256.597 287.37 255.218 288.072 254.003C288.774 252.788 289.784 251.78 291 251.079C292.216 251.78 293.226 252.788 293.928 254.003C294.63 255.218 295 256.597 295 258C295 259.403 294.63 260.782 293.928 261.997C293.226 263.212 292.216 264.22 291 264.921V264.921Z" fill="#999999"/>
<path fill-rule="evenodd" clip-rule="evenodd" d="M335.839 262.268L333.819 263.002C333.754 263.024 333.684 263.021 333.622 262.992C333.559 262.963 333.511 262.912 333.486 262.848L332.439 260.016H327.539L326.495 262.842C326.47 262.906 326.422 262.958 326.36 262.987C326.298 263.016 326.228 263.019 326.163 262.997L324.146 262.263C324.114 262.253 324.085 262.237 324.059 262.215C324.034 262.194 324.013 262.167 323.998 262.138C323.983 262.108 323.974 262.075 323.972 262.042C323.97 262.009 323.974 261.976 323.985 261.944L328.063 251.244C328.227 250.871 328.496 250.554 328.838 250.331C329.179 250.109 329.578 249.99 329.985 249.99C330.392 249.99 330.791 250.109 331.132 250.331C331.474 250.554 331.743 250.871 331.907 251.244L336 261.95C336.011 261.982 336.015 262.015 336.013 262.048C336.011 262.081 336.002 262.114 335.987 262.143C335.972 262.173 335.951 262.199 335.926 262.221C335.9 262.242 335.871 262.258 335.839 262.268V262.268ZM330.309 253.944L329.988 253.044V253.037L328.143 258H331.835L330.309 253.944ZM323.984 265H336.016C336.272 265.008 336.514 265.116 336.692 265.299C336.87 265.483 336.97 265.729 336.97 265.985C336.97 266.24 336.87 266.486 336.692 266.67C336.514 266.854 336.272 266.961 336.016 266.969H323.984C323.728 266.961 323.486 266.854 323.308 266.67C323.13 266.486 323.03 266.24 323.03 265.985C323.03 265.729 323.13 265.483 323.308 265.299C323.486 265.116 323.728 265.008 323.984 265V265Z" fill="#999999"/>
<path fill-rule="evenodd" clip-rule="evenodd" d="M366.01 263V257.655H365.766L364.026 263H361.96H361.954L360.218 257.655H359.976V263H357V254H359.976C360.343 253.995 360.702 254.108 361 254.321C361.299 254.534 361.522 254.837 361.636 255.186V255.186L362.859 259.346H363.116L364.341 255.186C364.456 254.836 364.68 254.532 364.981 254.319C365.281 254.105 365.642 253.994 366.01 254H368.986V263H366.01Z" fill="#999999"/>
<path fill-rule="evenodd" clip-rule="evenodd" d="M376.978 263V257.655H376.751L374.87 262.14C374.754 262.396 374.567 262.614 374.331 262.767C374.095 262.919 373.819 263 373.538 263H371.013V254H374.013V259.345H374.251L376.156 254.855L376.171 254.821C376.291 254.576 376.478 254.369 376.71 254.225C376.942 254.08 377.21 254.004 377.483 254.004H380.008V263.004H376.98L376.978 263Z" fill="#999999"/>
<path fill-rule="evenodd" clip-rule="evenodd" d="M388.547 260.014H385.019V263H382.019V257.993H391.972C391.663 258.629 391.173 259.16 390.564 259.519C389.955 259.879 389.253 260.051 388.547 260.014V260.014Z" fill="#999999"/>
<path opacity="0.55" fill-rule="evenodd" clip-rule="evenodd" d="M391.919 257.006H386.507C384.035 257.006 381.979 255.706 381.546 254H388.569C390.459 254 391.991 255.117 391.991 256.494C391.991 256.667 391.967 256.839 391.919 257.006V257.006Z" fill="#999999"/>
<path d="M416.39 254.96V258.791C416.381 258.972 416.335 259.148 416.253 259.309C416.171 259.471 416.056 259.612 415.916 259.726C415.776 259.839 415.613 259.922 415.439 259.968C415.265 260.014 415.082 260.022 414.905 259.993H414.691C413.733 259.936 412.806 259.632 412.001 259.11V252.184C411.983 251.358 412.293 250.559 412.862 249.962C413.432 249.365 414.215 249.019 415.039 249H419.013V254.96H416.39Z" fill="#999999"/>
<path d="M414.659 260.994H415.525C417.409 260.994 418.829 260.035 419.013 258.807V263.813C419.032 264.639 418.722 265.439 418.152 266.037C417.583 266.635 416.799 266.981 415.974 267H412.001V260.493C412.861 260.778 413.755 260.946 414.659 260.994Z" fill="#999999"/>
<path d="M423.96 267H420.003V260.47C421.024 260.93 422.132 261.163 423.251 261.151C424.175 261.154 425.094 261 425.967 260.695V259.314C425.176 259.763 424.285 260.004 423.376 260.015C422.875 259.966 422.41 259.732 422.072 259.358C421.734 258.985 421.546 258.498 421.546 257.994C421.546 257.49 421.734 257.003 422.072 256.63C422.41 256.256 422.875 256.022 423.376 255.973C424.285 255.986 425.176 256.23 425.967 256.68V255.316C425.094 255.01 424.175 254.856 423.251 254.859C422.132 254.848 421.024 255.08 420.003 255.54V252.184C419.984 251.36 420.291 250.562 420.859 249.964C421.426 249.367 422.207 249.02 423.03 249H426.987V263.816C427.006 264.64 426.698 265.438 426.131 266.036C425.563 266.633 424.782 266.98 423.96 267Z" fill="#999999"/>
<path d="M431.478 259.807C431.617 259.681 431.701 259.505 431.71 259.318C431.701 259.131 431.618 258.955 431.479 258.829C431.341 258.703 431.159 258.637 430.972 258.645H428.993V259.99H430.969C431.156 259.999 431.339 259.933 431.478 259.807Z" fill="#999999"/>
<path d="M430.724 255.974H428.993V257.321H430.724C430.818 257.33 430.913 257.32 431.003 257.291C431.093 257.261 431.176 257.213 431.246 257.15C431.316 257.086 431.372 257.009 431.41 256.922C431.449 256.836 431.468 256.742 431.468 256.648C431.468 256.553 431.449 256.459 431.41 256.373C431.372 256.286 431.316 256.209 431.246 256.145C431.176 256.082 431.093 256.034 431.003 256.004C430.913 255.975 430.818 255.965 430.724 255.974Z" fill="#999999"/>
<path d="M427.994 267H431.391C432.154 266.916 432.853 266.535 433.339 265.94C433.824 265.344 434.057 264.582 433.988 263.816V249H430.593C429.83 249.084 429.131 249.465 428.645 250.061C428.159 250.656 427.926 251.419 427.995 252.184V254.995H431.365C431.573 254.977 431.782 255.002 431.98 255.069C432.178 255.136 432.36 255.243 432.514 255.384C432.668 255.526 432.791 255.697 432.876 255.889C432.96 256.081 433.003 256.288 433.003 256.497C433.003 256.706 432.96 256.913 432.876 257.105C432.791 257.296 432.668 257.468 432.514 257.609C432.36 257.751 432.178 257.858 431.98 257.925C431.868 257.963 431.751 257.988 431.633 257.998H431.365C431.454 258.007 431.544 258.006 431.633 257.998H431.918C432.13 257.973 432.345 257.992 432.549 258.056C432.753 258.12 432.941 258.226 433.101 258.368C433.261 258.51 433.389 258.684 433.476 258.879C433.564 259.074 433.609 259.286 433.609 259.5C433.609 259.714 433.564 259.926 433.476 260.121C433.389 260.316 433.261 260.49 433.101 260.632C432.941 260.774 432.753 260.88 432.549 260.944C432.345 261.008 432.13 261.027 431.918 261.002H427.994V267Z" fill="#999999"/>
<path d="M454.983 256.516C454.983 256.516 456.148 258.022 459.611 258.022C463.249 258.022 466.611 254.415 470.211 254.372C474.029 254.327 475.017 255.832 475.017 255.832" stroke="#999999" stroke-width="2" stroke-linecap="round"/>
<path d="M454.983 260.146C456.484 261.22 458.306 261.749 460.148 261.646C463.787 261.646 467.478 258.046 471.071 257.997C474.238 257.952 475.016 259.457 475.016 259.457" stroke="#999999" stroke-width="2" stroke-linecap="round"/>
<path d="M472.77 258.716C472.613 260.45 471.893 262.085 470.72 263.372C469.548 264.658 467.987 265.527 466.275 265.844C464.563 266.161 462.794 265.91 461.238 265.128C459.683 264.347 458.425 263.078 457.657 261.516M456.898 257.053C457.101 255.352 457.847 253.762 459.024 252.517C460.201 251.272 461.747 250.439 463.434 250.141C465.121 249.843 466.86 250.095 468.392 250.861C469.924 251.627 471.17 252.866 471.944 254.394" stroke="#999999" stroke-width="2" stroke-linecap="round"/>
<path opacity="0.5" fill-rule="evenodd" clip-rule="evenodd" d="M497.761 253.5L503.644 248L508.993 253L503.109 258.5L497.761 253.5Z" fill="#999999"/>
<path fill-rule="evenodd" clip-rule="evenodd" d="M501.505 255L508.993 262L503.644 267L497.761 261.5C497.203 260.994 496.757 260.376 496.452 259.688C496.146 258.999 495.989 258.253 495.989 257.5C495.989 256.747 496.146 256.001 496.452 255.312C496.757 254.624 497.203 254.006 497.761 253.5L498.831 252.5L501.505 250C501.156 250.316 500.877 250.702 500.686 251.133C500.495 251.563 500.397 252.029 500.397 252.5C500.397 252.971 500.495 253.437 500.686 253.867C500.877 254.298 501.156 254.684 501.505 255V255Z" fill="#999999"/>
<path opacity="0.5" d="M511.5 260C512.881 260 514 258.881 514 257.5C514 256.119 512.881 255 511.5 255C510.119 255 509 256.119 509 257.5C509 258.881 510.119 260 511.5 260Z" fill="#999999"/>
<path fill-rule="evenodd" clip-rule="evenodd" d="M593.352 250.593C593.557 250.797 593.464 251.146 593.185 251.222L590.967 251.827C590.904 251.844 590.846 251.877 590.8 251.924L590.742 251.982C590.787 251.963 590.836 251.953 590.888 251.953L596.939 251.953C597.147 251.953 597.315 252.121 597.315 252.329V255.84C597.315 256.129 597.003 256.31 596.752 256.167L594.756 255.026C594.699 254.993 594.635 254.976 594.57 254.976H594.487C594.532 254.995 594.574 255.022 594.611 255.059L598.89 259.338C599.037 259.484 599.037 259.723 598.89 259.87L596.407 262.352C596.203 262.557 595.854 262.464 595.778 262.185L595.173 259.967C595.156 259.904 595.123 259.846 595.076 259.8L595.018 259.742C595.037 259.787 595.047 259.836 595.047 259.888V265.939C595.047 266.147 594.879 266.315 594.671 266.315H590.512L591.974 263.756C592.007 263.699 592.024 263.635 592.024 263.569V263.487C592.005 263.532 591.978 263.574 591.941 263.611L587.662 267.89C587.516 268.037 587.277 268.037 587.13 267.89L584.648 265.407C584.443 265.203 584.536 264.854 584.815 264.778L587.033 264.173C587.096 264.156 587.154 264.123 587.2 264.076L587.258 264.018C587.213 264.037 587.164 264.047 587.112 264.047H581.061C580.853 264.047 580.685 263.879 580.685 263.671L580.685 260.16C580.685 259.871 580.997 259.69 581.248 259.833L583.244 260.974C583.301 261.007 583.365 261.024 583.431 261.024H583.513C583.468 261.005 583.426 260.978 583.389 260.941L579.11 256.662C578.963 256.516 578.963 256.277 579.11 256.13L581.593 253.648C581.797 253.443 582.146 253.536 582.222 253.815L582.827 256.033C582.844 256.096 582.877 256.154 582.924 256.2L582.982 256.258C582.963 256.213 582.953 256.164 582.953 256.112V250.061C582.953 249.853 583.121 249.685 583.329 249.685H587.488L586.026 252.244C585.993 252.301 585.976 252.365 585.976 252.431V252.513C585.995 252.468 586.022 252.426 586.059 252.389L590.338 248.11C590.484 247.963 590.723 247.963 590.87 248.11L593.352 250.593ZM583.671 256.488L585.567 256.804C585.644 256.817 585.716 256.854 585.771 256.909L586.596 257.734C586.743 257.881 586.743 258.119 586.596 258.266L584.162 260.7L585.727 259.582C585.791 259.536 585.867 259.512 585.946 259.512H587.112C587.32 259.512 587.488 259.68 587.488 259.888V263.329L587.804 261.433C587.817 261.356 587.854 261.284 587.909 261.229L588.734 260.404C588.881 260.257 589.119 260.257 589.266 260.404L591.7 262.838L590.582 261.273C590.536 261.209 590.512 261.133 590.512 261.054V259.888C590.512 259.68 590.68 259.512 590.888 259.512H594.329L592.433 259.196C592.356 259.183 592.284 259.146 592.229 259.091L591.404 258.266C591.257 258.119 591.257 257.881 591.404 257.734L593.838 255.301L592.273 256.418C592.209 256.464 592.133 256.488 592.054 256.488H590.888C590.68 256.488 590.512 256.32 590.512 256.112V252.67L590.196 254.567C590.183 254.644 590.146 254.716 590.091 254.771L589.266 255.596C589.119 255.743 588.881 255.743 588.734 255.596L586.3 253.162L587.418 254.727C587.464 254.791 587.488 254.867 587.488 254.946V256.112C587.488 256.32 587.32 256.488 587.112 256.488H583.671Z" fill="#999999"/>
<path d="M631.17 258.606L634.84 266.28H629.08L626.068 259.983C625.584 260.342 625.2 260.832 624.969 261.403C624.813 261.789 624.727 262.212 624.727 262.655C624.727 263.482 625.027 264.239 625.523 264.819C625.034 266.095 623.809 267 622.375 267C620.511 267 619 265.472 619 263.586C619 263.178 619.071 262.787 619.201 262.424C619.883 259.929 622.221 257.895 624.83 257.394L621.16 249.72H626.92L629.932 256.017C630.417 255.658 630.8 255.168 631.031 254.597C631.187 254.211 631.273 253.788 631.273 253.345C631.273 252.518 630.973 251.761 630.477 251.181C630.966 249.905 632.191 249 633.625 249C635.489 249 637 250.528 637 252.414C637 252.822 636.929 253.213 636.8 253.575C636.117 256.07 633.779 258.105 631.17 258.606Z" fill="#999999"/>
<path fill-rule="evenodd" clip-rule="evenodd" d="M657 249H712V267H657V249ZM667.08 256.611V260.993H665.36V256.611H662.997V255.016H669.442V256.611H667.08ZM670.13 255.016H671.85V260.993H670.13V255.016ZM673.11 260.993V255.016H674.647L677.525 258.294V255.016H679.108V260.993H677.64L674.692 257.691V260.993H673.11ZM684.472 260.993L682.488 258.733H682.03V260.993H680.367V255.016H682.03V257.264H682.488L684.496 255.016H686.583L683.922 257.879L686.686 260.993H684.472ZM686.529 258.017C686.529 256.234 687.872 254.853 690.108 254.853C692.332 254.853 693.674 256.234 693.674 258.017C693.674 259.8 692.332 261.182 690.108 261.182C687.872 261.182 686.529 259.8 686.529 258.017ZM688.284 258.017C688.284 258.997 688.995 259.725 690.108 259.725C691.209 259.725 691.932 258.997 691.932 258.017C691.932 257.038 691.209 256.322 690.108 256.322C688.995 256.322 688.284 257.038 688.284 258.017ZM694.464 255.016H699.98V256.536H696.127V257.678H699.74V258.996H696.127V260.993H694.464V255.016ZM700.725 255.016H706.241V256.536H702.388V257.678H706.001V258.996H702.388V260.993H700.725V255.016Z" fill="#999999"/>
<path fill-rule="evenodd" clip-rule="evenodd" d="M11 198C11.2652 198 11.5196 198.105 11.7071 198.293C11.8946 198.48 12 198.735 12 199V205C12 205.265 11.8946 205.52 11.7071 205.707C11.5196 205.895 11.2652 206 11 206C10.7348 206 10.4804 205.895 10.2929 205.707C10.1054 205.52 10 205.265 10 205V199C10 198.735 10.1054 198.48 10.2929 198.293C10.4804 198.105 10.7348 198 11 198ZM14 200C14.2652 200 14.5196 200.105 14.7071 200.293C14.8946 200.48 15 200.735 15 201V207C15 207.265 14.8946 207.52 14.7071 207.707C14.5196 207.895 14.2652 208 14 208C13.7348 208 13.4804 207.895 13.2929 207.707C13.1054 207.52 13 207.265 13 207V201C13 200.735 13.1054 200.48 13.2929 200.293C13.4804 200.105 13.7348 200 14 200ZM8 200C8.26522 200 8.51957 200.105 8.70711 200.293C8.89464 200.48 9 200.735 9 201V206C9 206.265 8.89464 206.52 8.70711 206.707C8.51957 206.895 8.26522 207 8 207C7.73478 207 7.48043 206.895 7.29289 206.707C7.10536 206.52 7 206.265 7 206V201C7 200.735 7.10536 200.48 7.29289 200.293C7.48043 200.105 7.73478 200 8 200ZM5 202C5.26522 202 5.51957 202.105 5.70711 202.293C5.89464 202.48 6 202.735 6 203V207C6 207.265 5.89464 207.52 5.70711 207.707C5.51957 207.895 5.26522 208 5 208C4.73478 208 4.48043 207.895 4.29289 207.707C4.10536 207.52 4 207.265 4 207V203C4 202.735 4.10536 202.48 4.29289 202.293C4.48043 202.105 4.73478 202 5 202Z" fill="#F3C4B7"/>
<path opacity="0.5" fill-rule="evenodd" clip-rule="evenodd" d="M13 204.011V202.985H15.011V204.011H13ZM12 204.011H9.99998V202.985H12V204.011ZM6.99998 202.985H8.99998V204.011H6.99998V202.985ZM4.01099 202.985H5.99998V204.011H4.01099V202.985Z" fill="#D09889"/>
<path fill-rule="evenodd" clip-rule="evenodd" d="M17 209V214.931C16.4199 215.868 15.6104 216.642 14.648 217.179C13.6856 217.716 12.6021 217.998 11.5 218H10.5C8.77609 218 7.1228 217.315 5.90381 216.096C4.68482 214.877 4 213.224 4 211.5V210.5C4.00778 209.993 4.07833 209.489 4.21001 209H17Z" fill="#F3C4B7"/>
<path d="M20 204H0V214H20V204Z" fill="#76A158"/>
<path d="M20 204H0V205H20V204Z" fill="#89AF6D"/>
<path opacity="0.7" d="M5.5 211C6.88071 211 8 209.881 8 208.5C8 207.119 6.88071 206 5.5 206C4.11929 206 3 207.119 3 208.5C3 209.881 4.11929 211 5.5 211Z" fill="#9FD17D"/>
<path fill-rule="evenodd" clip-rule="evenodd" d="M17 214V213H20V214H17ZM10.141 214H0V213H10C10 211.939 10.4214 210.922 11.1716 210.172C11.9217 209.421 12.9391 209 14 209V207C14 206.735 14.1054 206.48 14.2929 206.293C14.4804 206.105 14.7348 206 15 206C15.2652 206 15.5196 206.105 15.7071 206.293C15.8946 206.48 16 206.735 16 207V209.555C16.3726 209.781 16.7062 210.066 16.988 210.399V214H10.141Z" fill="#669248"/>
<path fill-rule="evenodd" clip-rule="evenodd" d="M17 213V214.937H11.316C11.0386 214.368 10.924 213.733 10.9849 213.103C11.0458 212.472 11.2798 211.871 11.6611 211.365C12.0423 210.86 12.556 210.469 13.1452 210.237C13.7345 210.005 14.3764 209.941 15 210.051V207C15 206.735 15.1054 206.48 15.2929 206.293C15.4804 206.105 15.7348 206 16 206C16.2652 206 16.5196 206.105 16.7071 206.293C16.8947 206.48 17 206.735 17 207V213Z" fill="#F3C4B7"/>
<path fill-rule="evenodd" clip-rule="evenodd" d="M69.108 214C69.108 214 68.878 212.6 68.801 212.248H65.483C65.391 212.523 64.932 214 64.932 214H62.225L66.064 204.844C66.1594 204.572 66.3447 204.34 66.5894 204.188C66.8341 204.035 67.1236 203.97 67.41 204.004H69.41L71.51 214.004H69.11L69.108 214ZM67.777 207.559L67.593 206.705C67.471 207.086 67.241 207.682 67.257 207.666C67.257 207.666 66.431 209.878 66.232 210.458H68.373C68.266 209.955 67.777 207.559 67.777 207.559V207.559ZM62.209 206.309C61.6043 206.036 60.9451 205.905 60.282 205.927C59.257 205.927 58.798 206.354 58.782 206.781C58.782 207.255 59.333 207.559 60.25 208.017C61.734 208.717 62.422 209.589 62.407 210.733C62.392 212.792 60.633 214.133 57.907 214.133C56.9238 214.136 55.9488 213.955 55.032 213.6L55.383 211.357L55.735 211.525C56.4861 211.894 57.3151 212.078 58.152 212.059C58.4874 212.124 58.8352 212.06 59.1249 211.879C59.4146 211.697 59.6244 211.412 59.712 211.082C59.712 210.64 59.376 210.319 58.366 209.831C57.387 209.359 56.087 208.566 56.102 207.131C56.118 205.194 57.907 203.831 60.462 203.831C61.2554 203.827 62.0431 203.966 62.787 204.242L62.435 206.409L62.209 206.309ZM50.829 214L52.451 204H55.036L53.415 214H50.829ZM44.604 214L42.299 205.329C42.221 205.283 42.138 205.241 42.057 205.197H43.6L44.17 205.597L45.216 207.197L45.66 208.423L45.86 209.436L46.136 210.809L48.673 204H51.411L47.342 214H44.6H44.604Z" fill="#1470B0"/>
<path fill-rule="evenodd" clip-rule="evenodd" d="M43.435 206.494C43.1237 206.25 42.7887 206.038 42.435 205.861L42.288 205.307C41.5577 204.877 40.7776 204.538 39.965 204.298V203.988H43.936C44.1741 203.989 44.4047 204.071 44.5894 204.221C44.7742 204.371 44.9018 204.58 44.951 204.813L45.811 209.22C45.1778 208.184 44.3746 207.263 43.435 206.494Z" fill="#FFB927"/>
<path fill-rule="evenodd" clip-rule="evenodd" d="M106.014 217H93C92.7348 217 92.4804 216.895 92.2929 216.707C92.1054 216.52 92 216.265 92 216V206.974C92.0006 206.835 92.0303 206.699 92.0872 206.572C92.144 206.446 92.2267 206.333 92.33 206.241L92.371 205.934L102.225 197.965H102.977V205.974H107.014V217H106.014V217Z" fill="#FFCF06"/>
<path fill-rule="evenodd" clip-rule="evenodd" d="M102.989 205.978H104.989V212.491L93.499 216.248L102.985 210.236V205.978H102.989Z" fill="#D3AC06"/>
<path d="M99.453 207.782C100.169 207.782 100.75 207.201 100.75 206.485C100.75 205.769 100.169 205.188 99.453 205.188C98.7367 205.188 98.156 205.769 98.156 206.485C98.156 207.201 98.7367 207.782 99.453 207.782Z" fill="#231F20"/>
<path fill-rule="evenodd" clip-rule="evenodd" d="M642 217C646.971 217 651 212.971 651 208C651 203.029 646.971 199 642 199C637.029 199 633 203.029 633 208C633 212.971 637.029 217 642 217ZM642 211.5C643.933 211.5 645.5 209.933 645.5 208C645.5 206.067 643.933 204.5 642 204.5C640.067 204.5 638.5 206.067 638.5 208C638.5 209.933 640.067 211.5 642 211.5Z" fill="#8A42F9"/>
<path d="M633 202H626L629.733 214H633V202Z" fill="#8A42F9"/>
<path fill-rule="evenodd" clip-rule="evenodd" d="M687 217C691.971 217 696 212.971 696 208C696 203.029 691.971 199 687 199C682.029 199 678 203.029 678 208C678 212.971 682.029 217 687 217ZM687 211.5C688.933 211.5 690.5 209.933 690.5 208C690.5 206.067 688.933 204.5 687 204.5C685.067 204.5 683.5 206.067 683.5 208C683.5 209.933 685.067 211.5 687 211.5Z" fill="#0F72ED"/>
<path d="M678 202H671L674.733 214H678V202Z" fill="#0F72ED"/>
<path fill-rule="evenodd" clip-rule="evenodd" d="M135.973 198.993C137.334 198.992 138.677 199.305 139.898 199.907C140.084 199.996 140.27 200.094 140.456 200.201L139.632 200.944L138.393 199.656L136.3 201.53L135.058 200.168L131.158 203.696L133.658 206.463L132.676 207.33L135.136 210.101L134.16 210.966L137.675 214.899L139.762 212.968L141.562 215.036C141.189 215.328 140.795 215.591 140.382 215.824C139.04 216.595 137.52 217 135.973 217C133.585 217 131.295 216.051 129.607 214.363C127.918 212.674 126.97 210.384 126.97 207.996C126.97 205.609 127.918 203.318 129.607 201.63C131.295 199.941 133.585 198.993 135.973 198.993ZM134.34 207.428L136.47 205.5L138.389 207.641L136.259 209.568L134.34 207.428V207.428ZM135.855 211.128L137.985 209.199L139.904 211.34L137.773 213.269L135.855 211.128ZM132.816 203.772L134.946 201.844L136.864 203.985L134.734 205.912L132.816 203.772V203.772ZM136.725 202.734L138.325 201.289L139.763 202.894L138.163 204.341L136.724 202.734H136.725ZM139.564 209.356L141.164 207.91L142.602 209.516L141.002 210.961L139.564 209.356V209.356ZM140.964 212.599L142.564 211.153L144.003 212.759L142.403 214.204L140.964 212.599V212.599ZM141.608 205.167L142.673 204.203L143.632 205.273L142.567 206.236L141.608 205.167ZM140.247 201.985L141.312 201.022L142.271 202.092L141.206 203.056L140.247 201.985V201.985ZM142.969 208.346L144.035 207.382L145 208.453L143.935 209.417L142.976 208.346H142.969ZM138.193 205.963L139.793 204.517L141.232 206.122L139.632 207.569L138.193 205.963Z" fill="#0083DE"/>
<path fill-rule="evenodd" clip-rule="evenodd" d="M181.593 213.383C181.451 212.652 181.072 211.989 180.513 211.497C180.319 211.309 180.099 211.15 179.86 211.026C179.738 210.955 179.61 210.895 179.478 210.846C179.137 210.7 178.766 210.639 178.397 210.668C178.685 210.564 178.992 210.525 179.297 210.554C179.557 210.591 179.812 210.651 180.061 210.734C180.261 210.845 180.468 210.957 180.669 211.071C181.115 209.493 181.028 207.812 180.422 206.288C179.933 204.994 179.138 203.839 178.104 202.92C177.055 201.939 175.753 201.27 174.345 200.989C173.526 200.83 172.684 200.838 171.868 201.012C171.177 201.193 170.528 201.505 169.955 201.931C169.424 202.357 168.975 202.874 168.627 203.459C168.524 203.601 168.434 203.751 168.357 203.908C168.288 204.078 168.21 204.241 168.132 204.402C167.702 205.563 167.565 206.813 167.732 208.04C167.831 208.805 168.035 209.554 168.34 210.263C168.504 210.578 168.653 210.908 168.834 211.205C169.014 211.493 169.209 211.771 169.42 212.037C169.869 212.537 170.375 212.981 170.928 213.362C172.195 214.22 173.676 214.71 175.205 214.776C175.206 214.667 175.183 214.56 175.137 214.462C175.11 214.354 175.1 214.23 175.069 214.125C175.04 213.871 175.04 213.615 175.069 213.362C175.122 213.401 175.162 213.456 175.182 213.519C175.208 213.572 175.247 213.618 175.295 213.653C175.354 213.763 175.421 213.868 175.495 213.968C175.644 214.162 175.819 214.335 176.013 214.484C176.4 214.801 176.832 215.058 177.296 215.247C177.819 215.467 178.374 215.602 178.94 215.647C179.54 215.728 180.121 215.83 180.672 215.961C181.174 216.106 181.658 216.309 182.113 216.567C182.331 216.687 182.542 216.821 182.743 216.967C182.849 217.031 182.947 217.106 183.036 217.192C183.154 217.239 183.206 217.351 183.328 217.392C183.685 217.718 184.017 218.071 184.32 218.448C184.464 218.655 184.592 218.873 184.702 219.1C184.784 219.19 184.808 219.338 184.882 219.437C184.913 219.495 184.931 219.56 184.934 219.626C184.938 219.691 184.928 219.757 184.904 219.819C184.737 219.843 184.771 219.667 184.704 219.594C184.641 219.511 184.588 219.42 184.546 219.325C184.282 219.048 184.046 218.745 183.758 218.494C183.48 218.233 183.179 217.999 182.858 217.794C182.189 217.327 181.442 216.985 180.652 216.783C179.722 216.528 178.755 216.437 177.794 216.513C177.342 216.563 176.896 216.661 176.465 216.805C176.012 216.905 175.553 216.98 175.092 217.03C173.283 217.122 171.478 216.784 169.825 216.042C169.11 215.725 168.443 215.31 167.844 214.807C167.543 214.571 167.264 214.308 167.012 214.021C166.754 213.74 166.527 213.431 166.336 213.1C166.118 212.769 165.923 212.424 165.751 212.067C165.589 211.68 165.454 211.282 165.346 210.877C165.204 210.44 165.114 209.988 165.076 209.53C165.068 209.395 165.007 209.135 165.008 208.924C165.018 208.902 165.026 208.879 165.031 208.856C164.998 208.64 164.998 208.421 165.031 208.205C165.034 207.729 165.087 207.255 165.188 206.79C165.268 206.362 165.381 205.942 165.526 205.532C165.66 205.132 165.837 204.766 165.998 204.388C166.107 204.226 166.189 204.039 166.291 203.872C166.377 203.695 166.506 203.562 166.584 203.372C166.649 203.301 166.709 203.226 166.764 203.148C166.799 203.048 166.892 203.006 166.921 202.901C166.995 202.838 167.056 202.762 167.101 202.676C167.176 202.615 167.237 202.538 167.281 202.452C167.55 202.188 167.79 201.896 168.069 201.644C168.348 201.392 168.66 201.155 168.948 200.903C169.13 200.816 169.262 200.678 169.442 200.588C169.579 200.463 169.779 200.4 169.915 200.274C170.272 200.082 170.639 199.91 171.015 199.757C171.395 199.587 171.786 199.445 172.186 199.331C173.102 199.079 174.05 198.965 174.999 198.994C175.038 198.994 175.057 198.955 175.066 198.994C176.777 199.02 178.444 199.541 179.866 200.494C181.121 201.329 182.131 202.484 182.792 203.84C183.569 205.467 183.829 207.293 183.535 209.072C183.342 210.288 182.897 211.451 182.229 212.485C182.14 212.652 182.034 212.81 181.914 212.957C181.873 213.039 181.82 213.114 181.757 213.181C181.73 213.221 181.699 213.258 181.667 213.294C181.664 213.305 181.658 213.314 181.65 213.322C181.642 213.33 181.633 213.336 181.622 213.339C181.622 213.4 181.6 213.408 181.593 213.383ZM181.054 213.968C180.832 213.805 180.679 213.564 180.625 213.294C180.595 213.191 180.595 213.082 180.625 212.98C180.639 212.97 180.654 212.962 180.67 212.957C180.708 212.947 180.749 212.945 180.788 212.953C180.827 212.961 180.863 212.978 180.895 213.002C181.027 213.166 181.119 213.358 181.166 213.563C181.189 213.634 181.191 213.71 181.171 213.782C181.151 213.854 181.11 213.919 181.054 213.968V213.968ZM179.073 213.586C179.073 213.561 179.095 213.573 179.095 213.586C179.274 213.604 179.438 213.693 179.551 213.831C179.665 213.97 179.72 214.148 179.703 214.327C179.694 214.43 179.652 214.527 179.583 214.604C179.514 214.681 179.421 214.733 179.32 214.753C179.201 214.758 179.083 214.732 178.977 214.677C178.871 214.623 178.781 214.542 178.716 214.443C178.65 214.344 178.611 214.23 178.602 214.111C178.594 213.992 178.616 213.873 178.667 213.766C178.714 213.704 178.776 213.655 178.847 213.624C178.918 213.592 178.996 213.579 179.073 213.586V213.586Z" fill="#F78300"/>
<path fill-rule="evenodd" clip-rule="evenodd" d="M209.746 209.247C210.078 207.036 210.526 204.697 210.646 203.926C210.722 203.426 210.984 203.014 211.986 203.014H215.641C216.489 203.014 218.519 202.914 219.425 204.187C220.474 205.662 219.787 208.38 219.338 209.322C218.918 210.195 218.262 210.932 217.444 211.451C216.566 211.821 215.623 212.011 214.671 212.011C213.661 212.025 213.396 211.894 213.227 213.001C213.058 214.108 212.692 216.068 212.661 216.312C212.657 216.415 212.632 216.516 212.586 216.608C212.54 216.7 212.475 216.781 212.395 216.846C212.315 216.911 212.222 216.958 212.122 216.984C212.022 217.01 211.918 217.014 211.817 216.996C210.985 216.996 209.717 216.996 209.285 216.996C208.946 216.996 208.638 217.074 208.73 216.361C208.873 215.247 209.546 210.582 209.746 209.247Z" fill="#009DDF"/>
<path fill-rule="evenodd" clip-rule="evenodd" d="M206.238 206.581C206.593 204.399 207.194 200.661 207.32 199.901C207.402 199.401 207.683 199.001 208.756 199.001H213.756C214.664 199.001 217.006 199.108 218.015 200.222C219.062 201.379 219.368 203.082 218.493 205.283C218.237 205.99 217.841 206.639 217.328 207.189C216.814 207.739 216.195 208.179 215.507 208.483C214.159 208.912 212.742 209.083 211.33 208.989C210.248 209.003 209.904 208.889 209.723 209.983C209.542 211.077 209.004 214.083 208.971 214.326C208.938 214.569 208.958 215.001 208.071 215.001C207.184 215.001 206.055 215.001 205.59 215.001C205.226 215.001 204.878 215.075 204.995 214.374C205.165 213.347 206.024 207.9 206.238 206.581Z" fill="#0048A0"/>
<path fill-rule="evenodd" clip-rule="evenodd" d="M218.494 205.283C218.238 205.99 217.842 206.639 217.329 207.189C216.815 207.739 216.196 208.179 215.508 208.483C214.106 208.912 212.637 209.084 211.174 208.989C210.093 209.003 209.843 208.889 209.661 209.983C209.661 209.983 209.628 209.994 209.628 209.998H209.635C209.679 209.698 209.718 209.433 209.746 209.245C210.078 207.034 210.526 204.695 210.646 203.924C210.722 203.424 210.984 203.012 211.986 203.012H215.641C216.786 202.901 217.938 203.142 218.941 203.705C218.851 204.246 218.702 204.775 218.494 205.283Z" fill="#003172"/>
<mask id="mask0_350_398" style="mask-type:alpha" maskUnits="userSpaceOnUse" x="240" y="198" width="19" height="19">
<path fill-rule="evenodd" clip-rule="evenodd" d="M256.996 207.24C256.999 207.327 257 207.413 257 207.5C257 211.642 253.642 215 249.5 215C245.358 215 242 211.642 242 207.5C242 203.358 245.358 200 249.5 200C251.024 200 252.441 200.454 253.624 201.235L255.257 199.942C253.66 198.724 251.664 198 249.5 198C244.253 198 240 202.253 240 207.5C240 212.747 244.253 217 249.5 217C254.747 217 259 212.747 259 207.5C259 206.913 258.947 206.338 258.845 205.78L256.996 207.24Z" fill="#C4C4C4"/>
</mask>
<g mask="url(#mask0_350_398)">
<path d="M256.994 207.203C256.998 207.302 257 207.401 257 207.5C257 211.642 253.642 215 249.5 215C245.358 215 242 211.642 242 207.5C242 203.358 245.358 200 249.5 200C251.024 200 252.441 200.454 253.624 201.235L255.257 199.942C253.66 198.724 251.664 198 249.5 198C244.253 198 240 202.253 240 207.5C240 212.747 244.253 217 249.5 217C254.747 217 259 212.747 259 207.5C259 206.895 258.943 206.303 258.835 205.729L256.994 207.203Z" fill="#24A236"/>
<circle cx="248.404" cy="197.635" r="8.40385" fill="#008ACB"/>
<g filter="url(#filter0_f_350_398)">
<circle cx="247.308" cy="217.731" r="7.30769" fill="#77F628"/>
</g>
<g filter="url(#filter1_f_350_398)">
<circle cx="240.731" cy="203.846" r="7.30769" fill="#19E7E8"/>
</g>
<g filter="url(#filter2_f_350_398)">
<circle cx="240" cy="211.154" r="5.84615" fill="#DEFA1B"/>
</g>
</g>
<path fill-rule="evenodd" clip-rule="evenodd" d="M258.049 203.351L249.5 210V207.5L256.999 201.667C257.405 202.188 257.757 202.752 258.049 203.351Z" fill="#24A236"/>
<path fill-rule="evenodd" clip-rule="evenodd" d="M246 207.805L249.5 210V207.5L246 205.313V207.805Z" fill="#24A236"/>
<path d="M286.781 216C291.078 216 294.562 212.418 294.562 208C294.562 203.582 291.078 200 286.781 200C282.484 200 279 203.582 279 208C279 212.418 282.484 216 286.781 216Z" fill="#EC0020"/>
<path d="M299.219 215.781C303.516 215.781 307 212.297 307 208C307 203.703 303.516 200.219 299.219 200.219C294.922 200.219 291.438 203.703 291.438 208C291.438 212.297 294.922 215.781 299.219 215.781Z" fill="#FE9A0C"/>
<path fill-rule="evenodd" clip-rule="evenodd" d="M284.412 209.968H283.724L284.353 206.73H284.342L283.056 209.968H282.219L282.2 206.73H282.189L281.678 209.968H280.99L281.744 205.991H282.819L282.866 209.091H282.878L284.097 205.991H285.161L284.412 209.968V209.968ZM289.592 207.748C289.287 207.691 288.977 207.671 288.668 207.686C288.295 207.728 288.214 207.832 288.19 207.952C288.105 208.398 289.802 207.97 289.596 209.002C289.529 209.3 289.358 209.564 289.114 209.747C288.87 209.93 288.569 210.021 288.264 210.002C287.892 210.028 287.518 209.981 287.164 209.865L287.264 209.32C287.61 209.389 287.963 209.418 288.316 209.408C288.428 209.42 288.542 209.4 288.643 209.349C288.744 209.299 288.829 209.22 288.887 209.123C288.981 208.652 287.287 209.006 287.493 207.957C287.56 207.689 287.724 207.455 287.954 207.302C288.184 207.149 288.463 207.087 288.736 207.128C289.056 207.132 289.374 207.176 289.683 207.261L289.59 207.752L289.592 207.748ZM289.981 207.616L290.233 206.566H290.92L290.773 207.092H291.2L291.1 207.616H290.673L290.373 209.135C290.342 209.301 290.334 209.364 290.614 209.364C290.662 209.364 290.71 209.359 290.758 209.351L290.658 209.917C290.55 209.917 290.425 209.992 290.317 209.992H290.231C289.637 209.992 289.579 209.68 289.653 209.314L289.987 207.614L289.981 207.616ZM291.638 208.828C291.612 208.902 291.605 208.982 291.618 209.059C291.631 209.137 291.665 209.209 291.714 209.27C291.764 209.331 291.828 209.378 291.902 209.407C291.975 209.436 292.054 209.445 292.132 209.434C292.556 209.462 292.978 209.35 293.332 209.114L293.223 209.639C292.863 209.881 292.432 209.994 292 209.959C291.266 209.959 290.773 209.58 291 208.432C291.049 208.053 291.229 207.703 291.509 207.444C291.79 207.185 292.153 207.032 292.534 207.013C293.05 207.013 293.711 207.422 293.454 208.699L293.431 208.828H291.631H291.638ZM292.819 208.283C292.843 208.212 292.851 208.137 292.842 208.063C292.833 207.988 292.808 207.917 292.768 207.854C292.729 207.79 292.675 207.737 292.612 207.696C292.549 207.656 292.478 207.63 292.404 207.621C292.238 207.646 292.085 207.724 291.968 207.843C291.85 207.963 291.774 208.117 291.752 208.283H292.819ZM293.887 207.142H294.544L294.444 207.571H294.455C294.533 207.414 294.65 207.281 294.795 207.184C294.94 207.086 295.109 207.029 295.283 207.017C295.329 207.017 295.43 207.038 295.473 207.043L295.22 207.771C295.171 207.763 295.122 207.76 295.073 207.762C294.883 207.751 294.697 207.815 294.554 207.939C294.41 208.064 294.321 208.239 294.304 208.428L294.016 209.994H293.329L293.884 207.142H293.887ZM298.039 206.842C297.78 206.691 297.475 206.64 297.181 206.7C296.868 206.755 296.584 206.916 296.377 207.157C296.17 207.397 296.052 207.702 296.043 208.019C295.99 208.14 295.961 208.27 295.958 208.401C295.955 208.533 295.978 208.664 296.026 208.787C296.074 208.91 296.146 209.022 296.237 209.117C296.329 209.212 296.438 209.288 296.559 209.341C296.754 209.387 296.955 209.392 297.152 209.358C297.349 209.324 297.537 209.25 297.705 209.141L297.519 209.827C297.373 209.925 297.208 209.991 297.034 210.02C296.861 210.049 296.683 210.042 296.513 209.998C295.573 209.94 295.033 209.316 295.293 208.01C295.331 207.489 295.557 207 295.928 206.634C296.3 206.267 296.792 206.048 297.313 206.017C297.471 206.015 297.628 206.046 297.774 206.106C297.92 206.167 298.053 206.257 298.163 206.37L298.039 206.845V206.842ZM304.239 209.971H303.567L303.637 209.541H303.629C303.533 209.674 303.406 209.781 303.26 209.855C303.113 209.928 302.951 209.965 302.787 209.962C302.01 209.962 301.831 209.229 301.987 208.462C302.01 208.098 302.16 207.754 302.411 207.49C302.663 207.225 303 207.058 303.362 207.018C303.506 207.006 303.65 207.042 303.771 207.121C303.892 207.201 303.983 207.318 304.029 207.455H304.041L304.3 206H304.988L304.238 209.968L304.239 209.971ZM303.074 209.359C303.276 209.337 303.463 209.245 303.604 209.099C303.744 208.952 303.829 208.761 303.843 208.559C303.932 208.11 303.901 207.659 303.431 207.659C303.224 207.691 303.035 207.795 302.898 207.952C302.76 208.11 302.682 208.311 302.678 208.52C302.612 208.849 302.635 209.365 303.078 209.365L303.074 209.359ZM300.091 209.296C300.091 209.296 300.025 209.596 300.01 209.745L299.975 209.997H299.365C299.351 209.851 299.351 209.704 299.365 209.558C299.246 209.684 299.103 209.784 298.944 209.853C298.785 209.921 298.614 209.957 298.441 209.958C298.339 209.969 298.235 209.953 298.14 209.913C298.046 209.872 297.963 209.809 297.899 209.727C297.836 209.646 297.795 209.55 297.779 209.449C297.763 209.347 297.773 209.243 297.808 209.146C297.844 208.914 297.956 208.701 298.126 208.539C298.296 208.377 298.515 208.276 298.748 208.252L299.385 208.152C299.497 208.135 299.637 208.214 299.672 208.052C299.681 208 299.678 207.946 299.661 207.895C299.645 207.844 299.616 207.798 299.578 207.761C299.54 207.724 299.493 207.697 299.441 207.683C299.39 207.668 299.336 207.667 299.284 207.678C298.924 207.665 298.565 207.727 298.231 207.861L298.387 207.316C298.732 207.162 299.111 207.098 299.487 207.133C299.602 207.107 299.721 207.108 299.834 207.138C299.948 207.167 300.053 207.223 300.141 207.302C300.228 207.38 300.296 207.478 300.337 207.588C300.379 207.698 300.394 207.816 300.38 207.933L300.096 209.29L300.091 209.296ZM299.552 208.526C299.399 208.613 299.228 208.664 299.052 208.676C298.926 208.673 298.802 208.713 298.703 208.79C298.603 208.868 298.533 208.977 298.505 209.1C298.489 209.139 298.484 209.182 298.49 209.224C298.495 209.265 298.512 209.305 298.537 209.339C298.562 209.373 298.596 209.399 298.634 209.417C298.673 209.434 298.715 209.441 298.757 209.437C298.922 209.438 299.082 209.384 299.213 209.284C299.344 209.184 299.438 209.043 299.48 208.884L299.55 208.526H299.552ZM300.728 207.145H301.385L301.285 207.627H301.3C301.377 207.47 301.494 207.337 301.639 207.24C301.785 207.142 301.953 207.085 302.127 207.074C302.174 207.074 302.275 207.095 302.318 207.099L302.065 207.827C302.016 207.819 301.967 207.816 301.918 207.818C301.827 207.808 301.735 207.815 301.647 207.84C301.56 207.866 301.478 207.908 301.406 207.965C301.335 208.022 301.275 208.092 301.231 208.172C301.187 208.252 301.159 208.34 301.149 208.431L300.861 209.997H300.174L300.729 207.145H300.728ZM287.012 209.296C287.012 209.296 286.946 209.596 286.93 209.745L286.895 209.998H286.285C286.272 209.852 286.272 209.704 286.285 209.558C286.169 209.69 286.027 209.797 285.868 209.873C285.709 209.948 285.537 209.99 285.361 209.997C285.256 210.003 285.152 209.983 285.057 209.939C284.962 209.894 284.88 209.827 284.817 209.744C284.754 209.66 284.713 209.562 284.698 209.458C284.682 209.354 284.693 209.249 284.728 209.15C284.764 208.918 284.876 208.705 285.046 208.543C285.216 208.381 285.435 208.281 285.668 208.256L286.305 208.156C286.37 208.155 286.434 208.134 286.486 208.094C286.537 208.054 286.575 207.998 286.592 207.935C286.651 207.624 286.379 207.672 286.204 207.668C285.844 207.656 285.486 207.718 285.152 207.851L285.307 207.306C285.651 207.153 286.027 207.09 286.402 207.123C286.517 207.097 286.636 207.098 286.749 207.128C286.863 207.157 286.968 207.213 287.056 207.292C287.143 207.37 287.211 207.468 287.252 207.578C287.294 207.688 287.309 207.806 287.295 207.923L287.012 209.297V209.296ZM286.472 208.526C286.319 208.613 286.148 208.664 285.972 208.676C285.846 208.673 285.722 208.713 285.622 208.79C285.522 208.867 285.452 208.977 285.424 209.1C285.408 209.139 285.403 209.182 285.409 209.224C285.414 209.266 285.431 209.306 285.456 209.339C285.481 209.373 285.515 209.4 285.554 209.417C285.592 209.434 285.635 209.441 285.677 209.437C285.842 209.438 286.002 209.384 286.133 209.284C286.263 209.184 286.357 209.043 286.399 208.884L286.469 208.526H286.472Z" fill="white"/>
<path fill-rule="evenodd" clip-rule="evenodd" d="M284.412 209.968H283.724L284.353 206.73H284.342L283.056 209.968H282.219L282.2 206.73H282.189L281.678 209.968H280.99L281.744 205.991H282.819L282.866 209.091H282.878L284.097 205.991H285.161L284.412 209.968V209.968ZM289.592 207.748C289.287 207.691 288.977 207.671 288.668 207.686C288.295 207.728 288.214 207.832 288.19 207.952C288.105 208.398 289.802 207.97 289.596 209.002C289.529 209.3 289.358 209.564 289.114 209.747C288.87 209.93 288.569 210.021 288.264 210.002C287.892 210.028 287.518 209.981 287.164 209.865L287.264 209.32C287.61 209.389 287.963 209.418 288.316 209.408C288.428 209.42 288.542 209.4 288.643 209.349C288.744 209.299 288.829 209.22 288.887 209.123C288.981 208.652 287.287 209.006 287.493 207.957C287.56 207.689 287.724 207.455 287.954 207.302C288.184 207.149 288.463 207.087 288.736 207.128C289.056 207.132 289.374 207.176 289.683 207.261L289.59 207.752L289.592 207.748ZM289.981 207.616L290.233 206.566H290.92L290.773 207.092H291.2L291.1 207.616H290.673L290.373 209.135C290.342 209.301 290.334 209.364 290.614 209.364C290.662 209.364 290.71 209.359 290.758 209.351L290.658 209.917C290.55 209.917 290.425 209.992 290.317 209.992H290.231C289.637 209.992 289.579 209.68 289.653 209.314L289.987 207.614L289.981 207.616ZM291.638 208.828C291.612 208.902 291.605 208.982 291.618 209.059C291.631 209.137 291.665 209.209 291.714 209.27C291.764 209.331 291.828 209.378 291.902 209.407C291.975 209.436 292.054 209.445 292.132 209.434C292.556 209.462 292.978 209.35 293.332 209.114L293.223 209.639C292.863 209.881 292.432 209.994 292 209.959C291.266 209.959 290.773 209.58 291 208.432C291.049 208.053 291.229 207.703 291.509 207.444C291.79 207.185 292.153 207.032 292.534 207.013C293.05 207.013 293.711 207.422 293.454 208.699L293.431 208.828H291.631H291.638ZM292.819 208.283C292.843 208.212 292.851 208.137 292.842 208.063C292.833 207.988 292.808 207.917 292.768 207.854C292.729 207.79 292.675 207.737 292.612 207.696C292.549 207.656 292.478 207.63 292.404 207.621C292.238 207.646 292.085 207.724 291.968 207.843C291.85 207.963 291.774 208.117 291.752 208.283H292.819ZM293.887 207.142H294.544L294.444 207.571H294.455C294.533 207.414 294.65 207.281 294.795 207.184C294.94 207.086 295.109 207.029 295.283 207.017C295.329 207.017 295.43 207.038 295.473 207.043L295.22 207.771C295.171 207.763 295.122 207.76 295.073 207.762C294.883 207.751 294.697 207.815 294.554 207.939C294.41 208.064 294.321 208.239 294.304 208.428L294.016 209.994H293.329L293.884 207.142H293.887ZM298.039 206.842C297.78 206.691 297.475 206.64 297.181 206.7C296.868 206.755 296.584 206.916 296.377 207.157C296.17 207.397 296.052 207.702 296.043 208.019C295.99 208.14 295.961 208.27 295.958 208.401C295.955 208.533 295.978 208.664 296.026 208.787C296.074 208.91 296.146 209.022 296.237 209.117C296.329 209.212 296.438 209.288 296.559 209.341C296.754 209.387 296.955 209.392 297.152 209.358C297.349 209.324 297.537 209.25 297.705 209.141L297.519 209.827C297.373 209.925 297.208 209.991 297.034 210.02C296.861 210.049 296.683 210.042 296.513 209.998C295.573 209.94 295.033 209.316 295.293 208.01C295.331 207.489 295.557 207 295.928 206.634C296.3 206.267 296.792 206.048 297.313 206.017C297.471 206.015 297.628 206.046 297.774 206.106C297.92 206.167 298.053 206.257 298.163 206.37L298.039 206.845V206.842ZM304.239 209.971H303.567L303.637 209.541H303.629C303.533 209.674 303.406 209.781 303.26 209.855C303.113 209.928 302.951 209.965 302.787 209.962C302.01 209.962 301.831 209.229 301.987 208.462C302.01 208.098 302.16 207.754 302.411 207.49C302.663 207.225 303 207.058 303.362 207.018C303.506 207.006 303.65 207.042 303.771 207.121C303.892 207.201 303.983 207.318 304.029 207.455H304.041L304.3 206H304.988L304.238 209.968L304.239 209.971ZM303.074 209.359C303.276 209.337 303.463 209.245 303.604 209.099C303.744 208.952 303.829 208.761 303.843 208.559C303.932 208.11 303.901 207.659 303.431 207.659C303.224 207.691 303.035 207.795 302.898 207.952C302.76 208.11 302.682 208.311 302.678 208.52C302.612 208.849 302.635 209.365 303.078 209.365L303.074 209.359ZM300.091 209.296C300.091 209.296 300.025 209.596 300.01 209.745L299.975 209.997H299.365C299.351 209.851 299.351 209.704 299.365 209.558C299.246 209.684 299.103 209.784 298.944 209.853C298.785 209.921 298.614 209.957 298.441 209.958C298.339 209.969 298.235 209.953 298.14 209.913C298.046 209.872 297.963 209.809 297.899 209.727C297.836 209.646 297.795 209.55 297.779 209.449C297.763 209.347 297.773 209.243 297.808 209.146C297.844 208.914 297.956 208.701 298.126 208.539C298.296 208.377 298.515 208.276 298.748 208.252L299.385 208.152C299.497 208.135 299.637 208.214 299.672 208.052C299.681 208 299.678 207.946 299.661 207.895C299.645 207.844 299.616 207.798 299.578 207.761C299.54 207.724 299.493 207.697 299.441 207.683C299.39 207.668 299.336 207.667 299.284 207.678C298.924 207.665 298.565 207.727 298.231 207.861L298.387 207.316C298.732 207.162 299.111 207.098 299.487 207.133C299.602 207.107 299.721 207.108 299.834 207.138C299.948 207.167 300.053 207.223 300.141 207.302C300.228 207.38 300.296 207.478 300.337 207.588C300.379 207.698 300.394 207.816 300.38 207.933L300.096 209.29L300.091 209.296ZM299.552 208.526C299.399 208.613 299.228 208.664 299.052 208.676C298.926 208.673 298.802 208.713 298.703 208.79C298.603 208.868 298.533 208.977 298.505 209.1C298.489 209.139 298.484 209.182 298.49 209.224C298.495 209.265 298.512 209.305 298.537 209.339C298.562 209.373 298.596 209.399 298.634 209.417C298.673 209.434 298.715 209.441 298.757 209.437C298.922 209.438 299.082 209.384 299.213 209.284C299.344 209.184 299.438 209.043 299.48 208.884L299.55 208.526H299.552ZM300.728 207.145H301.385L301.285 207.627H301.3C301.377 207.47 301.494 207.337 301.639 207.24C301.785 207.142 301.953 207.085 302.127 207.074C302.174 207.074 302.275 207.095 302.318 207.099L302.065 207.827C302.016 207.819 301.967 207.816 301.918 207.818C301.827 207.808 301.735 207.815 301.647 207.84C301.56 207.866 301.478 207.908 301.406 207.965C301.335 208.022 301.275 208.092 301.231 208.172C301.187 208.252 301.159 208.34 301.149 208.431L300.861 209.997H300.174L300.729 207.145H300.728ZM287.012 209.296C287.012 209.296 286.946 209.596 286.93 209.745L286.895 209.998H286.285C286.272 209.852 286.272 209.704 286.285 209.558C286.169 209.69 286.027 209.797 285.868 209.873C285.709 209.948 285.537 209.99 285.361 209.997C285.256 210.003 285.152 209.983 285.057 209.939C284.962 209.894 284.88 209.827 284.817 209.744C284.754 209.66 284.713 209.562 284.698 209.458C284.682 209.354 284.693 209.249 284.728 209.15C284.764 208.918 284.876 208.705 285.046 208.543C285.216 208.381 285.435 208.281 285.668 208.256L286.305 208.156C286.37 208.155 286.434 208.134 286.486 208.094C286.537 208.054 286.575 207.998 286.592 207.935C286.651 207.624 286.379 207.672 286.204 207.668C285.844 207.656 285.486 207.718 285.152 207.851L285.307 207.306C285.651 207.153 286.027 207.09 286.402 207.123C286.517 207.097 286.636 207.098 286.749 207.128C286.863 207.157 286.968 207.213 287.056 207.292C287.143 207.37 287.211 207.468 287.252 207.578C287.294 207.688 287.309 207.806 287.295 207.923L287.012 209.297V209.296ZM286.472 208.526C286.319 208.613 286.148 208.664 285.972 208.676C285.846 208.673 285.722 208.713 285.622 208.79C285.522 208.867 285.452 208.977 285.424 209.1C285.408 209.139 285.403 209.182 285.409 209.224C285.414 209.266 285.431 209.306 285.456 209.339C285.481 209.373 285.515 209.4 285.554 209.417C285.592 209.434 285.635 209.441 285.677 209.437C285.842 209.438 286.002 209.384 286.133 209.284C286.263 209.184 286.357 209.043 286.399 208.884L286.469 208.526H286.472Z" fill="white"/>
<path d="M335 216C339.418 216 343 212.418 343 208C343 203.582 339.418 200 335 200C330.582 200 327 203.582 327 208C327 212.418 330.582 216 335 216Z" fill="#E70025"/>
<path d="M343 216C347.418 216 351 212.418 351 208C351 203.582 347.418 200 343 200C338.582 200 335 203.582 335 208C335 212.418 338.582 216 343 216Z" fill="#F59E2D"/>
<path fill-rule="evenodd" clip-rule="evenodd" d="M339 214.921C337.784 214.22 336.774 213.212 336.072 211.997C335.37 210.782 335 209.403 335 208C335 206.597 335.37 205.218 336.072 204.003C336.774 202.788 337.784 201.78 339 201.079C340.216 201.78 341.226 202.788 341.928 204.003C342.63 205.218 343 206.597 343 208C343 209.403 342.63 210.782 341.928 211.997C341.226 213.212 340.216 214.22 339 214.921V214.921Z" fill="#FC5D1D"/>
<path d="M379 216C383.418 216 387 212.418 387 208C387 203.582 383.418 200 379 200C374.582 200 371 203.582 371 208C371 212.418 374.582 216 379 216Z" fill="#D2181C"/>
<path d="M387 216C391.418 216 395 212.418 395 208C395 203.582 391.418 200 387 200C382.582 200 379 203.582 379 208C379 212.418 382.582 216 387 216Z" fill="#179ADC"/>
<path fill-rule="evenodd" clip-rule="evenodd" d="M383 214.921C381.784 214.22 380.774 213.212 380.072 211.997C379.37 210.782 379 209.403 379 208C379 206.597 379.37 205.218 380.072 204.003C380.774 202.788 381.784 201.78 383 201.079C384.216 201.78 385.226 202.788 385.928 204.003C386.63 205.218 387 206.597 387 208C387 209.403 386.63 210.782 385.928 211.997C385.226 213.212 384.216 214.22 383 214.921V214.921Z" fill="#6C6BBB"/>
<path fill-rule="evenodd" clip-rule="evenodd" d="M427.864 212.293L425.836 213.028C425.771 213.05 425.7 213.047 425.637 213.018C425.575 212.989 425.526 212.938 425.501 212.874L424.45 210.038H419.528L418.48 212.868C418.455 212.932 418.407 212.984 418.344 213.013C418.282 213.041 418.211 213.045 418.146 213.023L416.12 212.288C416.089 212.278 416.059 212.262 416.033 212.24C416.008 212.219 415.987 212.192 415.972 212.163C415.957 212.133 415.948 212.1 415.946 212.067C415.943 212.034 415.948 212 415.959 211.969L420.055 201.255C420.219 200.882 420.49 200.565 420.833 200.342C421.175 200.119 421.576 200 421.985 200C422.394 200 422.795 200.119 423.137 200.342C423.48 200.565 423.75 200.882 423.915 201.255V201.255L428.026 211.975C428.037 212.006 428.042 212.04 428.039 212.073C428.037 212.106 428.028 212.138 428.013 212.168C427.998 212.198 427.977 212.224 427.952 212.246C427.926 212.267 427.896 212.283 427.864 212.293V212.293ZM422.31 203.959L421.988 203.058V203.051L420.135 208.02H423.843L422.31 203.959ZM415.958 215.029H428.042C428.299 215.037 428.543 215.144 428.721 215.328C428.9 215.512 429 215.758 429 216.014C429 216.27 428.9 216.516 428.721 216.7C428.543 216.884 428.299 216.992 428.042 217H415.958C415.701 216.992 415.457 216.884 415.279 216.7C415.1 216.516 415 216.27 415 216.014C415 215.758 415.1 215.512 415.279 215.328C415.457 215.144 415.701 215.037 415.958 215.029V215.029Z" fill="#FC0018"/>
<path fill-rule="evenodd" clip-rule="evenodd" d="M458.01 213V207.655H457.766L456.026 213H453.96H453.954L452.218 207.655H451.976V213H449V204H451.976C452.343 203.995 452.702 204.108 453 204.321C453.299 204.534 453.522 204.837 453.636 205.186V205.186L454.859 209.346H455.116L456.341 205.186C456.456 204.836 456.68 204.532 456.981 204.319C457.281 204.105 457.642 203.994 458.01 204H460.986V213H458.01Z" fill="#52B461"/>
<path fill-rule="evenodd" clip-rule="evenodd" d="M468.978 213V207.655H468.751L466.87 212.14C466.754 212.396 466.567 212.614 466.331 212.767C466.095 212.919 465.819 213 465.538 213H463.013V204H466.013V209.345H466.251L468.156 204.855L468.171 204.821C468.291 204.576 468.478 204.369 468.71 204.225C468.942 204.08 469.21 204.004 469.483 204.004H472.008V213.004H468.98L468.978 213Z" fill="#52B461"/>
<path fill-rule="evenodd" clip-rule="evenodd" d="M480.547 210.014H477.019V213H474.019V207.993H483.972C483.663 208.629 483.173 209.16 482.564 209.519C481.955 209.879 481.253 210.051 480.547 210.014Z" fill="#52B461"/>
<path fill-rule="evenodd" clip-rule="evenodd" d="M483.919 207.006H478.507C476.035 207.006 473.979 205.706 473.546 204H480.569C482.459 204 483.991 205.117 483.991 206.494C483.991 206.667 483.967 206.839 483.919 207.006V207.006Z" fill="url(#paint0_linear_350_398)"/>
<path fill-rule="evenodd" clip-rule="evenodd" d="M507.031 199.015H511.009V213.815C511.018 214.224 510.947 214.631 510.799 215.012C510.652 215.393 510.43 215.742 510.148 216.038C509.865 216.333 509.527 216.571 509.153 216.736C508.779 216.901 508.376 216.991 507.967 217H503.989V202.2C503.98 201.791 504.051 201.384 504.199 201.003C504.346 200.622 504.568 200.273 504.85 199.977C505.133 199.682 505.471 199.444 505.845 199.279C506.219 199.114 506.622 199.024 507.031 199.015Z" fill="#1060AC"/>
<path fill-rule="evenodd" clip-rule="evenodd" d="M515.029 199.015H518.99V213.815C519 214.223 518.93 214.629 518.783 215.01C518.637 215.391 518.416 215.739 518.135 216.035C517.853 216.331 517.517 216.568 517.143 216.734C516.77 216.899 516.368 216.99 515.96 217H512V202.2C511.979 201.376 512.287 200.577 512.855 199.98C513.423 199.383 514.205 199.036 515.029 199.015V199.015Z" fill="#DF003F"/>
<path fill-rule="evenodd" clip-rule="evenodd" d="M522.605 199.015H526V213.815C526.071 214.581 525.838 215.344 525.352 215.939C524.865 216.535 524.164 216.916 523.4 217H520V202.2C519.93 201.434 520.163 200.67 520.651 200.074C521.138 199.479 521.84 199.098 522.605 199.015Z" fill="#48A83B"/>
<path fill-rule="evenodd" clip-rule="evenodd" d="M515.376 210.026C516.286 210.016 517.178 209.775 517.969 209.326V210.706C517.095 211.011 516.176 211.165 515.25 211.161C514.13 211.173 513.021 210.941 512 210.481V205.56C513.021 205.101 514.13 204.869 515.25 204.88C516.176 204.877 517.095 205.031 517.969 205.336V206.699C517.178 206.249 516.286 206.006 515.376 205.993C514.878 206.046 514.418 206.282 514.083 206.654C513.749 207.026 513.564 207.509 513.564 208.01C513.564 208.51 513.749 208.993 514.083 209.365C514.418 209.737 514.878 209.973 515.376 210.026V210.026Z" fill="white"/>
<path fill-rule="evenodd" clip-rule="evenodd" d="M507.524 211H506.655C505.752 210.951 504.859 210.784 504 210.503V209.132C504.807 209.643 505.732 209.942 506.687 209.999H506.905C507.084 210.029 507.266 210.02 507.441 209.975C507.616 209.929 507.779 209.847 507.92 209.734C508.061 209.622 508.176 209.481 508.258 209.321C508.34 209.16 508.386 208.985 508.395 208.806V205H511V208.569C510.996 209.915 509.547 211 507.524 211Z" fill="white"/>
<path fill-rule="evenodd" clip-rule="evenodd" d="M525.634 209.508C525.595 209.927 525.397 210.316 525.081 210.595C524.765 210.873 524.355 211.021 523.934 211.008H520V205.008H523.38C523.588 204.989 523.798 205.014 523.996 205.081C524.194 205.148 524.376 205.255 524.531 205.397C524.685 205.538 524.808 205.709 524.892 205.901C524.977 206.092 525.02 206.299 525.02 206.508C525.02 206.717 524.977 206.924 524.892 207.115C524.808 207.307 524.685 207.478 524.531 207.619C524.376 207.76 524.194 207.868 523.996 207.935C523.798 208.002 523.588 208.027 523.38 208.008H523.934C524.355 207.995 524.765 208.143 525.081 208.421C525.397 208.7 525.594 209.089 525.634 209.508Z" fill="white"/>
<path fill-rule="evenodd" clip-rule="evenodd" d="M522.73 207.331H521V205.986H522.733C522.827 205.977 522.922 205.987 523.012 206.017C523.102 206.046 523.184 206.094 523.254 206.158C523.324 206.222 523.38 206.299 523.419 206.386C523.457 206.472 523.476 206.566 523.476 206.66C523.476 206.755 523.456 206.848 523.417 206.935C523.379 207.021 523.322 207.098 523.252 207.161C523.182 207.225 523.099 207.272 523.009 207.302C522.919 207.331 522.824 207.341 522.73 207.331Z" fill="#30993D"/>
<path fill-rule="evenodd" clip-rule="evenodd" d="M522.978 210H521V208.657H522.981C523.075 208.648 523.17 208.658 523.26 208.688C523.349 208.717 523.432 208.765 523.502 208.829C523.572 208.892 523.627 208.97 523.666 209.056C523.704 209.142 523.723 209.236 523.723 209.33C523.723 209.425 523.703 209.518 523.664 209.604C523.626 209.69 523.57 209.768 523.499 209.831C523.429 209.894 523.346 209.941 523.257 209.971C523.167 210 523.072 210.01 522.978 210V210Z" fill="#30993D"/>
<path d="M546.983 206.516C546.983 206.516 548.148 208.022 551.611 208.022C555.249 208.022 558.611 204.415 562.211 204.372C566.029 204.327 567.017 205.832 567.017 205.832" stroke="#2D927D" stroke-width="2" stroke-linecap="round"/>
<path d="M546.983 210.146C548.484 211.22 550.306 211.749 552.148 211.646C555.787 211.646 559.478 208.046 563.071 207.997C566.238 207.952 567.016 209.457 567.016 209.457" stroke="#2D927D" stroke-width="2" stroke-linecap="round"/>
<path d="M564.77 208.716C564.613 210.45 563.893 212.085 562.72 213.372C561.548 214.658 559.987 215.526 558.275 215.844C556.563 216.161 554.794 215.91 553.238 215.128C551.683 214.347 550.425 213.078 549.657 211.516M548.898 207.054C549.101 205.352 549.846 203.761 551.023 202.516C552.2 201.27 553.746 200.437 555.434 200.139C557.121 199.84 558.86 200.093 560.392 200.859C561.925 201.626 563.17 202.865 563.944 204.394" stroke="#2D927D" stroke-width="2" stroke-linecap="round"/>
<path fill-rule="evenodd" clip-rule="evenodd" d="M589.761 203.5L595.644 198L600.993 203L595.11 208.5L589.761 203.5Z" fill="#28EFBD"/>
<path fill-rule="evenodd" clip-rule="evenodd" d="M593.505 205L600.993 212L595.644 217L589.761 211.5C589.203 210.994 588.757 210.376 588.452 209.688C588.146 208.999 587.989 208.253 587.989 207.5C587.989 206.747 588.146 206.001 588.452 205.312C588.757 204.624 589.203 204.006 589.761 203.5L590.831 202.5L593.505 200C593.156 200.316 592.877 200.702 592.686 201.133C592.495 201.563 592.397 202.029 592.397 202.5C592.397 202.971 592.495 203.437 592.686 203.867C592.877 204.298 593.156 204.684 593.505 205V205Z" fill="url(#paint1_linear_350_398)"/>
<path d="M603.5 210C604.881 210 606 208.881 606 207.5C606 206.119 604.881 205 603.5 205C602.119 205 601 206.119 601 207.5C601 208.881 602.119 210 603.5 210Z" fill="#28EFBD"/>
<path fill-rule="evenodd" clip-rule="evenodd" d="M730.352 200.593C730.557 200.797 730.464 201.146 730.185 201.222L727.967 201.827C727.904 201.844 727.846 201.877 727.8 201.924L727.742 201.982C727.787 201.963 727.836 201.953 727.888 201.953L733.939 201.953C734.147 201.953 734.315 202.121 734.315 202.329V205.84C734.315 206.129 734.003 206.31 733.752 206.167L731.756 205.026C731.699 204.993 731.635 204.976 731.57 204.976H731.487C731.532 204.995 731.574 205.022 731.611 205.059L735.89 209.338C736.037 209.484 736.037 209.723 735.89 209.87L733.407 212.352C733.203 212.557 732.854 212.464 732.778 212.185L732.173 209.967C732.156 209.904 732.123 209.846 732.076 209.8L732.018 209.742C732.037 209.787 732.047 209.836 732.047 209.888V215.939C732.047 216.147 731.879 216.315 731.671 216.315H727.512L728.974 213.756C729.007 213.699 729.024 213.635 729.024 213.569V213.487C729.005 213.532 728.978 213.574 728.941 213.611L724.662 217.89C724.516 218.037 724.277 218.037 724.13 217.89L721.648 215.407C721.443 215.203 721.536 214.854 721.815 214.778L724.033 214.173C724.096 214.156 724.154 214.123 724.2 214.076L724.258 214.018C724.213 214.037 724.164 214.047 724.112 214.047H718.061C717.853 214.047 717.685 213.879 717.685 213.671L717.685 210.16C717.685 209.871 717.997 209.69 718.248 209.833L720.244 210.974C720.301 211.007 720.365 211.024 720.431 211.024H720.513C720.468 211.005 720.426 210.978 720.389 210.941L716.11 206.662C715.963 206.516 715.963 206.277 716.11 206.13L718.593 203.648C718.797 203.443 719.146 203.536 719.222 203.815L719.827 206.033C719.844 206.096 719.877 206.154 719.924 206.2L719.982 206.258C719.963 206.213 719.953 206.164 719.953 206.112V200.061C719.953 199.853 720.121 199.685 720.329 199.685H724.488L723.026 202.244C722.993 202.301 722.976 202.365 722.976 202.431V202.513C722.995 202.468 723.022 202.426 723.059 202.389L727.338 198.11C727.484 197.963 727.723 197.963 727.87 198.11L730.352 200.593ZM720.671 206.488L722.567 206.804C722.644 206.817 722.716 206.854 722.771 206.909L723.596 207.734C723.743 207.881 723.743 208.119 723.596 208.266L721.162 210.7L722.727 209.582C722.791 209.536 722.867 209.512 722.946 209.512H724.112C724.32 209.512 724.488 209.68 724.488 209.888V213.329L724.804 211.433C724.817 211.356 724.854 211.284 724.909 211.229L725.734 210.404C725.881 210.257 726.119 210.257 726.266 210.404L728.7 212.838L727.582 211.273C727.536 211.209 727.512 211.133 727.512 211.054V209.888C727.512 209.68 727.68 209.512 727.888 209.512H731.329L729.433 209.196C729.356 209.183 729.284 209.146 729.229 209.091L728.404 208.266C728.257 208.119 728.257 207.881 728.404 207.734L730.838 205.301L729.273 206.418C729.209 206.464 729.133 206.488 729.054 206.488H727.888C727.68 206.488 727.512 206.32 727.512 206.112V202.67L727.196 204.567C727.183 204.644 727.146 204.716 727.091 204.771L726.266 205.596C726.119 205.743 725.881 205.743 725.734 205.596L723.3 203.162L724.418 204.727C724.464 204.791 724.488 204.867 724.488 204.946V206.112C724.488 206.32 724.32 206.488 724.112 206.488H720.671Z" fill="#005995"/>
<path d="M768.17 208.606L771.84 216.28H766.08L763.068 209.983C762.584 210.342 762.2 210.832 761.969 211.403C761.813 211.789 761.727 212.212 761.727 212.655C761.727 213.482 762.027 214.239 762.523 214.819C762.034 216.095 760.809 217 759.375 217C757.511 217 756 215.472 756 213.586C756 213.178 756.071 212.787 756.201 212.424C756.883 209.929 759.221 207.895 761.83 207.394L758.16 199.72H763.92L766.932 206.017C767.417 205.658 767.8 205.168 768.031 204.597C768.187 204.211 768.273 203.788 768.273 203.345C768.273 202.518 767.973 201.761 767.477 201.181C767.966 199.905 769.191 199 770.625 199C772.489 199 774 200.528 774 202.414C774 202.822 773.929 203.213 773.8 203.575C773.117 206.07 770.779 208.105 768.17 208.606Z" fill="#FD6A5E"/>
<path d="M849 199H794V217H849V199Z" fill="#FFDD2D"/>
<path d="M804.08 210.993V206.611H806.442V205.016H799.997V206.611H802.36V210.993H804.08ZM808.85 205.016H807.13V210.993H808.85V205.016ZM810.11 205.016V210.993H811.692V207.691L814.64 210.993H816.108V205.016H814.525V208.294L811.647 205.016H810.11ZM819.488 208.733L821.472 210.993H823.686L820.922 207.879L823.583 205.016H821.496L819.488 207.264H819.03V205.016H817.367V210.993H819.03V208.733H819.488ZM827.108 204.853C824.872 204.853 823.529 206.234 823.529 208.017C823.529 209.8 824.872 211.182 827.108 211.182C829.332 211.182 830.674 209.8 830.674 208.017C830.674 206.234 829.332 204.853 827.108 204.853ZM827.108 209.725C825.995 209.725 825.284 208.997 825.284 208.017C825.284 207.038 825.995 206.322 827.108 206.322C828.209 206.322 828.932 207.038 828.932 208.017C828.932 208.997 828.209 209.725 827.108 209.725ZM836.98 205.016H831.464V210.993H833.127V208.996H836.74V207.678H833.127V206.536H836.98V205.016ZM843.241 205.016H837.725V210.993H839.388V208.996H843.001V207.678H839.388V206.536H843.241V205.016Z" fill="black"/>
<defs>
<filter id="filter0_f_350_398" x="232" y="202.423" width="30.6154" height="30.6154" filterUnits="userSpaceOnUse" color-interpolation-filters="sRGB">
<feFlood flood-opacity="0" result="BackgroundImageFix"/>
<feBlend mode="normal" in="SourceGraphic" in2="BackgroundImageFix" result="shape"/>
<feGaussianBlur stdDeviation="4" result="effect1_foregroundBlur_350_398"/>
</filter>
<filter id="filter1_f_350_398" x="225.423" y="188.538" width="30.6154" height="30.6154" filterUnits="userSpaceOnUse" color-interpolation-filters="sRGB">
<feFlood flood-opacity="0" result="BackgroundImageFix"/>
<feBlend mode="normal" in="SourceGraphic" in2="BackgroundImageFix" result="shape"/>
<feGaussianBlur stdDeviation="4" result="effect1_foregroundBlur_350_398"/>
</filter>
<filter id="filter2_f_350_398" x="228.154" y="199.308" width="23.6923" height="23.6923" filterUnits="userSpaceOnUse" color-interpolation-filters="sRGB">
<feFlood flood-opacity="0" result="BackgroundImageFix"/>
<feBlend mode="normal" in="SourceGraphic" in2="BackgroundImageFix" result="shape"/>
<feGaussianBlur stdDeviation="3" result="effect1_foregroundBlur_350_398"/>
</filter>
<linearGradient id="paint0_linear_350_398" x1="484" y1="205.5" x2="473.531" y2="205.5" gradientUnits="userSpaceOnUse">
<stop stop-color="#198ECA"/>
<stop offset="1" stop-color="#1DB5E4"/>
</linearGradient>
<linearGradient id="paint1_linear_350_398" x1="601" y1="211.956" x2="588" y2="205.044" gradientUnits="userSpaceOnUse">
<stop stop-color="#19A7F5"/>
<stop offset="1" stop-color="#1D90E9"/>
</linearGradient>
</defs>
</svg>
