<svg width="70" height="59" viewBox="0 0 70 59" fill="none" xmlns="http://www.w3.org/2000/svg">
<path opacity="0.1" d="M0 4V44.3787C0 45.715 1.61572 46.3843 2.56066 45.4393L9.82843 38.1716C10.5786 37.4214 11.596 37 12.6569 37H47C49.2091 37 51 35.2091 51 33V4C51 1.79086 49.2091 0 47 0H4C1.79086 0 0 1.79086 0 4Z" fill="#3761E9"/>
<path fill-rule="evenodd" clip-rule="evenodd" d="M17 15C17 13.3431 18.3431 12 20 12H65C66.6569 12 68 13.3431 68 15V43C68 44.6569 66.6569 46 65 46H30.6569C29.3308 46 28.059 46.5268 27.1213 47.4645L18.7071 55.8787C18.0771 56.5086 17 56.0625 17 55.1716V15ZM20 10C17.2386 10 15 12.2386 15 15V55.1716C15 57.8443 18.2314 59.1828 20.1213 57.2929L28.5355 48.8787C29.0981 48.3161 29.8612 48 30.6569 48H65C67.7614 48 70 45.7614 70 43V15C70 12.2386 67.7614 10 65 10H20ZM28 21C27.4477 21 27 21.4477 27 22C27 22.5523 27.4477 23 28 23H57C57.5523 23 58 22.5523 58 22C58 21.4477 57.5523 21 57 21H28ZM27 29C27 28.4477 27.4477 28 28 28H57C57.5523 28 58 28.4477 58 29C58 29.5523 57.5523 30 57 30H28C27.4477 30 27 29.5523 27 29ZM28 35C27.4477 35 27 35.4477 27 36C27 36.5523 27.4477 37 28 37H42C42.5523 37 43 36.5523 43 36C43 35.4477 42.5523 35 42 35H28Z" fill="#3761E9"/>
</svg>