<svg xmlns="http://www.w3.org/2000/svg" width="20" height="16" viewBox="0 0 20 16">
  <defs>
    <style>
      .cls-1 {
        fill: #222;
        fill-rule: evenodd;
      }
    </style>
  </defs>
  <path class="cls-1" d="M19.13,8.776a3.042,3.042,0,0,0-2.282-1.142,4.708,4.708,0,0,1,1-2.448,5.159,5.159,0,0,1,2.126-1.665L17.973,0A14.2,14.2,0,0,0,15.91,1.009,9.549,9.549,0,0,0,13.627,2.9a10.8,10.8,0,0,0-1.876,3.035,11.264,11.264,0,0,0-.782,4.439,6.058,6.058,0,0,0,1.313,4.08,4.519,4.519,0,0,0,3.627,1.534,4.265,4.265,0,0,0,3.033-1.142,3.96,3.96,0,0,0,1.219-3.035A4.357,4.357,0,0,0,19.13,8.776Zm-11.1,0A3.042,3.042,0,0,0,5.748,7.634a4.708,4.708,0,0,1,1-2.448A5.16,5.16,0,0,1,8.875,3.522L6.873,0A14.2,14.2,0,0,0,4.81,1.009,9.548,9.548,0,0,0,2.527,2.9,10.8,10.8,0,0,0,.651,5.937,11.264,11.264,0,0,0-.13,10.376a6.057,6.057,0,0,0,1.313,4.08A4.519,4.519,0,0,0,4.81,15.989a4.265,4.265,0,0,0,3.033-1.142,3.96,3.96,0,0,0,1.219-3.035A4.357,4.357,0,0,0,8.03,8.776Z"/>
</svg>
