<svg width="18" height="18" viewBox="0 0 18 18" fill="none" xmlns="http://www.w3.org/2000/svg">
<path fill-rule="evenodd" clip-rule="evenodd" d="M17.8695 3.28961C17.7476 3.65856 13.7182 15.7844 13.5164 16.3397C13.0884 17.5176 11.9748 18.0896 10.9275 17.9886C9.98549 17.8977 8.97159 17.2296 8.71591 16.027C8.64542 15.6955 7.84346 12.2376 7.45067 10.5446L5.28573 10.0452C3.75087 9.69123 2.17192 9.32733 1.93279 9.27244C-0.536978 8.70562 -0.662723 5.27198 1.6877 4.46901C1.9085 4.39358 4.49875 3.53169 7.30008 2.59955C7.61163 2.49588 7.9258 2.39135 8.2396 2.28693C9.81201 1.7637 11.3811 1.24153 12.5804 0.842007C13.1801 0.642225 13.6869 0.473258 14.0553 0.350216L14.4971 0.202439L14.6268 0.158793L14.6648 0.145927C14.6752 0.142376 14.678 0.141384 14.6764 0.141954C16.6095 -0.533077 18.5227 1.31235 17.8695 3.28961ZM13.9915 2.47947C13.966 2.48796 13.9403 2.49653 13.9143 2.50521C12.4714 2.98622 10.1504 3.75851 7.96284 4.48642C6.60482 4.9383 5.2982 5.37307 4.28495 5.71044C4.07339 5.78088 3.87462 5.84707 3.69084 5.90829C3.2288 6.06219 2.86151 6.18464 2.624 6.26401C2.46939 6.31567 2.36977 6.34908 2.33477 6.36103C1.86417 6.5218 1.89965 7.2133 2.38053 7.32367C2.43013 7.33505 2.53674 7.35958 2.6882 7.39446C2.9416 7.45282 3.32053 7.54013 3.76801 7.64326C3.96195 7.68796 4.16877 7.73564 4.38382 7.78521C6.25163 8.21579 8.74095 8.78995 8.81298 8.80727C8.92389 8.83394 9.13153 8.93572 9.18838 9.18247C9.19839 9.22593 9.24794 9.43949 9.32332 9.76435C9.52383 10.6285 9.90706 12.2802 10.2149 13.6127C10.2654 13.831 10.3138 14.0407 10.359 14.237C10.4579 14.6659 10.5417 15.0306 10.5986 15.2806C10.6362 15.4461 10.6621 15.5613 10.6728 15.6114C10.7689 16.0634 11.4474 16.176 11.636 15.6572C11.6491 15.6209 11.681 15.5283 11.7288 15.3871C11.8082 15.1531 11.9317 14.7859 12.0873 14.3214C12.1502 14.1336 12.2184 13.9298 12.291 13.7125C13.1751 11.0685 14.72 6.42381 15.4975 4.08466C15.5064 4.0578 15.5152 4.03125 15.524 4.005C15.6188 3.71969 15.7014 3.47107 15.769 3.26752C15.8828 2.92493 15.9542 2.71003 15.9698 2.66274C16.1002 2.26789 15.7107 1.8988 15.3363 2.02956C15.2899 2.04576 15.0626 2.12198 14.699 2.24341C14.5011 2.3095 14.2629 2.38899 13.9915 2.47947Z" fill="#888888"/>
</svg>