<svg width="13" height="13" viewBox="0 0 13 13" fill="none" xmlns="http://www.w3.org/2000/svg">
<path fill-rule="evenodd" clip-rule="evenodd" d="M10.9007 2.09972C10.8615 2.1188 10.821 2.1353 10.7796 2.1491L4.34943 4.29249L7.18639 5.14358C7.50836 5.24017 7.76027 5.49208 7.85686 5.81406L8.70795 8.65101L10.8513 2.22083C10.8651 2.17942 10.8816 2.13896 10.9007 2.09972ZM7.25032 10.7524C7.25207 10.7648 7.25403 10.7777 7.25624 10.7909C7.27412 10.8981 7.31173 11.0564 7.39694 11.2268C7.4841 11.4012 7.63054 11.6059 7.86893 11.7648C8.11358 11.9279 8.39484 12.0024 8.68121 12.0024C8.96759 12.0024 9.24885 11.9279 9.49349 11.7648C9.73188 11.6059 9.87833 11.4012 9.96549 11.2268C10.0507 11.0564 10.0883 10.8981 10.1062 10.7909C10.1073 10.7843 10.1083 10.7779 10.1093 10.7715L12.7308 2.90695C12.7308 2.90692 12.7308 2.90689 12.7309 2.90686C12.7485 2.86738 12.7713 2.81407 12.796 2.74984C12.8444 2.62419 12.9055 2.44262 12.9477 2.23194C13.0176 1.88228 13.1053 1.09147 12.5071 0.49332C11.909 -0.104839 11.1182 -0.017172 10.7685 0.0527581C10.5578 0.0948957 10.3763 0.15609 10.2506 0.204419C10.1864 0.229123 10.1331 0.251898 10.0936 0.269597C10.0936 0.26961 10.0935 0.269623 10.0935 0.269636L2.22891 2.89115C2.22257 2.89213 2.21612 2.89316 2.20958 2.89425C2.10231 2.91213 1.94401 2.94974 1.77361 3.03495C1.59928 3.12211 1.39454 3.26856 1.23561 3.50695C1.07251 3.7516 0.998047 4.03286 0.998047 4.31923C0.998047 4.6056 1.07251 4.88686 1.23561 5.13151C1.39454 5.3699 1.59928 5.51634 1.77361 5.60351C1.94401 5.68871 2.10231 5.72633 2.20958 5.7442C2.22279 5.74641 2.23561 5.74837 2.248 5.75012L6.09594 6.90451L7.25032 10.7524Z" fill="#888888"/>
</svg>