<svg width="41" height="42" viewBox="0 0 41 42" fill="none" xmlns="http://www.w3.org/2000/svg">
<path opacity="0.1" d="M8.00037 11L8.00003 39.5857C8.00002 40.4767 9.07717 40.9228 9.70713 40.2929L14.1213 35.8787C14.6839 35.3161 15.447 35 16.2426 35H38C39.6569 35 41 33.6569 41 32V11C41 9.34315 39.6569 8 38 8H11.0004C9.34353 8 8.00039 9.34313 8.00037 11Z" class="fill-theme-svg"/>
<path d="M1.00034 5.99994L1.00001 32.7929C1.00001 33.2383 1.53858 33.4614 1.85357 33.1464L7.70711 27.2929C7.89464 27.1054 8.149 27 8.41421 27H28C30.7614 27 33 24.7614 33 22V6C33 3.23858 30.7614 1 28 1H6.00034C3.23894 1 1.00037 3.23854 1.00034 5.99994Z"  stroke-width="2" stroke-linejoin="round"/>
<path d="M9 16.4924V17C9 18.1046 9.89543 19 11 19H13C14.1046 19 15 18.1046 15 17V14.9474V9.41588C15 9.18619 14.8138 9 14.5841 9C14.4669 9 14.3551 9.0495 14.2762 9.13632L10.0386 13.8035C9.37025 14.5396 9 15.4982 9 16.4924Z" stroke-width="2" stroke-linejoin="round"/>
<path d="M19 16.4924V17C19 18.1046 19.8954 19 21 19H23C24.1046 19 25 18.1046 25 17V14.9474V9.41588C25 9.18619 24.8138 9 24.5841 9C24.4669 9 24.3551 9.0495 24.2762 9.13632L20.0386 13.8035C19.3703 14.5396 19 15.4982 19 16.4924Z" stroke-width="2" stroke-linejoin="round"/>
</svg>
