<svg xmlns="http://www.w3.org/2000/svg" width="45" height="45" viewBox="0 0 45 45">
  <defs>
    <style>
      .cls-1, .cls-3 {
        fill: #fff;
      }

      .cls-2 {
        fill: #ee6d34;
      }

      .cls-3 {
        fill-rule: evenodd;
      }
    </style>
  </defs>
  <circle id="Ellipse" class="cls-1" cx="22.5" cy="22.5" r="22.5"/>
  <circle id="Ellipse-2" data-name="Ellipse" class="cls-2" cx="22.5" cy="22.5" r="19.5"/>
  <path id="SALE" class="cls-3" d="M12,17.948a2.878,2.878,0,0,0-3.085,2.824c0,2.886,4.155,2,4.155,3.471a1.1,1.1,0,0,1-1.269,1.07c-0.809,0-1.505-.485-2.09-0.485a0.83,0.83,0,0,0-.833.883c0,1.169,2.065,1.393,3.023,1.393a2.955,2.955,0,0,0,3.184-2.886c0-3.21-4.155-2.388-4.155-3.67a0.9,0.9,0,0,1,1.02-.809c0.746,0,1.144.373,1.654,0.373a0.862,0.862,0,0,0,.833-0.921C14.437,18.21,12.7,17.948,12,17.948ZM35,21a1,1,0,0,1,0,2H33v2h2a1,1,0,0,1,0,2H32a1,1,0,0,1-1-1V19a1,1,0,0,1,1-1h3a1,1,0,0,1,0,2H33v1h2Zm-6,6H26a1,1,0,0,1-1-1V19a1,1,0,0,1,2,0v6h2A1,1,0,0,1,29,27Zm-5.967.028a0.875,0.875,0,0,1-.911-0.649l-0.437-1.36H18.341L17.9,26.367a0.867,0.867,0,0,1-.9.661,0.9,0.9,0,0,1-.923-0.873,1.069,1.069,0,0,1,.087-0.412l2.508-6.788a1.468,1.468,0,0,1,1.335-1.036,1.412,1.412,0,0,1,1.335,1.036l2.445,6.788a1.451,1.451,0,0,1,.1.462A0.831,0.831,0,0,1,23.033,27.028Zm-3.009-7.012H20L18.97,23h2.063Z"/>
</svg>
