<svg width="39" height="39" viewBox="0 0 39 39" fill="none" xmlns="http://www.w3.org/2000/svg">
<circle opacity="0.1" cx="22.5" cy="22.5" r="16.5" fill="#3761E9"/>
<path fill-rule="evenodd" clip-rule="evenodd" d="M32 17C32 25.2843 25.2843 32 17 32C8.71573 32 2 25.2843 2 17C2 8.71573 8.71573 2 17 2C25.2843 2 32 8.71573 32 17ZM34 17C34 26.3888 26.3888 34 17 34C7.61116 34 0 26.3888 0 17C0 7.61116 7.61116 0 17 0C26.3888 0 34 7.61116 34 17ZM18.1464 10.8536L10.8536 18.1464C10.5386 18.4614 10.7617 19 11.2071 19H14.5C14.7761 19 15 19.2239 15 19.5V22.7929C15 23.2383 15.5386 23.4614 15.8536 23.1464L23.1464 15.8536C23.4614 15.5386 23.2383 15 22.7929 15H19.5C19.2239 15 19 14.7761 19 14.5V11.2071C19 10.7617 18.4614 10.5386 18.1464 10.8536Z" fill="#3761E9"/>
</svg>