<svg width="18" height="18" viewBox="0 0 18 18" fill="none" xmlns="http://www.w3.org/2000/svg">
<path fill-rule="evenodd" clip-rule="evenodd" d="M2.00098 9C2.00098 12.866 5.13498 16 9.00098 16C12.867 16 16.001 12.866 16.001 9C16.001 5.13401 12.867 2 9.00098 2C5.13498 2 2.00098 5.13401 2.00098 9ZM9.00098 18C4.03041 18 0.000976562 13.9706 0.000976562 9C0.000976562 4.02944 4.03041 0 9.00098 0C13.9715 0 18.001 4.02944 18.001 9C18.001 13.9706 13.9715 18 9.00098 18ZM10.001 5C10.001 4.44772 9.55326 4 9.00098 4C8.44869 4 8.00098 4.44772 8.00098 5V9C8.00098 9.26522 8.10633 9.51957 8.29387 9.70711L11.2939 12.7071C11.6844 13.0976 12.3176 13.0976 12.7081 12.7071C13.0986 12.3166 13.0986 11.6834 12.7081 11.2929L10.001 8.58579V5Z" fill="#888888"/>
</svg>