<svg width="14" height="14" viewBox="0 0 14 14" fill="none" xmlns="http://www.w3.org/2000/svg">
<path fill-rule="evenodd" clip-rule="evenodd" d="M2 7C2 4.23858 4.23858 2 7 2C9.76142 2 12 4.23858 12 7C12 9.76142 9.76142 12 7 12C4.23858 12 2 9.76142 2 7ZM7 0C3.13401 0 0 3.13401 0 7C0 10.866 3.13401 14 7 14C10.866 14 14 10.866 14 7C14 3.13401 10.866 0 7 0ZM8 4C8 3.44772 7.55228 3 7 3C6.44772 3 6 3.44772 6 4V7C6 7.37877 6.214 7.72504 6.55279 7.89443L8.55279 8.89443C9.04676 9.14142 9.64744 8.94119 9.89443 8.44721C10.1414 7.95324 9.94119 7.35256 9.44721 7.10557L8 6.38197V4Z" fill="#B8B8B8"/>
</svg>
