<svg width="19" height="19" viewBox="0 0 19 19" fill="none" xmlns="http://www.w3.org/2000/svg">
<path fill-rule="evenodd" clip-rule="evenodd" d="M8.99805 0.00244141C4.57977 0.00244141 0.998047 3.58416 0.998047 8.00244C0.998047 12.4207 4.57977 16.0024 8.99805 16.0024C10.8468 16.0024 12.549 15.3754 13.9037 14.3223L17.2909 17.7095C17.6815 18.1001 18.3146 18.1001 18.7052 17.7095C19.0957 17.319 19.0957 16.6859 18.7052 16.2953L15.3179 12.9081C16.371 11.5534 16.998 9.85115 16.998 8.00244C16.998 3.58416 13.4163 0.00244141 8.99805 0.00244141ZM2.99805 8.00244C2.99805 4.68873 5.68434 2.00244 8.99805 2.00244C12.3118 2.00244 14.998 4.68873 14.998 8.00244C14.998 11.3161 12.3118 14.0024 8.99805 14.0024C5.68434 14.0024 2.99805 11.3161 2.99805 8.00244Z" fill="#888888"/>
</svg>