<svg width="29" height="29" viewBox="0 0 29 29" fill="none" xmlns="http://www.w3.org/2000/svg">
<path opacity="0.35" fill-rule="evenodd" clip-rule="evenodd" d="M4 13C4 8.02944 8.02944 4 13 4C17.9706 4 22 8.02944 22 13C22 17.9706 17.9706 22 13 22C8.02944 22 4 17.9706 4 13ZM13 0C5.8203 0 0 5.8203 0 13C0 20.1797 5.8203 26 13 26C15.8682 26 18.5195 25.0711 20.6694 23.4978L25.5858 28.4142C26.3668 29.1953 27.6332 29.1953 28.4142 28.4142C29.1953 27.6332 29.1953 26.3668 28.4142 25.5858L23.4978 20.6694C25.0711 18.5195 26 15.8682 26 13C26 5.8203 20.1797 0 13 0Z" fill="#999999"/>
</svg>
