<svg width="14" height="14" viewBox="0 0 14 14" fill="none" xmlns="http://www.w3.org/2000/svg">
<path opacity="0.35" fill-rule="evenodd" clip-rule="evenodd" d="M9.47653 10.8907C8.49572 11.5892 7.29583 12 6 12C2.68629 12 0 9.31371 0 6C0 2.68629 2.68629 0 6 0C9.31371 0 12 2.68629 12 6C12 7.29583 11.5892 8.49572 10.8907 9.47653L13.7071 12.2929C14.0976 12.6834 14.0976 13.3166 13.7071 13.7071C13.3166 14.0976 12.6834 14.0976 12.2929 13.7071L9.47653 10.8907ZM2 6C2 3.79086 3.79086 2 6 2C8.20914 2 10 3.79086 10 6C10 7.00303 9.63081 7.91984 9.02091 8.62194C8.93908 8.66664 8.86217 8.72362 8.79289 8.79289C8.72362 8.86217 8.66664 8.93908 8.62194 9.02091C7.91984 9.63081 7.00303 10 6 10C3.79086 10 2 8.20914 2 6Z" fill="#333333"/>
</svg>
