<svg width="19" height="20" viewBox="0 0 19 20" fill="none" xmlns="http://www.w3.org/2000/svg">
<path d="M10 8.45994V9.5C10 10.3284 10.6716 11 11.5 11H12.5C13.3284 11 14 10.3284 14 9.5V5.36498C14 5.16341 13.8366 5 13.635 5C13.5479 5 13.4636 5.03117 13.3975 5.08787L10.3492 7.70068C10.1276 7.89066 10 8.16801 10 8.45994Z" fill="#999999"/>
<path d="M5 9.5V8.45994C5 8.16801 5.12756 7.89066 5.34921 7.70068L8.39749 5.08787C8.46364 5.03117 8.54789 5 8.63502 5C8.83659 5 9 5.16341 9 5.36498V9.5C9 10.3284 8.32843 11 7.5 11H6.5C5.67157 11 5 10.3284 5 9.5Z" fill="#999999"/>
<path fill-rule="evenodd" clip-rule="evenodd" d="M0.000216186 4C0.000216603 1.79086 1.79108 0 4.00022 0H15.0002C17.2094 0 19.0002 1.79086 19.0002 4V12C19.0002 14.2091 17.2094 16 15.0002 16H5.38608L2.50779 18.6098C1.54378 19.4839 0.000213623 18.7999 0.000213623 17.4986L0.000216186 4ZM4.00022 2C2.89565 2 2.00022 2.89543 2.00022 4L2.00021 16.3703L4.04265 14.5184C4.41057 14.1848 4.88944 14 5.38608 14H15.0002C16.1048 14 17.0002 13.1046 17.0002 12V4C17.0002 2.89543 16.1048 2 15.0002 2H4.00022Z" fill="#999999"/>
</svg>
