<svg width="14" height="16" viewBox="0 0 14 16" fill="none" xmlns="http://www.w3.org/2000/svg">
<path fill-rule="evenodd" clip-rule="evenodd" d="M11 2C10.4477 2 10 2.44772 10 3C10 3.55228 10.4477 4 11 4C11.5523 4 12 3.55228 12 3C12 2.44772 11.5523 2 11 2ZM8 3C8 1.34315 9.34315 0 11 0C12.6569 0 14 1.34315 14 3C14 4.65685 12.6569 6 11 6C10.3673 6 9.78039 5.80415 9.29652 5.46978L5.88525 7.17541C5.95999 7.4374 6 7.71403 6 8C6 8.28597 5.95999 8.5626 5.88525 8.82459L9.29652 10.5302C9.78039 10.1958 10.3673 10 11 10C12.6569 10 14 11.3431 14 13C14 14.6569 12.6569 16 11 16C9.34315 16 8 14.6569 8 13C8 12.714 8.04001 12.4374 8.11475 12.1754L4.70348 10.4698C4.21961 10.8042 3.63268 11 3 11C1.34315 11 0 9.65685 0 8C0 6.34315 1.34315 5 3 5C3.63268 5 4.21961 5.19585 4.70348 5.53022L8.11475 3.82459C8.04001 3.5626 8 3.28597 8 3ZM11 12C10.4477 12 10 12.4477 10 13C10 13.5523 10.4477 14 11 14C11.5523 14 12 13.5523 12 13C12 12.4477 11.5523 12 11 12ZM2 8C2 7.44772 2.44772 7 3 7C3.55228 7 4 7.44772 4 8C4 8.55228 3.55228 9 3 9C2.44772 9 2 8.55228 2 8Z" fill="#B8B8B8"/>
</svg>