<svg width="10" height="14" viewBox="0 0 10 14" fill="none" xmlns="http://www.w3.org/2000/svg">
<path fill-rule="evenodd" clip-rule="evenodd" d="M10 5.09375C10 6.40373 9.49622 7.59606 8.67184 8.48755L4.88411 13.0328C4.58473 13.3921 4 13.1804 4 12.7127V9.99373C1.71776 9.53046 0 7.51271 0 5.09375C0 2.33233 2.23858 0.09375 5 0.09375C7.76142 0.09375 10 2.33233 10 5.09375ZM5 2.09375C6.65685 2.09375 8 3.4369 8 5.09375C8 6.7506 6.65685 8.09375 5 8.09375C3.34315 8.09375 2 6.7506 2 5.09375C2 3.4369 3.34315 2.09375 5 2.09375Z" fill="#3761E9"/>
</svg>
