<svg width="18" height="17" viewBox="0 0 18 17" fill="none" xmlns="http://www.w3.org/2000/svg">
<path d="M8.52447 0.562646C8.67415 0.101991 9.32585 0.101991 9.47553 0.562646L11.1329 5.66346C11.1998 5.86947 11.3918 6.00895 11.6084 6.00895H16.9717C17.4561 6.00895 17.6575 6.62876 17.2656 6.91346L12.9266 10.0659C12.7514 10.1933 12.678 10.4189 12.745 10.625L14.4023 15.7258C14.552 16.1864 14.0248 16.5695 13.6329 16.2848L9.29389 13.1323C9.11865 13.005 8.88135 13.005 8.70611 13.1323L4.3671 16.2848C3.97524 16.5695 3.448 16.1864 3.59768 15.7258L5.25503 10.625C5.32197 10.4189 5.24864 10.1933 5.07339 10.0659L0.734384 6.91346C0.342527 6.62876 0.543915 6.00895 1.02828 6.00895H6.39159C6.6082 6.00895 6.80018 5.86947 6.86712 5.66346L8.52447 0.562646Z" fill="#E5C45B"/>
</svg>
