<svg width="25" height="23" viewBox="0 0 25 23" fill="none" xmlns="http://www.w3.org/2000/svg">
<path d="M11.5489 0.927054C11.8483 0.00574327 13.1517 0.00573969 13.4511 0.92705L15.5309 7.32827C15.6648 7.74029 16.0488 8.01925 16.482 8.01925L23.2126 8.01925C24.1814 8.01925 24.5841 9.25887 23.8004 9.82827L18.3552 13.7844C18.0047 14.0391 17.8581 14.4905 17.9919 14.9025L20.0718 21.3037C20.3712 22.225 19.3167 22.9911 18.533 22.4217L13.0878 18.4656C12.7373 18.2109 12.2627 18.2109 11.9122 18.4656L6.46701 22.4217C5.6833 22.9911 4.62882 22.225 4.92817 21.3037L7.00805 14.9025C7.14193 14.4905 6.99527 14.0391 6.64478 13.7844L1.19958 9.82827C0.415862 9.25887 0.81864 8.01925 1.78736 8.01925L8.51801 8.01925C8.95123 8.01925 9.33519 7.74029 9.46906 7.32827L11.5489 0.927054Z" fill="#E5C45B"/>
<path d="M11.5489 0.927054C11.8483 0.00574327 13.1517 0.00573969 13.4511 0.92705L15.5309 7.32827C15.6648 7.74029 16.0488 8.01925 16.482 8.01925L23.2126 8.01925C24.1814 8.01925 24.5841 9.25887 23.8004 9.82827L18.3552 13.7844C18.0047 14.0391 17.8581 14.4905 17.9919 14.9025L20.0718 21.3037C20.3712 22.225 19.3167 22.9911 18.533 22.4217L13.0878 18.4656C12.7373 18.2109 12.2627 18.2109 11.9122 18.4656L6.46701 22.4217C5.6833 22.9911 4.62882 22.225 4.92817 21.3037L7.00805 14.9025C7.14193 14.4905 6.99527 14.0391 6.64478 13.7844L1.19958 9.82827C0.415862 9.25887 0.81864 8.01925 1.78736 8.01925L8.51801 8.01925C8.95123 8.01925 9.33519 7.74029 9.46906 7.32827L11.5489 0.927054Z" fill="#DDDDDD"/>
<path d="M12.0245 1.08156C12.1741 0.620903 12.8259 0.620908 12.9755 1.08156L15.0554 7.48278C15.2562 8.10081 15.8322 8.51925 16.482 8.51925L23.2126 8.51925C23.697 8.51925 23.8984 9.13906 23.5065 9.42376L18.0613 13.3799C17.5356 13.7619 17.3156 14.439 17.5164 15.057L19.5963 21.4582C19.746 21.9189 19.2187 22.3019 18.8269 22.0172L13.3817 18.061C12.8559 17.6791 12.1441 17.6791 11.6183 18.0611L6.17312 22.0172C5.78126 22.3019 5.25402 21.9189 5.4037 21.4582L7.48358 15.057C7.68439 14.4389 7.46441 13.7619 6.93867 13.3799L1.49347 9.42376C1.10162 9.13906 1.303 8.51925 1.78736 8.51925L8.51801 8.51925C9.16784 8.51925 9.74378 8.10081 9.94459 7.48278L12.0245 1.08156Z" stroke="black" stroke-opacity="0.07"/>
</svg>
