<svg width="13" height="12" viewBox="0 0 13 12" fill="none" xmlns="http://www.w3.org/2000/svg">
<path d="M5.8497 0.757464L5.10624 3.73129C5.06228 3.90712 4.97136 4.0677 4.84321 4.19586L4.33196 4.70711C4.14442 4.89464 3.89007 5 3.62485 5H1.53906C0.986778 5 0.539062 5.44772 0.539062 6V10C0.539062 10.5523 0.986778 11 1.53906 11H3.48005C3.82265 11 4.13585 11.1936 4.28906 11.5C4.44228 11.8064 4.75548 12 5.09808 12H10.1248C10.3901 12 10.6444 11.8946 10.832 11.7071L11.3125 11.2266C11.4598 11.0792 11.5575 10.8895 11.5917 10.6839L12.4545 5.50762C12.5076 5.18906 12.4035 4.86447 12.1752 4.63611L11.832 4.29289C11.6444 4.10536 11.3901 4 11.1248 4H8.03906L8.45446 1.50762C8.50755 1.18906 8.40353 0.864471 8.17517 0.63611L7.83196 0.292893C7.64442 0.105357 7.39007 0 7.12485 0H6.81984C6.36097 0 5.96099 0.312297 5.8497 0.757464Z" fill="#333333"/>
</svg>