<svg xmlns="http://www.w3.org/2000/svg" width="23" height="23" viewBox="0 0 23 23">
  <defs>
    <style>
      .cls-1 {
        fill-rule: evenodd;
      }
    </style>
  </defs>
  <path class="cls-1" d="M11.5,23A11.5,11.5,0,1,1,23,11.5,11.5,11.5,0,0,1,11.5,23Zm5.512-3.773a7.933,7.933,0,0,0-11.024,0A9.457,9.457,0,0,0,17.012,19.228ZM11.5,2A9.488,9.488,0,0,0,4.484,17.889a9.98,9.98,0,0,1,14.032,0A9.488,9.488,0,0,0,11.5,2Zm0,12A4.5,4.5,0,1,1,16,9.5,4.5,4.5,0,0,1,11.5,14Zm0-7.012A2.512,2.512,0,1,0,14.012,9.5,2.512,2.512,0,0,0,11.5,6.988Z"/>
</svg>