<svg width="23" height="21" viewBox="0 0 23 21" fill="none" xmlns="http://www.w3.org/2000/svg">
<path fill-rule="evenodd" clip-rule="evenodd" d="M7.99805 4.00244C5.23662 4.00244 2.99805 6.24102 2.99805 9.00244V13.0024C2.99805 14.2874 3.48278 15.4592 4.27936 16.3449C4.81059 14.8325 6.04829 13.6528 7.59647 13.2015C6.62581 12.4717 5.99805 11.3104 5.99805 10.0024C5.99805 7.7933 7.78891 6.00244 9.99805 6.00244C12.2072 6.00244 13.998 7.7933 13.998 10.0024C13.998 11.3104 13.3703 12.4717 12.3996 13.2015C13.9478 13.6528 15.1855 14.8325 15.7167 16.3449C16.5133 15.4592 16.998 14.2874 16.998 13.0024V9.00244C16.998 8.45016 17.4458 8.00244 17.998 8.00244C18.5503 8.00244 18.998 8.45016 18.998 9.00244V13.0024C18.998 16.8684 15.864 20.0024 11.998 20.0024H7.99805C4.13205 20.0024 0.998047 16.8684 0.998047 13.0024V9.00244C0.998047 5.13645 4.13205 2.00244 7.99805 2.00244H11.998C12.5503 2.00244 12.998 2.45016 12.998 3.00244C12.998 3.55473 12.5503 4.00244 11.998 4.00244H7.99805ZM7.99805 18.0024C7.29738 18.0024 6.63038 17.8583 6.02507 17.5981C6.22252 16.1325 7.47831 15.0024 8.99805 15.0024H10.998C12.5178 15.0024 13.7736 16.1325 13.971 17.5981C13.3657 17.8583 12.6987 18.0024 11.998 18.0024H7.99805ZM7.99805 10.0024C7.99805 8.89787 8.89348 8.00244 9.99805 8.00244C11.1026 8.00244 11.998 8.89787 11.998 10.0024C11.998 11.107 11.1026 12.0024 9.99805 12.0024C8.89348 12.0024 7.99805 11.107 7.99805 10.0024Z" fill="#888888"/>
<path class="fill-more-theme" fill-rule="evenodd" clip-rule="evenodd" d="M22.7071 0.295335C23.0976 0.685859 23.0976 1.31902 22.7071 1.70955L18.7071 5.70955C18.3166 6.10007 17.6834 6.10007 17.2929 5.70955L15.2929 3.70955C14.9024 3.31902 14.9024 2.68586 15.2929 2.29533C15.6834 1.90481 16.3166 1.90481 16.7071 2.29533L18 3.58823L21.2929 0.295335C21.6834 -0.0951897 22.3166 -0.0951897 22.7071 0.295335Z" fill="#49B822"/>
</svg>