<svg xmlns="http://www.w3.org/2000/svg" width="13" height="13" viewBox="0 0 13 13">
  <defs>
    <style>
      .vtcls-1 {
        fill: #222;
        fill-rule: evenodd;
      }
    </style>
  </defs>
  <path class="vtcls-1" d="M0.75,5h1.5a0.75,0.75,0,0,1,.75.75v1.5A0.75,0.75,0,0,1,2.25,8H0.75A0.75,0.75,0,0,1,0,7.249v-1.5A0.75,0.75,0,0,1,.75,5Zm0,5h1.5a0.75,0.75,0,0,1,.75.75v1.5a0.75,0.75,0,0,1-.75.75H0.75A0.75,0.75,0,0,1,0,12.249v-1.5A0.75,0.75,0,0,1,.75,10Zm0-10h1.5A0.75,0.75,0,0,1,3,.749v1.5A0.75,0.75,0,0,1,2.25,3H0.75A0.75,0.75,0,0,1,0,2.249v-1.5A0.75,0.75,0,0,1,.75,0Zm5,5h1.5a0.75,0.75,0,0,1,.75.75v1.5A0.75,0.75,0,0,1,7.25,8H5.75A0.75,0.75,0,0,1,5,7.249v-1.5A0.75,0.75,0,0,1,5.75,5Zm0,5h1.5a0.75,0.75,0,0,1,.75.75v1.5a0.75,0.75,0,0,1-.75.75H5.75A0.75,0.75,0,0,1,5,12.249v-1.5A0.75,0.75,0,0,1,5.75,10Zm0-10h1.5A0.75,0.75,0,0,1,8,.749v1.5A0.75,0.75,0,0,1,7.25,3H5.75A0.75,0.75,0,0,1,5,2.249v-1.5A0.75,0.75,0,0,1,5.75,0Zm5,5h1.5a0.75,0.75,0,0,1,.75.75v1.5a0.75,0.75,0,0,1-.75.75h-1.5A0.75,0.75,0,0,1,10,7.249v-1.5A0.75,0.75,0,0,1,10.75,5Zm0,5h1.5a0.75,0.75,0,0,1,.75.75v1.5a0.75,0.75,0,0,1-.75.75h-1.5a0.75,0.75,0,0,1-.75-0.75v-1.5A0.75,0.75,0,0,1,10.75,10Zm0-10h1.5a0.75,0.75,0,0,1,.75.75v1.5a0.75,0.75,0,0,1-.75.75h-1.5A0.75,0.75,0,0,1,10,2.249v-1.5A0.75,0.75,0,0,1,10.75,0Z"/>
</svg>
