<svg xmlns="http://www.w3.org/2000/svg" width="13" height="13" viewBox="0 0 13 13">
  <defs>
    <style>
      .vlcls-1 {
        fill: #222;
        fill-rule: evenodd;
      }
    </style>
  </defs>
  <path class="vlcls-1" d="M0.5,5h2a0.5,0.5,0,0,1,.5.5v2a0.5,0.5,0,0,1-.5.5h-2A0.5,0.5,0,0,1,0,7.5v-2A0.5,0.5,0,0,1,.5,5Zm0,5h2a0.5,0.5,0,0,1,.5.5v2a0.5,0.5,0,0,1-.5.5h-2A0.5,0.5,0,0,1,0,12.5v-2A0.5,0.5,0,0,1,.5,10Zm0-10h2A0.5,0.5,0,0,1,3,.5v2a0.5,0.5,0,0,1-.5.5h-2A0.5,0.5,0,0,1,0,2.5v-2A0.5,0.5,0,0,1,.5,0Zm5,5h7a0.5,0.5,0,0,1,.5.5v2a0.5,0.5,0,0,1-.5.5h-7A0.5,0.5,0,0,1,5,7.5v-2A0.5,0.5,0,0,1,5.5,5Zm0,5h7a0.5,0.5,0,0,1,.5.5v2a0.5,0.5,0,0,1-.5.5h-7A0.5,0.5,0,0,1,5,12.5v-2A0.5,0.5,0,0,1,5.5,10Zm0-10h7a0.5,0.5,0,0,1,.5.5v2a0.5,0.5,0,0,1-.5.5h-7A0.5,0.5,0,0,1,5,2.5v-2A0.5,0.5,0,0,1,5.5,0Z"/>
</svg>
